G04 #@! TF.GenerationSoftware,KiCad,Pcbnew,8.99.0-unknown-bf16f757ed~178~ubuntu22.04.1*
G04 #@! TF.CreationDate,2024-04-23T09:45:42-07:00*
G04 #@! TF.ProjectId,rps_v4.0.0,7270735f-7634-42e3-902e-302e6b696361,rev?*
G04 #@! TF.SameCoordinates,PX6b4f310PY82524e0*
G04 #@! TF.FileFunction,Copper,L2,Bot*
G04 #@! TF.FilePolarity,Positive*
%FSLAX46Y46*%
G04 Gerber Fmt 4.6, Leading zero omitted, Abs format (unit mm)*
G04 Created by KiCad (PCBNEW 8.99.0-unknown-bf16f757ed~178~ubuntu22.04.1) date 2024-04-23 09:45:42*
%MOMM*%
%LPD*%
G01*
G04 APERTURE LIST*
G04 Aperture macros list*
%AMRoundRect*
0 Rectangle with rounded corners*
0 $1 Rounding radius*
0 $2 $3 $4 $5 $6 $7 $8 $9 X,Y pos of 4 corners*
0 Add a 4 corners polygon primitive as box body*
4,1,4,$2,$3,$4,$5,$6,$7,$8,$9,$2,$3,0*
0 Add four circle primitives for the rounded corners*
1,1,$1+$1,$2,$3*
1,1,$1+$1,$4,$5*
1,1,$1+$1,$6,$7*
1,1,$1+$1,$8,$9*
0 Add four rect primitives between the rounded corners*
20,1,$1+$1,$2,$3,$4,$5,0*
20,1,$1+$1,$4,$5,$6,$7,0*
20,1,$1+$1,$6,$7,$8,$9,0*
20,1,$1+$1,$8,$9,$2,$3,0*%
G04 Aperture macros list end*
G04 #@! TA.AperFunction,EtchedComponent*
%ADD10C,0.000000*%
G04 #@! TD*
G04 #@! TA.AperFunction,ComponentPad*
%ADD11R,2.000000X2.000000*%
G04 #@! TD*
G04 #@! TA.AperFunction,ComponentPad*
%ADD12C,2.000000*%
G04 #@! TD*
G04 #@! TA.AperFunction,ComponentPad*
%ADD13C,1.676400*%
G04 #@! TD*
G04 #@! TA.AperFunction,ComponentPad*
%ADD14C,1.524000*%
G04 #@! TD*
G04 #@! TA.AperFunction,ComponentPad*
%ADD15C,1.270000*%
G04 #@! TD*
G04 #@! TA.AperFunction,SMDPad,CuDef*
%ADD16RoundRect,0.062500X-0.062500X0.572500X-0.062500X-0.572500X0.062500X-0.572500X0.062500X0.572500X0*%
G04 #@! TD*
G04 #@! TA.AperFunction,SMDPad,CuDef*
%ADD17C,0.750000*%
G04 #@! TD*
G04 #@! TA.AperFunction,SMDPad,CuDef*
%ADD18R,1.100000X1.000000*%
G04 #@! TD*
G04 #@! TA.AperFunction,SMDPad,CuDef*
%ADD19R,0.635000X1.270000*%
G04 #@! TD*
G04 #@! TA.AperFunction,SMDPad,CuDef*
%ADD20R,0.655600X0.800000*%
G04 #@! TD*
G04 #@! TA.AperFunction,SMDPad,CuDef*
%ADD21R,0.800000X0.655600*%
G04 #@! TD*
G04 #@! TA.AperFunction,ViaPad*
%ADD22C,0.600000*%
G04 #@! TD*
G04 #@! TA.AperFunction,ViaPad*
%ADD23C,0.685800*%
G04 #@! TD*
G04 #@! TA.AperFunction,ViaPad*
%ADD24C,0.609600*%
G04 #@! TD*
G04 #@! TA.AperFunction,ViaPad*
%ADD25C,1.000000*%
G04 #@! TD*
G04 #@! TA.AperFunction,ViaPad*
%ADD26C,0.906400*%
G04 #@! TD*
G04 #@! TA.AperFunction,Conductor*
%ADD27C,0.400000*%
G04 #@! TD*
G04 #@! TA.AperFunction,Conductor*
%ADD28C,0.203200*%
G04 #@! TD*
G04 #@! TA.AperFunction,Conductor*
%ADD29C,0.200000*%
G04 #@! TD*
G04 #@! TA.AperFunction,Conductor*
%ADD30C,1.000000*%
G04 #@! TD*
G04 #@! TA.AperFunction,Conductor*
%ADD31C,0.600000*%
G04 #@! TD*
G04 APERTURE END LIST*
D10*
G04 #@! TA.AperFunction,EtchedComponent*
G36*
X17746000Y66165200D02*
G01*
X17339600Y66165200D01*
X17339600Y66419200D01*
X17746000Y66419200D01*
X17746000Y66165200D01*
G37*
G04 #@! TD.AperFunction*
G04 #@! TA.AperFunction,EtchedComponent*
G36*
X18762000Y66165200D02*
G01*
X18355600Y66165200D01*
X18355600Y66419200D01*
X18762000Y66419200D01*
X18762000Y66165200D01*
G37*
G04 #@! TD.AperFunction*
D11*
X4826000Y27980975D03*
D12*
X56816000Y27980975D03*
D13*
X20604800Y64314200D03*
X23144800Y64314200D03*
X25684800Y64314200D03*
X28224800Y64314200D03*
X30764800Y64314200D03*
X33304800Y64314200D03*
X35844800Y64314200D03*
X38384800Y64314200D03*
X38384800Y76554200D03*
X35844800Y76554200D03*
X33304800Y76554200D03*
X30764800Y76554200D03*
X28224800Y76554200D03*
X25684800Y76554200D03*
D14*
X23144800Y76554200D03*
X20604800Y76554200D03*
D15*
X28448000Y41315975D03*
X28448000Y38775975D03*
X30988000Y41315975D03*
X30988000Y38775975D03*
X33528000Y41315975D03*
X33528000Y38775975D03*
D16*
X30045000Y72873111D03*
X30680000Y72873111D03*
X31315000Y72873111D03*
X31950000Y72873111D03*
X32585000Y72873111D03*
X33220000Y72873111D03*
X33855000Y72873111D03*
X34490000Y72873111D03*
X35125000Y72873111D03*
X35760000Y72873111D03*
X36395000Y72873111D03*
X37030000Y72873111D03*
X37030000Y68138611D03*
X36395000Y68138611D03*
X35760000Y68138611D03*
X35125000Y68138611D03*
X34490000Y68138611D03*
X33855000Y68138611D03*
X33220000Y68138611D03*
X32585000Y68138611D03*
X31950000Y68138611D03*
X31315000Y68138611D03*
X30680000Y68138611D03*
X30045000Y68138611D03*
D17*
X5080000Y4866975D03*
D11*
X56896000Y10454975D03*
D12*
X4906000Y10454975D03*
D18*
X13390800Y66292200D03*
X15090800Y66292200D03*
D17*
X58166000Y69596000D03*
D18*
X22964800Y67054200D03*
X21264800Y67054200D03*
D17*
X5080000Y69596000D03*
D19*
X17034800Y66292200D03*
X18050800Y66292200D03*
X19066800Y66292200D03*
D20*
X23073600Y72263000D03*
X24729200Y72263000D03*
D21*
X23130800Y68896400D03*
X23130800Y70552000D03*
D11*
X56896000Y52578000D03*
D12*
X4906000Y52578000D03*
D22*
X12319000Y37084000D03*
X35306000Y58333975D03*
X12522200Y59791600D03*
X43484800Y59359800D03*
X11531600Y38100000D03*
X34620200Y62067775D03*
D23*
X39674800Y71704200D03*
D24*
X23876000Y60706000D03*
D22*
X12776200Y16256000D03*
X10541000Y58039000D03*
X10591800Y60121800D03*
X12471400Y57480200D03*
X28778800Y66802000D03*
X24282400Y66852800D03*
D24*
X28270200Y61915375D03*
X28829000Y59400775D03*
D22*
X31292800Y66878200D03*
X11988800Y39573200D03*
X26238200Y52070000D03*
X31623000Y69713175D03*
X31470600Y70602175D03*
X28575000Y73345375D03*
X31826200Y74803000D03*
X33304800Y70916800D03*
X34366200Y71541975D03*
X37033200Y66619400D03*
X28803600Y62661800D03*
X29464000Y66167000D03*
X35204400Y69992575D03*
X35052000Y70906975D03*
D24*
X36017200Y55778400D03*
X24133008Y53561216D03*
X24125252Y54358528D03*
X31343600Y59781775D03*
X24135614Y52769054D03*
X36093400Y54584600D03*
X30212222Y59703778D03*
X24161702Y55119157D03*
X35814000Y59436000D03*
X7874000Y60960000D03*
X7874000Y55880000D03*
X17678400Y64185800D03*
D25*
X20599400Y68894200D03*
X24739600Y68894200D03*
D26*
X28932000Y68046600D03*
D24*
X24130000Y55880000D03*
X27686000Y59690000D03*
X26670000Y58166000D03*
X38405845Y28022100D03*
X22275800Y28321000D03*
X24130000Y56642003D03*
X13512800Y38862000D03*
X26670000Y59690000D03*
X19227800Y57150000D03*
X34594800Y52974575D03*
X34594800Y57165575D03*
X32645000Y59690000D03*
D27*
X12319000Y37312600D02*
X11531600Y38100000D01*
X12319000Y37084000D02*
X12319000Y37312600D01*
X34620200Y59019775D02*
X34620200Y62067775D01*
X12522200Y57531000D02*
X12471400Y57480200D01*
X12522200Y59791600D02*
X12522200Y57531000D01*
X10591800Y60121800D02*
X10591800Y58089800D01*
X35306000Y58333975D02*
X34620200Y59019775D01*
X10591800Y58089800D02*
X10541000Y58039000D01*
D28*
X25237200Y62915800D02*
X26778400Y62915800D01*
X27778825Y61915375D02*
X27076400Y62617800D01*
X24282400Y66852800D02*
X23166200Y66852800D01*
X30680000Y68138611D02*
X30680000Y67503612D01*
X30680000Y67503612D02*
X29978388Y66802000D01*
X28270200Y61915375D02*
X27778825Y61915375D01*
X24488800Y63664200D02*
X25237200Y62915800D01*
X29978388Y66802000D02*
X28778800Y66802000D01*
X26778400Y62915800D02*
X27076400Y62617800D01*
X26777000Y62917200D02*
X27076400Y62617800D01*
X22964800Y67054200D02*
X24488800Y65530200D01*
X23166200Y66852800D02*
X22964800Y67054200D01*
X24488800Y65530200D02*
X24488800Y63664200D01*
X16662400Y62179200D02*
X13390800Y65450800D01*
X13390800Y65450800D02*
X13390800Y66292200D01*
X31315000Y66900400D02*
X31292800Y66878200D01*
D29*
X16814800Y62026800D02*
X19104000Y62026800D01*
D28*
X28829000Y59400775D02*
X28765488Y59400775D01*
X28765488Y59400775D02*
X26139463Y62026800D01*
D29*
X16662400Y62179200D02*
X16814800Y62026800D01*
D28*
X31315000Y68138611D02*
X31315000Y66900400D01*
X26139463Y62026800D02*
X19104000Y62026800D01*
D29*
X11988800Y39573200D02*
X11988800Y43256800D01*
X24206200Y52070000D02*
X26238200Y52070000D01*
X11988800Y43256800D02*
X20700400Y51968400D01*
X24104600Y51968400D02*
X24206200Y52070000D01*
X20700400Y51968400D02*
X24104600Y51968400D01*
D28*
X31623000Y69713175D02*
X31950000Y69386175D01*
X31950000Y69386175D02*
X31950000Y68138611D01*
X32585000Y69700800D02*
X32585000Y68138611D01*
X31683625Y70602175D02*
X32585000Y69700800D01*
X31470600Y70602175D02*
X31683625Y70602175D01*
X27674425Y74564575D02*
X25684800Y76554200D01*
X30159625Y74564575D02*
X27674425Y74564575D01*
X30680000Y74044200D02*
X30159625Y74564575D01*
X30680000Y72873111D02*
X30680000Y74044200D01*
X28224800Y76554200D02*
X28439575Y76554200D01*
X31315000Y74339175D02*
X31315000Y72873111D01*
X28439575Y76554200D02*
X29768800Y75224975D01*
X29768800Y75224975D02*
X30429200Y75224975D01*
X30429200Y75224975D02*
X31315000Y74339175D01*
X31950000Y72873111D02*
X31950000Y72423781D01*
X29641800Y71374000D02*
X28224800Y69957000D01*
X30900219Y71374000D02*
X29641800Y71374000D01*
X28224800Y69957000D02*
X28224800Y64314200D01*
X31950000Y72423781D02*
X30900219Y71374000D01*
X28575000Y73345375D02*
X28575000Y72974200D01*
X32585000Y74044200D02*
X32585000Y72873111D01*
X28575000Y72974200D02*
X25684800Y70084000D01*
X25684800Y70084000D02*
X25684800Y64314200D01*
X31826200Y74803000D02*
X32585000Y74044200D01*
X33304800Y70916800D02*
X33304800Y72788311D01*
X33304800Y72788311D02*
X33220000Y72873111D01*
X31106575Y76554200D02*
X30764800Y76554200D01*
X33855000Y72873111D02*
X33855000Y73805775D01*
X33855000Y73805775D02*
X31106575Y76554200D01*
X34366200Y71541975D02*
X34490000Y71665775D01*
X34490000Y71665775D02*
X34490000Y72873111D01*
X37033200Y66619400D02*
X37033200Y68135411D01*
X37033200Y68135411D02*
X37030000Y68138611D01*
X38384800Y71227000D02*
X38384800Y76554200D01*
X36395000Y69237200D02*
X38384800Y71227000D01*
X36395000Y68138611D02*
X36395000Y69237200D01*
X35760000Y68138611D02*
X35760000Y69542000D01*
X35760000Y69542000D02*
X37566600Y71348600D01*
X37566600Y71348600D02*
X37566600Y74832400D01*
X37566600Y74832400D02*
X35844800Y76554200D01*
X33553400Y62661800D02*
X34569400Y63677800D01*
X34569400Y66192400D02*
X35125000Y66748000D01*
X34569400Y63677800D02*
X34569400Y66192400D01*
X35125000Y66748000D02*
X35125000Y68138611D01*
X28803600Y62661800D02*
X33553400Y62661800D01*
X29464000Y66167000D02*
X29489400Y66192400D01*
X34490000Y67177281D02*
X34490000Y68138611D01*
X29489400Y66192400D02*
X33505119Y66192400D01*
X33505119Y66192400D02*
X34490000Y67177281D01*
X35204400Y69992575D02*
X33855000Y68643175D01*
X33855000Y68643175D02*
X33855000Y68138611D01*
X35052000Y70906975D02*
X33220000Y69074975D01*
X33220000Y69074975D02*
X33220000Y68138611D01*
X36017200Y55778400D02*
X33080625Y55778400D01*
X33080625Y55778400D02*
X30863441Y53561216D01*
X30863441Y53561216D02*
X24133008Y53561216D01*
X31673800Y59451575D02*
X31673800Y57343375D01*
X31673800Y57343375D02*
X28737225Y54406800D01*
X28737225Y54406800D02*
X24173524Y54406800D01*
X31343600Y59781775D02*
X31673800Y59451575D01*
X24173524Y54406800D02*
X24125252Y54358528D01*
X31683625Y52755800D02*
X24148868Y52755800D01*
X36093400Y54584600D02*
X33512425Y54584600D01*
X24148868Y52755800D02*
X24135614Y52769054D01*
X33512425Y54584600D02*
X31683625Y52755800D01*
X24161702Y55119157D02*
X24303120Y55260575D01*
X30212222Y58650397D02*
X30212222Y59703778D01*
X24303120Y55260575D02*
X26822400Y55260575D01*
X26822400Y55260575D02*
X30212222Y58650397D01*
X32232600Y38064775D02*
X32994600Y37302775D01*
X30988000Y41290575D02*
X32232600Y40045975D01*
X40640000Y41148000D02*
X40640000Y54610000D01*
X30988000Y41315975D02*
X30988000Y41290575D01*
X36794775Y37302775D02*
X40640000Y41148000D01*
X40640000Y54610000D02*
X35814000Y59436000D01*
X32232600Y40045975D02*
X32232600Y38064775D01*
X32994600Y37302775D02*
X36794775Y37302775D01*
D30*
X56896000Y10454975D02*
X56896000Y27900975D01*
D28*
X15090800Y66292200D02*
X17034800Y66292200D01*
X21264800Y67054200D02*
X20502800Y66292200D01*
X20502800Y66292200D02*
X19066800Y66292200D01*
D31*
X22084000Y72273400D02*
X23139400Y72273400D01*
X23130800Y68894200D02*
X20599400Y68894200D01*
X23130800Y68894200D02*
X22418800Y68894200D01*
D27*
X17678400Y64185800D02*
X18050800Y64558200D01*
D31*
X18008600Y67868800D02*
X18008600Y66919175D01*
X28932000Y68046600D02*
X29952989Y68046600D01*
D27*
X18050800Y66292200D02*
X18050800Y66609700D01*
D31*
X21310600Y71500000D02*
X22084000Y72273400D01*
X19034000Y68894200D02*
X18008600Y67868800D01*
X22418800Y68894200D02*
X21310600Y70002400D01*
D27*
X7874000Y60960000D02*
X7874000Y55880000D01*
D31*
X20599400Y68894200D02*
X19034000Y68894200D01*
D27*
X18050800Y64558200D02*
X18050800Y66292200D01*
D31*
X21310600Y70002400D02*
X21310600Y71500000D01*
X24739600Y68894200D02*
X23130800Y68894200D01*
D28*
X24158260Y55880000D02*
X24732635Y56454375D01*
X26746200Y56454375D02*
X27686000Y57394175D01*
X24732635Y56454375D02*
X26746200Y56454375D01*
X24130000Y55880000D02*
X24158260Y55880000D01*
X27686000Y57394175D02*
X27686000Y59690000D01*
X38380445Y27996700D02*
X22600100Y27996700D01*
X24130000Y56642003D02*
X24755172Y57267175D01*
X38405845Y28022100D02*
X38380445Y27996700D01*
X25577800Y57267175D02*
X26476625Y58166000D01*
X24755172Y57267175D02*
X25577800Y57267175D01*
X26476625Y58166000D02*
X26670000Y58166000D01*
X22600100Y27996700D02*
X22275800Y28321000D01*
X13512800Y38862000D02*
X23555625Y38862000D01*
X23555625Y38862000D02*
X27686000Y42992375D01*
X31851600Y42992375D02*
X33528000Y41315975D01*
X21005800Y58928000D02*
X25908000Y58928000D01*
X19227800Y57150000D02*
X21005800Y58928000D01*
X25908000Y58928000D02*
X26670000Y59690000D01*
X27686000Y42992375D02*
X31851600Y42992375D01*
X36687425Y52974575D02*
X38633400Y51028600D01*
X34594800Y57740200D02*
X32645000Y59690000D01*
X38633400Y51028600D02*
X38633400Y44221400D01*
X33528000Y39116000D02*
X33528000Y38775975D01*
X34594800Y52974575D02*
X36687425Y52974575D01*
X38633400Y44221400D02*
X33528000Y39116000D01*
X34594800Y57165575D02*
X34594800Y57740200D01*
G04 #@! TA.AperFunction,Conductor*
G36*
X58106152Y79399931D02*
G01*
X58106176Y79399927D01*
X58120589Y79399927D01*
X58143967Y79399927D01*
X58144197Y79399927D01*
X58151708Y79399699D01*
X58167565Y79398737D01*
X58437355Y79382364D01*
X58452249Y79380549D01*
X58730014Y79329488D01*
X58744590Y79325885D01*
X58910833Y79273915D01*
X59014140Y79241620D01*
X59028176Y79236279D01*
X59285552Y79120051D01*
X59298840Y79113053D01*
X59540292Y78966555D01*
X59552636Y78958001D01*
X59774594Y78783398D01*
X59785814Y78773415D01*
X59888956Y78669790D01*
X59985045Y78573252D01*
X59994975Y78561986D01*
X60168546Y78339206D01*
X60177034Y78326834D01*
X60260873Y78187187D01*
X60322403Y78084699D01*
X60329339Y78071379D01*
X60444367Y77813456D01*
X60449642Y77799395D01*
X60532644Y77529462D01*
X60536181Y77514866D01*
X60585943Y77236870D01*
X60587689Y77221954D01*
X60603689Y76936233D01*
X60603882Y76928726D01*
X60603703Y76890081D01*
X60603899Y76888570D01*
X60604084Y3655148D01*
X60604084Y3631506D01*
X60603861Y3624075D01*
X60586801Y3339893D01*
X60585024Y3325141D01*
X60534757Y3048691D01*
X60531227Y3034256D01*
X60448254Y2765813D01*
X60443023Y2751904D01*
X60328533Y2495312D01*
X60321676Y2482129D01*
X60177312Y2241071D01*
X60168927Y2228803D01*
X59996768Y2006750D01*
X59986976Y1995573D01*
X59789485Y1795703D01*
X59778426Y1785778D01*
X59558449Y1610971D01*
X59546282Y1602440D01*
X59306978Y1455204D01*
X59293878Y1448189D01*
X59038671Y1330632D01*
X59024826Y1325235D01*
X58757393Y1239052D01*
X58743002Y1235350D01*
X58467180Y1181777D01*
X58452449Y1179823D01*
X58168993Y1159397D01*
X58160081Y1159076D01*
X3814847Y1159076D01*
X3806518Y1159356D01*
X3523597Y1178403D01*
X3508812Y1180296D01*
X3233402Y1232550D01*
X3218949Y1236205D01*
X2951821Y1321125D01*
X2937913Y1326486D01*
X2682897Y1442849D01*
X2669732Y1449841D01*
X2430513Y1595970D01*
X2418281Y1604492D01*
X2410080Y1610971D01*
X2369563Y1642983D01*
X2198334Y1778266D01*
X2187215Y1788193D01*
X1989713Y1987099D01*
X1979864Y1998289D01*
X1807648Y2219469D01*
X1799214Y2231760D01*
X1654791Y2471995D01*
X1647892Y2485209D01*
X1591724Y2610649D01*
X1533331Y2741058D01*
X1528075Y2754987D01*
X1445042Y3022739D01*
X1441495Y3037200D01*
X1391194Y3312969D01*
X1389406Y3327763D01*
X1372260Y3612545D01*
X1372037Y3619980D01*
X1372037Y3627790D01*
X1372038Y3642382D01*
X1372037Y3642383D01*
X1372038Y3656807D01*
X1372037Y3656825D01*
X1372038Y4866976D01*
X3949678Y4866976D01*
X3949678Y4866975D01*
X3968923Y4659284D01*
X3968923Y4659282D01*
X3968924Y4659279D01*
X4026006Y4458656D01*
X4118981Y4271937D01*
X4244682Y4105482D01*
X4398829Y3964959D01*
X4576172Y3855152D01*
X4770673Y3779802D01*
X4975707Y3741475D01*
X4975710Y3741475D01*
X5184290Y3741475D01*
X5184293Y3741475D01*
X5389327Y3779802D01*
X5583828Y3855152D01*
X5761171Y3964959D01*
X5915318Y4105482D01*
X6041019Y4271937D01*
X6133994Y4458656D01*
X6191076Y4659279D01*
X6210322Y4866975D01*
X6191076Y5074671D01*
X6133994Y5275294D01*
X6041019Y5462013D01*
X5915318Y5628468D01*
X5761171Y5768991D01*
X5583828Y5878798D01*
X5583827Y5878799D01*
X5441609Y5933894D01*
X5389327Y5954148D01*
X5184293Y5992475D01*
X4975707Y5992475D01*
X4770673Y5954148D01*
X4770670Y5954148D01*
X4770670Y5954147D01*
X4576172Y5878799D01*
X4576171Y5878798D01*
X4398827Y5768990D01*
X4244683Y5628470D01*
X4118981Y5462014D01*
X4026007Y5275298D01*
X3968923Y5074667D01*
X3949678Y4866976D01*
X1372038Y4866976D01*
X1372041Y8890000D01*
X1372042Y10454981D01*
X3400859Y10454981D01*
X3400859Y10454970D01*
X3421385Y10207246D01*
X3421387Y10207237D01*
X3482412Y9966258D01*
X3582266Y9738611D01*
X3682564Y9585093D01*
X4414871Y10317400D01*
X4430755Y10258122D01*
X4497898Y10141828D01*
X4592853Y10046873D01*
X4709147Y9979730D01*
X4768424Y9963847D01*
X4035942Y9231366D01*
X4082768Y9194920D01*
X4082770Y9194919D01*
X4301385Y9076611D01*
X4301396Y9076606D01*
X4536506Y8995892D01*
X4781707Y8954975D01*
X5030293Y8954975D01*
X5275493Y8995892D01*
X5510603Y9076606D01*
X5510614Y9076611D01*
X5729228Y9194918D01*
X5729231Y9194920D01*
X5776056Y9231366D01*
X5043575Y9963847D01*
X5102853Y9979730D01*
X5219147Y10046873D01*
X5314102Y10141828D01*
X5381245Y10258122D01*
X5397127Y10317400D01*
X6129434Y9585093D01*
X6229731Y9738606D01*
X6329587Y9966258D01*
X6390612Y10207237D01*
X6390614Y10207246D01*
X6411141Y10454970D01*
X6411141Y10454981D01*
X6390614Y10702705D01*
X6390612Y10702714D01*
X6329587Y10943693D01*
X6229731Y11171345D01*
X6129434Y11324859D01*
X5397127Y10592552D01*
X5381245Y10651828D01*
X5314102Y10768122D01*
X5219147Y10863077D01*
X5102853Y10930220D01*
X5043575Y10946103D01*
X5776057Y11678585D01*
X5776056Y11678586D01*
X5729229Y11715032D01*
X5510614Y11833340D01*
X5510603Y11833345D01*
X5275493Y11914059D01*
X5030293Y11954975D01*
X4781707Y11954975D01*
X4536506Y11914059D01*
X4301396Y11833345D01*
X4301390Y11833343D01*
X4082761Y11715026D01*
X4035942Y11678587D01*
X4035942Y11678585D01*
X4768424Y10946104D01*
X4709147Y10930220D01*
X4592853Y10863077D01*
X4497898Y10768122D01*
X4430755Y10651828D01*
X4414872Y10592551D01*
X3682564Y11324859D01*
X3582267Y11171343D01*
X3482412Y10943693D01*
X3421387Y10702714D01*
X3421385Y10702705D01*
X3400859Y10454981D01*
X1372042Y10454981D01*
X1372056Y26416000D01*
X3302000Y26416000D01*
X6350000Y26416000D01*
X6350000Y26456975D01*
X55372000Y26456975D01*
X56119100Y26456975D01*
X56186139Y26437290D01*
X56231894Y26384486D01*
X56243100Y26332975D01*
X56243100Y12062000D01*
X56223415Y11994961D01*
X56170611Y11949206D01*
X56119100Y11938000D01*
X55372000Y11938000D01*
X55372000Y8890000D01*
X58420000Y8890000D01*
X58420000Y11938000D01*
X57672900Y11938000D01*
X57605861Y11957685D01*
X57560106Y12010489D01*
X57548900Y12062000D01*
X57548900Y26332975D01*
X57568585Y26400014D01*
X57621389Y26445769D01*
X57672900Y26456975D01*
X58420000Y26456975D01*
X58420000Y29504975D01*
X55372000Y29504975D01*
X55372000Y26456975D01*
X6350000Y26456975D01*
X6350000Y28321000D01*
X21813393Y28321000D01*
X21832123Y28190727D01*
X21832124Y28190722D01*
X21886797Y28071006D01*
X21886798Y28071004D01*
X21972988Y27971536D01*
X22083709Y27900380D01*
X22083712Y27900379D01*
X22083711Y27900379D01*
X22209990Y27863301D01*
X22209992Y27863300D01*
X22322220Y27863300D01*
X22389259Y27843615D01*
X22409901Y27826981D01*
X22455937Y27780945D01*
X22521897Y27753624D01*
X22521898Y27753623D01*
X22549473Y27742201D01*
X22549474Y27742201D01*
X22549476Y27742200D01*
X22549477Y27742200D01*
X37986126Y27742200D01*
X38053165Y27722515D01*
X38079838Y27699404D01*
X38103033Y27672636D01*
X38213754Y27601480D01*
X38213757Y27601479D01*
X38213756Y27601479D01*
X38340035Y27564401D01*
X38340037Y27564400D01*
X38340038Y27564400D01*
X38471653Y27564400D01*
X38471653Y27564401D01*
X38597936Y27601480D01*
X38708657Y27672636D01*
X38794847Y27772104D01*
X38849521Y27891825D01*
X38868252Y28022100D01*
X38849521Y28152375D01*
X38849520Y28152376D01*
X38849520Y28152379D01*
X38794847Y28272095D01*
X38794847Y28272096D01*
X38708657Y28371564D01*
X38597936Y28442720D01*
X38597934Y28442721D01*
X38597932Y28442722D01*
X38597933Y28442722D01*
X38471654Y28479800D01*
X38471652Y28479800D01*
X38340038Y28479800D01*
X38340035Y28479800D01*
X38213756Y28442722D01*
X38103034Y28371565D01*
X38103033Y28371565D01*
X38103033Y28371564D01*
X38035819Y28293997D01*
X37977042Y28256223D01*
X37942108Y28251200D01*
X22855689Y28251200D01*
X22788650Y28270885D01*
X22742895Y28323689D01*
X22732951Y28357553D01*
X22730936Y28371565D01*
X22719476Y28451275D01*
X22719475Y28451279D01*
X22664802Y28570995D01*
X22664802Y28570996D01*
X22578612Y28670464D01*
X22467891Y28741620D01*
X22467889Y28741621D01*
X22467887Y28741622D01*
X22467888Y28741622D01*
X22341609Y28778700D01*
X22341607Y28778700D01*
X22209993Y28778700D01*
X22209990Y28778700D01*
X22083711Y28741622D01*
X21972989Y28670465D01*
X21886799Y28570998D01*
X21886797Y28570995D01*
X21832124Y28451279D01*
X21832123Y28451274D01*
X21813393Y28321000D01*
X6350000Y28321000D01*
X6350000Y29464000D01*
X3302000Y29464000D01*
X3302000Y26416000D01*
X1372056Y26416000D01*
X1372066Y37907345D01*
X7251200Y37907345D01*
X7251200Y37784656D01*
X7275132Y37664344D01*
X7275134Y37664336D01*
X7322080Y37550997D01*
X7322085Y37550988D01*
X7390239Y37448989D01*
X7390242Y37448985D01*
X7476984Y37362243D01*
X7476988Y37362240D01*
X7578987Y37294086D01*
X7578993Y37294083D01*
X7578994Y37294082D01*
X7692336Y37247134D01*
X7812655Y37223201D01*
X7812658Y37223200D01*
X7812660Y37223200D01*
X7935342Y37223200D01*
X7935343Y37223201D01*
X8055664Y37247134D01*
X8169006Y37294082D01*
X8271012Y37362240D01*
X8357760Y37448988D01*
X8425918Y37550994D01*
X8472866Y37664336D01*
X8496800Y37784660D01*
X8496800Y37907340D01*
X8496800Y37907343D01*
X8496799Y37907345D01*
X9283200Y37907345D01*
X9283200Y37784656D01*
X9307132Y37664344D01*
X9307134Y37664336D01*
X9354080Y37550997D01*
X9354085Y37550988D01*
X9422239Y37448989D01*
X9422242Y37448985D01*
X9508984Y37362243D01*
X9508988Y37362240D01*
X9610987Y37294086D01*
X9610993Y37294083D01*
X9610994Y37294082D01*
X9724336Y37247134D01*
X9844655Y37223201D01*
X9844658Y37223200D01*
X9844660Y37223200D01*
X9967342Y37223200D01*
X9967343Y37223201D01*
X10087664Y37247134D01*
X10201006Y37294082D01*
X10303012Y37362240D01*
X10389760Y37448988D01*
X10457918Y37550994D01*
X10504866Y37664336D01*
X10528800Y37784660D01*
X10528800Y37907340D01*
X10528800Y37907343D01*
X10528799Y37907345D01*
X10507554Y38014149D01*
X10504866Y38027664D01*
X10457918Y38141006D01*
X10457917Y38141007D01*
X10457914Y38141013D01*
X10389760Y38243012D01*
X10389757Y38243016D01*
X10303015Y38329758D01*
X10303011Y38329761D01*
X10201012Y38397915D01*
X10201003Y38397920D01*
X10087664Y38444866D01*
X10087656Y38444868D01*
X9967343Y38468800D01*
X9967340Y38468800D01*
X9844660Y38468800D01*
X9844657Y38468800D01*
X9724343Y38444868D01*
X9724335Y38444866D01*
X9610996Y38397920D01*
X9610987Y38397915D01*
X9508988Y38329761D01*
X9508984Y38329758D01*
X9422242Y38243016D01*
X9422239Y38243012D01*
X9354085Y38141013D01*
X9354080Y38141004D01*
X9307134Y38027665D01*
X9307132Y38027657D01*
X9283200Y37907345D01*
X8496799Y37907345D01*
X8475554Y38014149D01*
X8472866Y38027664D01*
X8425918Y38141006D01*
X8425917Y38141007D01*
X8425914Y38141013D01*
X8357760Y38243012D01*
X8357757Y38243016D01*
X8271015Y38329758D01*
X8271011Y38329761D01*
X8169012Y38397915D01*
X8169003Y38397920D01*
X8055664Y38444866D01*
X8055656Y38444868D01*
X7935343Y38468800D01*
X7935340Y38468800D01*
X7812660Y38468800D01*
X7812657Y38468800D01*
X7692343Y38444868D01*
X7692335Y38444866D01*
X7578996Y38397920D01*
X7578987Y38397915D01*
X7476988Y38329761D01*
X7476984Y38329758D01*
X7390242Y38243016D01*
X7390239Y38243012D01*
X7322085Y38141013D01*
X7322080Y38141004D01*
X7275134Y38027665D01*
X7275132Y38027657D01*
X7251200Y37907345D01*
X1372066Y37907345D01*
X1372067Y38862000D01*
X13050393Y38862000D01*
X13069123Y38731727D01*
X13069124Y38731722D01*
X13123057Y38613627D01*
X13123798Y38612004D01*
X13209988Y38512536D01*
X13320709Y38441380D01*
X13320712Y38441379D01*
X13320711Y38441379D01*
X13446990Y38404301D01*
X13446992Y38404300D01*
X13446993Y38404300D01*
X13578608Y38404300D01*
X13578608Y38404301D01*
X13704891Y38441380D01*
X13815612Y38512536D01*
X13849621Y38551784D01*
X13860816Y38564703D01*
X13919594Y38602477D01*
X13954528Y38607500D01*
X23606246Y38607500D01*
X23606248Y38607500D01*
X23653018Y38626873D01*
X23699785Y38646243D01*
X23699786Y38646245D01*
X23699788Y38646245D01*
X23829519Y38775976D01*
X27308138Y38775976D01*
X27308138Y38775975D01*
X27327545Y38566531D01*
X27385111Y38364206D01*
X27478871Y38175913D01*
X27485545Y38167076D01*
X27958504Y38640034D01*
X27974619Y38579894D01*
X28041498Y38464055D01*
X28136080Y38369473D01*
X28251919Y38302594D01*
X28312057Y38286481D01*
X27841887Y37816312D01*
X27939918Y37755613D01*
X27939920Y37755612D01*
X28136063Y37679627D01*
X28342829Y37640975D01*
X28553171Y37640975D01*
X28759935Y37679627D01*
X28759936Y37679627D01*
X28956079Y37755612D01*
X28956080Y37755613D01*
X29054110Y37816311D01*
X29054111Y37816312D01*
X28583942Y38286481D01*
X28644081Y38302594D01*
X28759920Y38369473D01*
X28854502Y38464055D01*
X28921381Y38579894D01*
X28937495Y38640033D01*
X29410452Y38167076D01*
X29410453Y38167076D01*
X29417128Y38175914D01*
X29510888Y38364206D01*
X29568454Y38566531D01*
X29587862Y38775975D01*
X29587862Y38775976D01*
X29568454Y38985420D01*
X29510888Y39187745D01*
X29417130Y39376034D01*
X29417128Y39376038D01*
X29410453Y39384876D01*
X29410452Y39384877D01*
X28937494Y38911919D01*
X28921381Y38972056D01*
X28854502Y39087895D01*
X28759920Y39182477D01*
X28644081Y39249356D01*
X28583942Y39265470D01*
X29054111Y39735640D01*
X29054110Y39735641D01*
X28956083Y39796337D01*
X28956077Y39796339D01*
X28759936Y39872324D01*
X28553171Y39910975D01*
X28342829Y39910975D01*
X28136064Y39872324D01*
X28136063Y39872324D01*
X27939923Y39796340D01*
X27841887Y39735640D01*
X28312057Y39265470D01*
X28251919Y39249356D01*
X28136080Y39182477D01*
X28041498Y39087895D01*
X27974619Y38972056D01*
X27958504Y38911918D01*
X27485546Y39384876D01*
X27485545Y39384876D01*
X27478870Y39376036D01*
X27385111Y39187745D01*
X27327545Y38985420D01*
X27308138Y38775976D01*
X23829519Y38775976D01*
X26369521Y41315979D01*
X27655115Y41315979D01*
X27655115Y41315972D01*
X27674992Y41139550D01*
X27674993Y41139544D01*
X27733634Y40971956D01*
X27769544Y40914807D01*
X27828098Y40821619D01*
X27953644Y40696073D01*
X28103980Y40601610D01*
X28271566Y40542969D01*
X28271572Y40542969D01*
X28271574Y40542968D01*
X28447996Y40523090D01*
X28448000Y40523090D01*
X28448004Y40523090D01*
X28624425Y40542968D01*
X28624424Y40542968D01*
X28624434Y40542969D01*
X28792020Y40601610D01*
X28942356Y40696073D01*
X29067902Y40821619D01*
X29162365Y40971955D01*
X29221006Y41139541D01*
X29240885Y41315975D01*
X29240885Y41315979D01*
X30195115Y41315979D01*
X30195115Y41315972D01*
X30214992Y41139550D01*
X30214993Y41139544D01*
X30273634Y40971956D01*
X30309544Y40914807D01*
X30368098Y40821619D01*
X30493644Y40696073D01*
X30643980Y40601610D01*
X30811566Y40542969D01*
X30811572Y40542969D01*
X30811574Y40542968D01*
X30987996Y40523090D01*
X30988000Y40523090D01*
X30988004Y40523090D01*
X31164425Y40542968D01*
X31164424Y40542968D01*
X31164434Y40542969D01*
X31247388Y40571997D01*
X31317163Y40575559D01*
X31376021Y40542636D01*
X31941781Y39976877D01*
X31975266Y39915554D01*
X31978100Y39889196D01*
X31978100Y39061802D01*
X31958415Y38994763D01*
X31905611Y38949008D01*
X31836453Y38939064D01*
X31772897Y38968089D01*
X31737058Y39020848D01*
X31702365Y39119995D01*
X31607902Y39270331D01*
X31482355Y39395878D01*
X31332019Y39490341D01*
X31164431Y39548982D01*
X31164425Y39548983D01*
X30988004Y39568860D01*
X30987996Y39568860D01*
X30811574Y39548983D01*
X30811568Y39548982D01*
X30643980Y39490341D01*
X30493644Y39395878D01*
X30368097Y39270331D01*
X30273634Y39119995D01*
X30214993Y38952407D01*
X30214992Y38952401D01*
X30195115Y38775979D01*
X30195115Y38775972D01*
X30214992Y38599550D01*
X30214993Y38599544D01*
X30273634Y38431956D01*
X30337849Y38329760D01*
X30368098Y38281619D01*
X30493644Y38156073D01*
X30643980Y38061610D01*
X30811566Y38002969D01*
X30811572Y38002969D01*
X30811574Y38002968D01*
X30987996Y37983090D01*
X30988000Y37983090D01*
X30988004Y37983090D01*
X31164425Y38002968D01*
X31164424Y38002968D01*
X31164434Y38002969D01*
X31332020Y38061610D01*
X31482356Y38156073D01*
X31607902Y38281619D01*
X31702365Y38431955D01*
X31737058Y38531105D01*
X31777780Y38587879D01*
X31842732Y38613627D01*
X31911294Y38600171D01*
X31961697Y38551784D01*
X31978100Y38490149D01*
X31978100Y38014154D01*
X31978101Y38014149D01*
X32016842Y37920615D01*
X32016845Y37920612D01*
X32850437Y37087020D01*
X32943977Y37048274D01*
X32943978Y37048274D01*
X33059657Y37048274D01*
X33059665Y37048275D01*
X36845396Y37048275D01*
X36845398Y37048275D01*
X36892168Y37067648D01*
X36938935Y37087018D01*
X36938936Y37087020D01*
X36938938Y37087020D01*
X40766721Y40914806D01*
X40766724Y40914807D01*
X40784162Y40932245D01*
X40784163Y40932245D01*
X40855755Y41003837D01*
X40855755Y41003839D01*
X40855757Y41003840D01*
X40875127Y41050607D01*
X40894500Y41097377D01*
X40894500Y51054000D01*
X55626000Y51054000D01*
X58674000Y51054000D01*
X58674000Y54102000D01*
X55626000Y54102000D01*
X55626000Y51054000D01*
X40894500Y51054000D01*
X40894500Y54544935D01*
X40894501Y54544944D01*
X40894501Y54660622D01*
X40894501Y54660623D01*
X40855755Y54754163D01*
X36307413Y59302505D01*
X36273928Y59363828D01*
X36272357Y59407835D01*
X36276407Y59436000D01*
X36257676Y59566275D01*
X36257675Y59566276D01*
X36257675Y59566279D01*
X36219088Y59650773D01*
X36203002Y59685996D01*
X36116812Y59785464D01*
X36006091Y59856620D01*
X36006089Y59856621D01*
X36006087Y59856622D01*
X36006088Y59856622D01*
X35879809Y59893700D01*
X35879807Y59893700D01*
X35748193Y59893700D01*
X35748190Y59893700D01*
X35621911Y59856622D01*
X35511189Y59785465D01*
X35511188Y59785465D01*
X35511188Y59785464D01*
X35497911Y59770142D01*
X35424999Y59685998D01*
X35424997Y59685995D01*
X35370324Y59566279D01*
X35370323Y59566274D01*
X35351593Y59436000D01*
X35370323Y59305727D01*
X35370324Y59305722D01*
X35410012Y59218819D01*
X35424998Y59186004D01*
X35511188Y59086536D01*
X35621909Y59015380D01*
X35621912Y59015379D01*
X35621911Y59015379D01*
X35719906Y58986606D01*
X35741875Y58980155D01*
X35748190Y58978301D01*
X35748192Y58978300D01*
X35860420Y58978300D01*
X35927459Y58958615D01*
X35948101Y58941981D01*
X40349181Y54540901D01*
X40382666Y54479578D01*
X40385500Y54453220D01*
X40385500Y41304780D01*
X40365815Y41237741D01*
X40349181Y41217099D01*
X36725676Y37593594D01*
X36664353Y37560109D01*
X36637995Y37557275D01*
X33151380Y37557275D01*
X33084341Y37576960D01*
X33063699Y37593594D01*
X32523419Y38133874D01*
X32489934Y38195197D01*
X32487100Y38221555D01*
X32487100Y38775979D01*
X32735115Y38775979D01*
X32735115Y38775972D01*
X32754992Y38599550D01*
X32754993Y38599544D01*
X32813634Y38431956D01*
X32877849Y38329760D01*
X32908098Y38281619D01*
X33033644Y38156073D01*
X33183980Y38061610D01*
X33351566Y38002969D01*
X33351572Y38002969D01*
X33351574Y38002968D01*
X33527996Y37983090D01*
X33528000Y37983090D01*
X33528004Y37983090D01*
X33704425Y38002968D01*
X33704424Y38002968D01*
X33704434Y38002969D01*
X33872020Y38061610D01*
X34022356Y38156073D01*
X34147902Y38281619D01*
X34242365Y38431955D01*
X34301006Y38599541D01*
X34315899Y38731722D01*
X34320885Y38775972D01*
X34320885Y38775979D01*
X34301007Y38952401D01*
X34301006Y38952407D01*
X34301006Y38952409D01*
X34242365Y39119995D01*
X34219118Y39156992D01*
X34159743Y39251487D01*
X34140743Y39318724D01*
X34161111Y39385559D01*
X34177051Y39405135D01*
X38849155Y44077237D01*
X38887901Y44170777D01*
X38887901Y44272023D01*
X38887901Y44282012D01*
X38887900Y44282026D01*
X38887900Y51079222D01*
X38887898Y51079227D01*
X38849157Y51172761D01*
X38770498Y51251420D01*
X38770491Y51251426D01*
X36831587Y53190331D01*
X36831585Y53190333D01*
X36738051Y53229074D01*
X36738049Y53229075D01*
X36738048Y53229075D01*
X36738046Y53229075D01*
X35036528Y53229075D01*
X34969489Y53248760D01*
X34942816Y53271872D01*
X34897614Y53324037D01*
X34897611Y53324040D01*
X34854974Y53351441D01*
X34786891Y53395195D01*
X34786889Y53395196D01*
X34786887Y53395197D01*
X34786888Y53395197D01*
X34660609Y53432275D01*
X34660607Y53432275D01*
X34528993Y53432275D01*
X34528990Y53432275D01*
X34402711Y53395197D01*
X34291989Y53324040D01*
X34205799Y53224573D01*
X34205797Y53224570D01*
X34151124Y53104854D01*
X34151123Y53104849D01*
X34132393Y52974575D01*
X34151123Y52844302D01*
X34151124Y52844297D01*
X34185487Y52769054D01*
X34205798Y52724579D01*
X34291988Y52625111D01*
X34402709Y52553955D01*
X34402712Y52553954D01*
X34402711Y52553954D01*
X34450089Y52540043D01*
X34521558Y52519058D01*
X34528990Y52516876D01*
X34528992Y52516875D01*
X34528993Y52516875D01*
X34660608Y52516875D01*
X34660608Y52516876D01*
X34786891Y52553955D01*
X34897612Y52625111D01*
X34915527Y52645787D01*
X34942816Y52677278D01*
X35001594Y52715052D01*
X35036528Y52720075D01*
X36530645Y52720075D01*
X36597684Y52700390D01*
X36618326Y52683756D01*
X38342581Y50959502D01*
X38376066Y50898179D01*
X38378900Y50871821D01*
X38378900Y44378181D01*
X38359215Y44311142D01*
X38342581Y44290500D01*
X33653754Y39601674D01*
X33592431Y39568189D01*
X33552190Y39566135D01*
X33528003Y39568860D01*
X33527996Y39568860D01*
X33351574Y39548983D01*
X33351568Y39548982D01*
X33183980Y39490341D01*
X33033644Y39395878D01*
X32908097Y39270331D01*
X32813634Y39119995D01*
X32754993Y38952407D01*
X32754992Y38952401D01*
X32735115Y38775979D01*
X32487100Y38775979D01*
X32487100Y40096597D01*
X32487098Y40096602D01*
X32448357Y40190136D01*
X32369698Y40268795D01*
X32369691Y40268801D01*
X31748171Y40890321D01*
X31714686Y40951644D01*
X31718810Y41018955D01*
X31761006Y41139541D01*
X31780885Y41315975D01*
X31761006Y41492409D01*
X31702365Y41659995D01*
X31607902Y41810331D01*
X31482356Y41935877D01*
X31482355Y41935878D01*
X31332019Y42030341D01*
X31164431Y42088982D01*
X31164425Y42088983D01*
X30988004Y42108860D01*
X30987996Y42108860D01*
X30811574Y42088983D01*
X30811568Y42088982D01*
X30643980Y42030341D01*
X30493644Y41935878D01*
X30368097Y41810331D01*
X30273634Y41659995D01*
X30214993Y41492407D01*
X30214992Y41492401D01*
X30195115Y41315979D01*
X29240885Y41315979D01*
X29221006Y41492409D01*
X29162365Y41659995D01*
X29067902Y41810331D01*
X28942356Y41935877D01*
X28942355Y41935878D01*
X28792019Y42030341D01*
X28624431Y42088982D01*
X28624425Y42088983D01*
X28448004Y42108860D01*
X28447996Y42108860D01*
X28271574Y42088983D01*
X28271568Y42088982D01*
X28103980Y42030341D01*
X27953644Y41935878D01*
X27828097Y41810331D01*
X27733634Y41659995D01*
X27674993Y41492407D01*
X27674992Y41492401D01*
X27655115Y41315979D01*
X26369521Y41315979D01*
X27755098Y42701557D01*
X27816421Y42735041D01*
X27842779Y42737875D01*
X31694820Y42737875D01*
X31761859Y42718190D01*
X31782501Y42701556D01*
X32761243Y41722814D01*
X32794728Y41661491D01*
X32790604Y41594180D01*
X32754994Y41492410D01*
X32754992Y41492401D01*
X32735115Y41315979D01*
X32735115Y41315972D01*
X32754992Y41139550D01*
X32754993Y41139544D01*
X32813634Y40971956D01*
X32849544Y40914807D01*
X32908098Y40821619D01*
X33033644Y40696073D01*
X33183980Y40601610D01*
X33351566Y40542969D01*
X33351572Y40542969D01*
X33351574Y40542968D01*
X33527996Y40523090D01*
X33528000Y40523090D01*
X33528004Y40523090D01*
X33704425Y40542968D01*
X33704424Y40542968D01*
X33704434Y40542969D01*
X33872020Y40601610D01*
X34022356Y40696073D01*
X34147902Y40821619D01*
X34242365Y40971955D01*
X34301006Y41139541D01*
X34320885Y41315975D01*
X34301006Y41492409D01*
X34242365Y41659995D01*
X34147902Y41810331D01*
X34022356Y41935877D01*
X34022355Y41935878D01*
X33872019Y42030341D01*
X33704431Y42088982D01*
X33704425Y42088983D01*
X33528004Y42108860D01*
X33527996Y42108860D01*
X33351574Y42088983D01*
X33351565Y42088981D01*
X33249795Y42053371D01*
X33180016Y42049810D01*
X33121161Y42082732D01*
X31995760Y43208133D01*
X31902226Y43246874D01*
X31902224Y43246875D01*
X31902223Y43246875D01*
X27635377Y43246875D01*
X27635375Y43246875D01*
X27635373Y43246874D01*
X27541839Y43208133D01*
X27541837Y43208131D01*
X23486526Y39152819D01*
X23425203Y39119334D01*
X23398845Y39116500D01*
X13954528Y39116500D01*
X13887489Y39136185D01*
X13860816Y39159297D01*
X13815614Y39211462D01*
X13815611Y39211465D01*
X13753335Y39251487D01*
X13704891Y39282620D01*
X13704889Y39282621D01*
X13704887Y39282622D01*
X13704888Y39282622D01*
X13578609Y39319700D01*
X13578607Y39319700D01*
X13446993Y39319700D01*
X13446990Y39319700D01*
X13320711Y39282622D01*
X13209989Y39211465D01*
X13123799Y39111998D01*
X13123797Y39111995D01*
X13069124Y38992279D01*
X13069123Y38992274D01*
X13050393Y38862000D01*
X1372067Y38862000D01*
X1372067Y39573200D01*
X11531243Y39573200D01*
X11549776Y39444292D01*
X11580949Y39376034D01*
X11603879Y39325826D01*
X11689164Y39227401D01*
X11689166Y39227400D01*
X11689166Y39227399D01*
X11732988Y39199238D01*
X11798724Y39156992D01*
X11892256Y39129528D01*
X11923682Y39120300D01*
X11923683Y39120300D01*
X12053918Y39120300D01*
X12073425Y39126029D01*
X12178876Y39156992D01*
X12288436Y39227401D01*
X12373721Y39325826D01*
X12427823Y39444291D01*
X12446357Y39573200D01*
X12427823Y39702109D01*
X12373721Y39820574D01*
X12373719Y39820576D01*
X12373718Y39820579D01*
X12288438Y39918998D01*
X12284499Y39922411D01*
X12246724Y39981188D01*
X12241700Y40016125D01*
X12241700Y43100684D01*
X12261385Y43167723D01*
X12278019Y43188365D01*
X14091654Y45002000D01*
X24593900Y45002000D01*
X37793900Y45002000D01*
X37793900Y50402000D01*
X24593900Y50402000D01*
X24593900Y45002000D01*
X14091654Y45002000D01*
X20768835Y51679181D01*
X20830158Y51712666D01*
X20856516Y51715500D01*
X24039853Y51715500D01*
X24039861Y51715499D01*
X24054295Y51715499D01*
X24154905Y51715499D01*
X24182129Y51726777D01*
X24193407Y51731448D01*
X24193409Y51731450D01*
X24247857Y51754001D01*
X24247858Y51754002D01*
X24274638Y51780781D01*
X24335961Y51814266D01*
X24362319Y51817100D01*
X25801438Y51817100D01*
X25868477Y51797415D01*
X25895149Y51774305D01*
X25938564Y51724201D01*
X25938566Y51724200D01*
X25938566Y51724199D01*
X25982388Y51696038D01*
X26048124Y51653792D01*
X26149965Y51623888D01*
X26173082Y51617100D01*
X26173083Y51617100D01*
X26303318Y51617100D01*
X26322825Y51622829D01*
X26428276Y51653792D01*
X26537836Y51724201D01*
X26623121Y51822626D01*
X26677223Y51941091D01*
X26695757Y52070000D01*
X26677223Y52198909D01*
X26658007Y52240985D01*
X26619437Y52325441D01*
X26622785Y52326971D01*
X26608008Y52377301D01*
X26627693Y52444340D01*
X26680497Y52490095D01*
X26732008Y52501300D01*
X31734246Y52501300D01*
X31734248Y52501300D01*
X31781018Y52520673D01*
X31827785Y52540043D01*
X31827786Y52540045D01*
X31827788Y52540045D01*
X33581524Y54293781D01*
X33642847Y54327266D01*
X33669205Y54330100D01*
X35651672Y54330100D01*
X35718711Y54310415D01*
X35745384Y54287303D01*
X35790585Y54235139D01*
X35790588Y54235136D01*
X35901309Y54163980D01*
X35901312Y54163979D01*
X35901311Y54163979D01*
X36027590Y54126901D01*
X36027592Y54126900D01*
X36027593Y54126900D01*
X36159208Y54126900D01*
X36159208Y54126901D01*
X36285491Y54163980D01*
X36396212Y54235136D01*
X36482402Y54334604D01*
X36521311Y54419805D01*
X36537075Y54454322D01*
X36537076Y54454327D01*
X36555807Y54584600D01*
X36537076Y54714875D01*
X36537075Y54714876D01*
X36537075Y54714879D01*
X36501856Y54791996D01*
X36482402Y54834596D01*
X36396212Y54934064D01*
X36285491Y55005220D01*
X36285489Y55005221D01*
X36285487Y55005222D01*
X36285488Y55005222D01*
X36159209Y55042300D01*
X36159207Y55042300D01*
X36027593Y55042300D01*
X36027590Y55042300D01*
X35901311Y55005222D01*
X35790588Y54934065D01*
X35790585Y54934062D01*
X35745384Y54881897D01*
X35686606Y54844123D01*
X35651672Y54839100D01*
X33577490Y54839100D01*
X33577482Y54839101D01*
X33563048Y54839101D01*
X33461802Y54839101D01*
X33461801Y54839101D01*
X33368260Y54800354D01*
X31614526Y53046619D01*
X31553203Y53013134D01*
X31526845Y53010300D01*
X24588827Y53010300D01*
X24521788Y53029985D01*
X24495116Y53053095D01*
X24485345Y53064371D01*
X24467092Y53085436D01*
X24438066Y53148990D01*
X24448009Y53218148D01*
X24467092Y53247843D01*
X24481027Y53263923D01*
X24539806Y53301695D01*
X24574736Y53306716D01*
X30914062Y53306716D01*
X30914064Y53306716D01*
X30960834Y53326089D01*
X31007601Y53345459D01*
X31007602Y53345461D01*
X31007604Y53345461D01*
X33149724Y55487581D01*
X33211047Y55521066D01*
X33237405Y55523900D01*
X35575472Y55523900D01*
X35642511Y55504215D01*
X35669184Y55481103D01*
X35713661Y55429775D01*
X35714388Y55428936D01*
X35825109Y55357780D01*
X35825112Y55357779D01*
X35825111Y55357779D01*
X35951390Y55320701D01*
X35951392Y55320700D01*
X35951393Y55320700D01*
X36083008Y55320700D01*
X36083008Y55320701D01*
X36209291Y55357780D01*
X36320012Y55428936D01*
X36406202Y55528404D01*
X36452601Y55630004D01*
X36460875Y55648122D01*
X36460876Y55648127D01*
X36466981Y55690587D01*
X36479607Y55778400D01*
X36460876Y55908675D01*
X36460875Y55908676D01*
X36460875Y55908679D01*
X36424289Y55988791D01*
X36406202Y56028396D01*
X36320012Y56127864D01*
X36209291Y56199020D01*
X36209289Y56199021D01*
X36209287Y56199022D01*
X36209288Y56199022D01*
X36083009Y56236100D01*
X36083007Y56236100D01*
X35951393Y56236100D01*
X35951390Y56236100D01*
X35825111Y56199022D01*
X35714388Y56127865D01*
X35714385Y56127862D01*
X35669184Y56075697D01*
X35610406Y56037923D01*
X35575472Y56032900D01*
X33145690Y56032900D01*
X33145682Y56032901D01*
X33131248Y56032901D01*
X33030002Y56032901D01*
X33030001Y56032901D01*
X32936460Y55994154D01*
X30794342Y53852035D01*
X30733019Y53818550D01*
X30706661Y53815716D01*
X24574736Y53815716D01*
X24507697Y53835401D01*
X24481024Y53858513D01*
X24459680Y53883145D01*
X24430654Y53946700D01*
X24440597Y54015859D01*
X24459676Y54045547D01*
X24514254Y54108532D01*
X24514255Y54108534D01*
X24515096Y54109504D01*
X24573875Y54147278D01*
X24608808Y54152300D01*
X28787846Y54152300D01*
X28787848Y54152300D01*
X28834618Y54171673D01*
X28881385Y54191043D01*
X28881386Y54191045D01*
X28881388Y54191045D01*
X31800521Y57110181D01*
X31800524Y57110182D01*
X31817962Y57127620D01*
X31817963Y57127620D01*
X31889555Y57199212D01*
X31889555Y57199214D01*
X31889557Y57199215D01*
X31910597Y57250012D01*
X31928300Y57292752D01*
X31928300Y59502198D01*
X31916047Y59531779D01*
X31889557Y59595736D01*
X31837013Y59648280D01*
X31814232Y59690000D01*
X32182593Y59690000D01*
X32201323Y59559727D01*
X32201324Y59559722D01*
X32249794Y59453589D01*
X32255998Y59440004D01*
X32342188Y59340536D01*
X32452909Y59269380D01*
X32452912Y59269379D01*
X32452911Y59269379D01*
X32579190Y59232301D01*
X32579192Y59232300D01*
X32691420Y59232300D01*
X32758459Y59212615D01*
X32779101Y59195981D01*
X34288371Y57686711D01*
X34321856Y57625388D01*
X34316872Y57555696D01*
X34294403Y57517828D01*
X34205802Y57415577D01*
X34205797Y57415570D01*
X34151124Y57295854D01*
X34151123Y57295849D01*
X34132393Y57165575D01*
X34151123Y57035302D01*
X34151124Y57035297D01*
X34178042Y56976356D01*
X34205798Y56915579D01*
X34291988Y56816111D01*
X34402709Y56744955D01*
X34402712Y56744954D01*
X34402711Y56744954D01*
X34500706Y56716181D01*
X34525587Y56708875D01*
X34528990Y56707876D01*
X34528992Y56707875D01*
X34528993Y56707875D01*
X34660608Y56707875D01*
X34660608Y56707876D01*
X34786891Y56744955D01*
X34897612Y56816111D01*
X34983802Y56915579D01*
X35022711Y57000780D01*
X35038475Y57035297D01*
X35038476Y57035302D01*
X35040793Y57051418D01*
X35057207Y57165575D01*
X35038476Y57295850D01*
X35038475Y57295851D01*
X35038475Y57295854D01*
X34990915Y57399995D01*
X34983802Y57415571D01*
X34897612Y57515039D01*
X34897610Y57515040D01*
X34897608Y57515043D01*
X34892093Y57519822D01*
X34854321Y57578601D01*
X34849300Y57613531D01*
X34849300Y57675135D01*
X34849301Y57675144D01*
X34849301Y57790822D01*
X34849301Y57790823D01*
X34810555Y57884363D01*
X33138413Y59556505D01*
X33104928Y59617828D01*
X33103357Y59661835D01*
X33107407Y59690000D01*
X33088676Y59820275D01*
X33088675Y59820276D01*
X33088675Y59820279D01*
X33046764Y59912050D01*
X33034002Y59939996D01*
X32947812Y60039464D01*
X32837091Y60110620D01*
X32837089Y60110621D01*
X32837087Y60110622D01*
X32837088Y60110622D01*
X32710809Y60147700D01*
X32710807Y60147700D01*
X32579193Y60147700D01*
X32579190Y60147700D01*
X32452911Y60110622D01*
X32342189Y60039465D01*
X32255999Y59939998D01*
X32255997Y59939995D01*
X32201324Y59820279D01*
X32201323Y59820274D01*
X32182593Y59690000D01*
X31814232Y59690000D01*
X31803528Y59709603D01*
X31801957Y59753609D01*
X31806007Y59781775D01*
X31787276Y59912050D01*
X31787275Y59912051D01*
X31787275Y59912054D01*
X31732602Y60031770D01*
X31732602Y60031771D01*
X31646412Y60131239D01*
X31535691Y60202395D01*
X31535689Y60202396D01*
X31535687Y60202397D01*
X31535688Y60202397D01*
X31409409Y60239475D01*
X31409407Y60239475D01*
X31277793Y60239475D01*
X31277790Y60239475D01*
X31151511Y60202397D01*
X31040789Y60131240D01*
X30954599Y60031773D01*
X30954597Y60031770D01*
X30899924Y59912054D01*
X30899923Y59912050D01*
X30893064Y59864340D01*
X30864038Y59800785D01*
X30805260Y59763011D01*
X30735390Y59763011D01*
X30676612Y59800786D01*
X30657532Y59830476D01*
X30629239Y59892429D01*
X30601224Y59953774D01*
X30515034Y60053242D01*
X30404313Y60124398D01*
X30404311Y60124399D01*
X30404309Y60124400D01*
X30404310Y60124400D01*
X30278031Y60161478D01*
X30278029Y60161478D01*
X30146415Y60161478D01*
X30146412Y60161478D01*
X30020133Y60124400D01*
X29909411Y60053243D01*
X29823221Y59953776D01*
X29823219Y59953773D01*
X29768546Y59834057D01*
X29768545Y59834052D01*
X29749815Y59703778D01*
X29768545Y59573505D01*
X29768546Y59573500D01*
X29812365Y59477551D01*
X29823220Y59453782D01*
X29823386Y59453590D01*
X29909412Y59354312D01*
X29914924Y59349536D01*
X29952699Y59290758D01*
X29957722Y59255823D01*
X29957722Y58807177D01*
X29938037Y58740138D01*
X29921403Y58719496D01*
X26753301Y55551394D01*
X26691978Y55517909D01*
X26665620Y55515075D01*
X24659463Y55515075D01*
X24592424Y55534760D01*
X24546669Y55587564D01*
X24536725Y55656722D01*
X24546669Y55690587D01*
X24573675Y55749722D01*
X24573676Y55749726D01*
X24592407Y55880002D01*
X24592407Y55880003D01*
X24591910Y55883459D01*
X24592407Y55886917D01*
X24592407Y55888870D01*
X24592688Y55888870D01*
X24601851Y55952618D01*
X24626961Y55988784D01*
X24801735Y56163559D01*
X24863058Y56197041D01*
X24889415Y56199875D01*
X26796821Y56199875D01*
X26796823Y56199875D01*
X26843593Y56219248D01*
X26890360Y56238618D01*
X26890361Y56238620D01*
X26890363Y56238620D01*
X27901755Y57250012D01*
X27940501Y57343552D01*
X27940501Y57444798D01*
X27940501Y57454787D01*
X27940500Y57454801D01*
X27940500Y59242045D01*
X27960185Y59309084D01*
X27983298Y59335758D01*
X27988809Y59340534D01*
X27988809Y59340535D01*
X27988812Y59340536D01*
X28075002Y59440004D01*
X28092149Y59477554D01*
X28137902Y59530356D01*
X28204941Y59550041D01*
X28271981Y59530357D01*
X28292624Y59513722D01*
X28330864Y59475482D01*
X28364349Y59414159D01*
X28365921Y59405448D01*
X28385323Y59270502D01*
X28385324Y59270497D01*
X28439997Y59150781D01*
X28439998Y59150779D01*
X28526188Y59051311D01*
X28636909Y58980155D01*
X28636912Y58980154D01*
X28636911Y58980154D01*
X28763190Y58943076D01*
X28763192Y58943075D01*
X28763193Y58943075D01*
X28894808Y58943075D01*
X28894808Y58943076D01*
X28992804Y58971850D01*
X29021088Y58980154D01*
X29021088Y58980155D01*
X29021091Y58980155D01*
X29131812Y59051311D01*
X29218002Y59150779D01*
X29259681Y59242045D01*
X29272675Y59270497D01*
X29272676Y59270502D01*
X29291407Y59400775D01*
X29272676Y59531050D01*
X29272675Y59531051D01*
X29272675Y59531054D01*
X29231501Y59621211D01*
X29218002Y59650771D01*
X29131812Y59750239D01*
X29021091Y59821395D01*
X29021089Y59821396D01*
X29021087Y59821397D01*
X29021088Y59821397D01*
X28894809Y59858475D01*
X28894807Y59858475D01*
X28763193Y59858475D01*
X28763187Y59858475D01*
X28759957Y59857526D01*
X28756594Y59857527D01*
X28754415Y59857213D01*
X28754369Y59857527D01*
X28690087Y59857534D01*
X28637354Y59888826D01*
X26283625Y62242556D01*
X26283623Y62242558D01*
X26190089Y62281299D01*
X26190087Y62281300D01*
X26190086Y62281300D01*
X19053377Y62281300D01*
X19049370Y62281300D01*
X19033121Y62279700D01*
X16973180Y62279700D01*
X16906141Y62299385D01*
X16885499Y62316019D01*
X13773898Y65427620D01*
X13740413Y65488943D01*
X13745397Y65558635D01*
X13787269Y65614568D01*
X13852733Y65638985D01*
X13861579Y65639301D01*
X13955855Y65639301D01*
X13955856Y65639301D01*
X14000458Y65648172D01*
X14051034Y65681966D01*
X14084828Y65732542D01*
X14093700Y65777143D01*
X14093699Y66807256D01*
X14093698Y66807260D01*
X14387900Y66807260D01*
X14387900Y65777146D01*
X14396772Y65732542D01*
X14396773Y65732539D01*
X14430565Y65681967D01*
X14430566Y65681966D01*
X14481142Y65648172D01*
X14481143Y65648172D01*
X14481145Y65648171D01*
X14503442Y65643736D01*
X14525743Y65639300D01*
X15655856Y65639301D01*
X15700458Y65648172D01*
X15751034Y65681966D01*
X15784828Y65732542D01*
X15787496Y65745955D01*
X15793700Y65777141D01*
X15793700Y65913700D01*
X15813385Y65980739D01*
X15866189Y66026494D01*
X15917700Y66037700D01*
X16440401Y66037700D01*
X16507440Y66018015D01*
X16553195Y65965211D01*
X16564401Y65913700D01*
X16564401Y65642144D01*
X16569886Y65614568D01*
X16573272Y65597542D01*
X16573273Y65597539D01*
X16604787Y65550376D01*
X16607066Y65546966D01*
X16657642Y65513172D01*
X16657643Y65513172D01*
X16657645Y65513171D01*
X16679942Y65508736D01*
X16702243Y65504300D01*
X17367356Y65504301D01*
X17411958Y65513172D01*
X17415144Y65515301D01*
X17472689Y65553751D01*
X17474944Y65550376D01*
X17516442Y65573035D01*
X17586134Y65568051D01*
X17611548Y65551718D01*
X17612908Y65553753D01*
X17623065Y65546967D01*
X17623066Y65546966D01*
X17642789Y65533787D01*
X17687594Y65480178D01*
X17697900Y65430685D01*
X17697900Y64761374D01*
X17678215Y64694335D01*
X17625411Y64648580D01*
X17608835Y64642397D01*
X17486310Y64606422D01*
X17375589Y64535265D01*
X17289399Y64435798D01*
X17289397Y64435795D01*
X17234724Y64316079D01*
X17234723Y64316074D01*
X17215993Y64185800D01*
X17234723Y64055527D01*
X17234724Y64055522D01*
X17289397Y63935806D01*
X17289398Y63935804D01*
X17375588Y63836336D01*
X17486309Y63765180D01*
X17486312Y63765179D01*
X17486311Y63765179D01*
X17612590Y63728101D01*
X17612592Y63728100D01*
X17612593Y63728100D01*
X17744208Y63728100D01*
X17744208Y63728101D01*
X17855969Y63760916D01*
X17870488Y63765179D01*
X17870488Y63765180D01*
X17870491Y63765180D01*
X17981212Y63836336D01*
X18067402Y63935804D01*
X18122076Y64055525D01*
X18128775Y64102124D01*
X18157799Y64165678D01*
X18163803Y64172128D01*
X18305876Y64314200D01*
X19608904Y64314200D01*
X19628039Y64119912D01*
X19684713Y63933083D01*
X19776738Y63760916D01*
X19776743Y63760910D01*
X19900594Y63609995D01*
X20051509Y63486144D01*
X20051515Y63486139D01*
X20223682Y63394114D01*
X20223684Y63394114D01*
X20223687Y63394112D01*
X20410510Y63337440D01*
X20410509Y63337440D01*
X20427929Y63335725D01*
X20604800Y63318304D01*
X20799090Y63337440D01*
X20985913Y63394112D01*
X20985917Y63394114D01*
X21158084Y63486139D01*
X21158086Y63486142D01*
X21158090Y63486143D01*
X21309005Y63609995D01*
X21432857Y63760910D01*
X21432858Y63760914D01*
X21432861Y63760916D01*
X21524886Y63933083D01*
X21524886Y63933084D01*
X21524888Y63933087D01*
X21581560Y64119910D01*
X21600696Y64314200D01*
X21581560Y64508490D01*
X21524888Y64695313D01*
X21524886Y64695316D01*
X21524886Y64695318D01*
X21432861Y64867485D01*
X21432856Y64867491D01*
X21431215Y64869490D01*
X21360261Y64955949D01*
X21309005Y65018406D01*
X21158090Y65142257D01*
X21158084Y65142262D01*
X20985917Y65234287D01*
X20821045Y65284300D01*
X20799090Y65290960D01*
X20799088Y65290961D01*
X20799090Y65290961D01*
X20604800Y65310096D01*
X20410511Y65290961D01*
X20223682Y65234287D01*
X20051515Y65142262D01*
X20051509Y65142257D01*
X19900594Y65018406D01*
X19776743Y64867491D01*
X19776738Y64867485D01*
X19684713Y64695318D01*
X19628039Y64508489D01*
X19608904Y64314200D01*
X18305876Y64314200D01*
X18333190Y64341514D01*
X18379650Y64421986D01*
X18403700Y64511740D01*
X18403700Y64604660D01*
X18403700Y65430685D01*
X18423385Y65497723D01*
X18458810Y65533787D01*
X18488690Y65553752D01*
X18490945Y65550377D01*
X18532442Y65573035D01*
X18602134Y65568051D01*
X18627550Y65551717D01*
X18628910Y65553752D01*
X18639065Y65546967D01*
X18639066Y65546966D01*
X18689642Y65513172D01*
X18689643Y65513172D01*
X18689645Y65513171D01*
X18711942Y65508736D01*
X18734243Y65504300D01*
X19399356Y65504301D01*
X19443958Y65513172D01*
X19494534Y65546966D01*
X19528328Y65597542D01*
X19536572Y65638985D01*
X19537200Y65642141D01*
X19537200Y65913700D01*
X19556885Y65980739D01*
X19609689Y66026494D01*
X19661200Y66037700D01*
X20553421Y66037700D01*
X20553423Y66037700D01*
X20600193Y66057073D01*
X20646960Y66076443D01*
X20646961Y66076445D01*
X20646963Y66076445D01*
X20935499Y66364983D01*
X20996822Y66398467D01*
X21023180Y66401301D01*
X21829855Y66401301D01*
X21829856Y66401301D01*
X21874458Y66410172D01*
X21925034Y66443966D01*
X21958828Y66494542D01*
X21967700Y66539143D01*
X21967699Y67569256D01*
X21958828Y67613858D01*
X21958826Y67613860D01*
X21958826Y67613862D01*
X21925034Y67664434D01*
X21925033Y67664435D01*
X21874458Y67698228D01*
X21874457Y67698229D01*
X21874456Y67698229D01*
X21874454Y67698230D01*
X21829859Y67707100D01*
X20699745Y67707100D01*
X20655141Y67698228D01*
X20655138Y67698227D01*
X20604566Y67664435D01*
X20570771Y67613857D01*
X20570770Y67613855D01*
X20561900Y67569260D01*
X20561900Y66762582D01*
X20542215Y66695543D01*
X20525582Y66674901D01*
X20433701Y66583019D01*
X20372378Y66549534D01*
X20346019Y66546700D01*
X19661199Y66546700D01*
X19594160Y66566385D01*
X19548405Y66619189D01*
X19537199Y66670700D01*
X19537199Y66942255D01*
X19537198Y66942260D01*
X19528328Y66986858D01*
X19528326Y66986860D01*
X19528326Y66986862D01*
X19494534Y67037434D01*
X19466000Y67056500D01*
X19443958Y67071228D01*
X19443957Y67071229D01*
X19443956Y67071229D01*
X19443954Y67071230D01*
X19399359Y67080100D01*
X18734245Y67080100D01*
X18689641Y67071228D01*
X18689639Y67071227D01*
X18654390Y67047674D01*
X18587713Y67026797D01*
X18520333Y67045282D01*
X18473643Y67097261D01*
X18461500Y67150777D01*
X18461500Y67629841D01*
X18481185Y67696880D01*
X18497819Y67717522D01*
X19185278Y68404981D01*
X19246601Y68438466D01*
X19272959Y68441300D01*
X20079008Y68441300D01*
X20146047Y68421615D01*
X20161232Y68410118D01*
X20225787Y68352928D01*
X20225789Y68352927D01*
X20225793Y68352924D01*
X20366176Y68279245D01*
X20366178Y68279244D01*
X20520124Y68241300D01*
X20678676Y68241300D01*
X20832622Y68279244D01*
X20915875Y68322940D01*
X20973006Y68352924D01*
X20973007Y68352926D01*
X20973013Y68352928D01*
X21037565Y68410117D01*
X21100798Y68439837D01*
X21119792Y68441300D01*
X22359175Y68441300D01*
X22608491Y68441300D01*
X22658741Y68426545D01*
X22659860Y68429245D01*
X22671140Y68424574D01*
X22671142Y68424572D01*
X22715743Y68415700D01*
X23545856Y68415701D01*
X23590458Y68424572D01*
X23590461Y68424575D01*
X23601745Y68429247D01*
X23602975Y68426276D01*
X23650894Y68441280D01*
X23653109Y68441300D01*
X24219208Y68441300D01*
X24286247Y68421615D01*
X24301432Y68410118D01*
X24365987Y68352928D01*
X24365989Y68352927D01*
X24365993Y68352924D01*
X24506376Y68279245D01*
X24506378Y68279244D01*
X24660324Y68241300D01*
X24818876Y68241300D01*
X24972822Y68279244D01*
X25056075Y68322940D01*
X25113206Y68352924D01*
X25113208Y68352926D01*
X25113213Y68352928D01*
X25224073Y68451142D01*
X25287306Y68480863D01*
X25356569Y68471679D01*
X25409873Y68426507D01*
X25430293Y68359688D01*
X25430300Y68358326D01*
X25430300Y65364661D01*
X25410615Y65297622D01*
X25357811Y65251867D01*
X25342297Y65246001D01*
X25303684Y65234288D01*
X25131515Y65142262D01*
X25131509Y65142257D01*
X24980596Y65018407D01*
X24963153Y64997152D01*
X24905407Y64957818D01*
X24835562Y64955949D01*
X24775794Y64992136D01*
X24745078Y65054892D01*
X24743300Y65075818D01*
X24743300Y65580822D01*
X24743298Y65580827D01*
X24704557Y65674361D01*
X24625898Y65753020D01*
X24625891Y65753026D01*
X24190699Y66188219D01*
X24157214Y66249542D01*
X24162198Y66319234D01*
X24204070Y66375167D01*
X24269534Y66399584D01*
X24278380Y66399900D01*
X24347518Y66399900D01*
X24375630Y66408155D01*
X24472476Y66436592D01*
X24582036Y66507001D01*
X24667321Y66605426D01*
X24721423Y66723891D01*
X24739957Y66852800D01*
X24721423Y66981709D01*
X24667321Y67100174D01*
X24582036Y67198599D01*
X24582033Y67198601D01*
X24582033Y67198602D01*
X24516300Y67240845D01*
X24472476Y67269008D01*
X24389170Y67293470D01*
X24347518Y67305700D01*
X24347517Y67305700D01*
X24217283Y67305700D01*
X24217282Y67305700D01*
X24155454Y67287545D01*
X24092324Y67269008D01*
X24092321Y67269006D01*
X23982762Y67198599D01*
X23940739Y67150099D01*
X23881962Y67112323D01*
X23847025Y67107300D01*
X23791699Y67107300D01*
X23724660Y67126985D01*
X23678905Y67179789D01*
X23667699Y67231300D01*
X23667699Y67569255D01*
X23664442Y67585631D01*
X23658828Y67613858D01*
X23658826Y67613860D01*
X23658826Y67613862D01*
X23625034Y67664434D01*
X23625033Y67664435D01*
X23574458Y67698228D01*
X23574457Y67698229D01*
X23574456Y67698229D01*
X23574454Y67698230D01*
X23529859Y67707100D01*
X22399745Y67707100D01*
X22355141Y67698228D01*
X22355138Y67698227D01*
X22304566Y67664435D01*
X22270771Y67613857D01*
X22270770Y67613855D01*
X22261900Y67569260D01*
X22261900Y66539146D01*
X22270772Y66494542D01*
X22270773Y66494539D01*
X22304565Y66443967D01*
X22304566Y66443966D01*
X22355142Y66410172D01*
X22355143Y66410172D01*
X22355145Y66410171D01*
X22377442Y66405736D01*
X22399743Y66401300D01*
X23206419Y66401301D01*
X23273458Y66381617D01*
X23294100Y66364982D01*
X24197981Y65461102D01*
X24231466Y65399779D01*
X24234300Y65373421D01*
X24234300Y64873402D01*
X24214615Y64806363D01*
X24161811Y64760608D01*
X24092653Y64750664D01*
X24029097Y64779689D01*
X24000942Y64814948D01*
X23972858Y64867489D01*
X23972856Y64867491D01*
X23971215Y64869490D01*
X23900261Y64955949D01*
X23849005Y65018406D01*
X23698090Y65142257D01*
X23698084Y65142262D01*
X23525917Y65234287D01*
X23361045Y65284300D01*
X23339090Y65290960D01*
X23339088Y65290961D01*
X23339090Y65290961D01*
X23144800Y65310096D01*
X22950511Y65290961D01*
X22763682Y65234287D01*
X22591515Y65142262D01*
X22591509Y65142257D01*
X22440594Y65018406D01*
X22316743Y64867491D01*
X22316738Y64867485D01*
X22224713Y64695318D01*
X22168039Y64508489D01*
X22148904Y64314200D01*
X22168039Y64119912D01*
X22224713Y63933083D01*
X22316738Y63760916D01*
X22316743Y63760910D01*
X22440594Y63609995D01*
X22591509Y63486144D01*
X22591515Y63486139D01*
X22763682Y63394114D01*
X22763684Y63394114D01*
X22763687Y63394112D01*
X22950510Y63337440D01*
X22950509Y63337440D01*
X22967929Y63335725D01*
X23144800Y63318304D01*
X23339090Y63337440D01*
X23525913Y63394112D01*
X23525917Y63394114D01*
X23698084Y63486139D01*
X23698086Y63486142D01*
X23698090Y63486143D01*
X23849005Y63609995D01*
X23972857Y63760910D01*
X23984781Y63783218D01*
X24000942Y63813452D01*
X24049904Y63863296D01*
X24118041Y63878757D01*
X24183721Y63854926D01*
X24226090Y63799368D01*
X24234300Y63754999D01*
X24234300Y63613579D01*
X24234301Y63613574D01*
X24273042Y63520040D01*
X24273044Y63520038D01*
X24273045Y63520037D01*
X24644560Y63148522D01*
X25014374Y62778709D01*
X25014377Y62778705D01*
X25093039Y62700043D01*
X25165382Y62670079D01*
X25186577Y62661300D01*
X25287823Y62661300D01*
X26621620Y62661300D01*
X26688659Y62641615D01*
X26709301Y62624981D01*
X27634664Y61699618D01*
X27707007Y61669654D01*
X27728202Y61660875D01*
X27828472Y61660875D01*
X27895511Y61641190D01*
X27922184Y61618078D01*
X27967385Y61565914D01*
X27967388Y61565911D01*
X28078109Y61494755D01*
X28078112Y61494754D01*
X28078111Y61494754D01*
X28204390Y61457676D01*
X28204392Y61457675D01*
X28204393Y61457675D01*
X28336008Y61457675D01*
X28336008Y61457676D01*
X28462291Y61494755D01*
X28573012Y61565911D01*
X28659202Y61665379D01*
X28713876Y61785100D01*
X28732607Y61915375D01*
X28713876Y62045650D01*
X28713872Y62045658D01*
X28712609Y62049963D01*
X28712608Y62119833D01*
X28750382Y62178612D01*
X28813937Y62207638D01*
X28831586Y62208900D01*
X28868718Y62208900D01*
X28888225Y62214629D01*
X28993676Y62245592D01*
X29103236Y62316001D01*
X29120563Y62335997D01*
X29145261Y62364501D01*
X29204038Y62402277D01*
X29238975Y62407300D01*
X33604021Y62407300D01*
X33604023Y62407300D01*
X33650793Y62426673D01*
X33697560Y62446043D01*
X33697561Y62446045D01*
X33697563Y62446045D01*
X34785155Y63533637D01*
X34785155Y63533639D01*
X34785157Y63533640D01*
X34816783Y63609995D01*
X34823900Y63627177D01*
X34823900Y63649333D01*
X34843585Y63716372D01*
X34896389Y63762127D01*
X34965547Y63772071D01*
X35029103Y63743046D01*
X35043754Y63727997D01*
X35140594Y63609995D01*
X35291509Y63486144D01*
X35291515Y63486139D01*
X35463682Y63394114D01*
X35463684Y63394114D01*
X35463687Y63394112D01*
X35650510Y63337440D01*
X35650509Y63337440D01*
X35667929Y63335725D01*
X35844800Y63318304D01*
X36039090Y63337440D01*
X36225913Y63394112D01*
X36225917Y63394114D01*
X36398084Y63486139D01*
X36398086Y63486142D01*
X36398090Y63486143D01*
X36549005Y63609995D01*
X36672857Y63760910D01*
X36672858Y63760914D01*
X36672861Y63760916D01*
X36764886Y63933083D01*
X36764886Y63933084D01*
X36764888Y63933087D01*
X36821560Y64119910D01*
X36840696Y64314200D01*
X37388904Y64314200D01*
X37408039Y64119912D01*
X37464713Y63933083D01*
X37556738Y63760916D01*
X37556743Y63760910D01*
X37680594Y63609995D01*
X37831509Y63486144D01*
X37831515Y63486139D01*
X38003682Y63394114D01*
X38003684Y63394114D01*
X38003687Y63394112D01*
X38190510Y63337440D01*
X38190509Y63337440D01*
X38207929Y63335725D01*
X38384800Y63318304D01*
X38579090Y63337440D01*
X38765913Y63394112D01*
X38765917Y63394114D01*
X38938084Y63486139D01*
X38938086Y63486142D01*
X38938090Y63486143D01*
X39089005Y63609995D01*
X39212857Y63760910D01*
X39212858Y63760914D01*
X39212861Y63760916D01*
X39304886Y63933083D01*
X39304886Y63933084D01*
X39304888Y63933087D01*
X39361560Y64119910D01*
X39380696Y64314200D01*
X39361560Y64508490D01*
X39304888Y64695313D01*
X39304886Y64695316D01*
X39304886Y64695318D01*
X39212861Y64867485D01*
X39212856Y64867491D01*
X39211215Y64869490D01*
X39140261Y64955949D01*
X39089005Y65018406D01*
X38938090Y65142257D01*
X38938084Y65142262D01*
X38765917Y65234287D01*
X38601045Y65284300D01*
X38579090Y65290960D01*
X38579088Y65290961D01*
X38579090Y65290961D01*
X38384800Y65310096D01*
X38190511Y65290961D01*
X38003682Y65234287D01*
X37831515Y65142262D01*
X37831509Y65142257D01*
X37680594Y65018406D01*
X37556743Y64867491D01*
X37556738Y64867485D01*
X37464713Y64695318D01*
X37408039Y64508489D01*
X37388904Y64314200D01*
X36840696Y64314200D01*
X36821560Y64508490D01*
X36764888Y64695313D01*
X36764886Y64695316D01*
X36764886Y64695318D01*
X36672861Y64867485D01*
X36672856Y64867491D01*
X36671215Y64869490D01*
X36600261Y64955949D01*
X36549005Y65018406D01*
X36398090Y65142257D01*
X36398084Y65142262D01*
X36225917Y65234287D01*
X36061045Y65284300D01*
X36039090Y65290960D01*
X36039088Y65290961D01*
X36039090Y65290961D01*
X35844800Y65310096D01*
X35650511Y65290961D01*
X35463682Y65234287D01*
X35291515Y65142262D01*
X35291509Y65142257D01*
X35140594Y65018405D01*
X35043753Y64900403D01*
X34986008Y64861069D01*
X34916163Y64859198D01*
X34856395Y64895385D01*
X34825679Y64958141D01*
X34823900Y64979068D01*
X34823900Y66035620D01*
X34843585Y66102659D01*
X34860219Y66123301D01*
X35089511Y66352593D01*
X35340755Y66603837D01*
X35340755Y66603839D01*
X35340757Y66603840D01*
X35378740Y66695543D01*
X35379500Y66697377D01*
X35379500Y66798623D01*
X35379500Y67287545D01*
X35399185Y67354584D01*
X35451989Y67400339D01*
X35521147Y67410283D01*
X35572389Y67390648D01*
X35613455Y67363209D01*
X35676285Y67350711D01*
X35843714Y67350712D01*
X35906545Y67363209D01*
X35977795Y67410816D01*
X35977797Y67410820D01*
X35986431Y67419452D01*
X35988426Y67417457D01*
X36028005Y67450536D01*
X36097329Y67459246D01*
X36160358Y67429094D01*
X36169647Y67418374D01*
X36177204Y67410817D01*
X36177205Y67410816D01*
X36192885Y67400339D01*
X36248454Y67363209D01*
X36256820Y67361545D01*
X36311285Y67350711D01*
X36478714Y67350712D01*
X36541545Y67363209D01*
X36585813Y67392788D01*
X36652486Y67413664D01*
X36719866Y67395180D01*
X36766556Y67343202D01*
X36778700Y67289684D01*
X36778700Y67060939D01*
X36759015Y66993900D01*
X36735908Y66967231D01*
X36733569Y66965205D01*
X36648279Y66866775D01*
X36648278Y66866773D01*
X36594176Y66748309D01*
X36575643Y66619400D01*
X36594176Y66490492D01*
X36646914Y66375015D01*
X36648279Y66372026D01*
X36733564Y66273601D01*
X36733566Y66273600D01*
X36733566Y66273599D01*
X36771001Y66249542D01*
X36843124Y66203192D01*
X36944965Y66173288D01*
X36968082Y66166500D01*
X36968083Y66166500D01*
X37098318Y66166500D01*
X37117825Y66172229D01*
X37223276Y66203192D01*
X37332836Y66273601D01*
X37418121Y66372026D01*
X37472223Y66490491D01*
X37490757Y66619400D01*
X37472223Y66748309D01*
X37418121Y66866774D01*
X37332836Y66965199D01*
X37332834Y66965201D01*
X37332830Y66965205D01*
X37330492Y66967231D01*
X37328820Y66969833D01*
X37327028Y66971901D01*
X37327325Y66972159D01*
X37292721Y67026011D01*
X37287700Y67060939D01*
X37287700Y67438806D01*
X37293888Y67469916D01*
X37293020Y67470088D01*
X37302385Y67517173D01*
X37307900Y67544896D01*
X37307899Y68732325D01*
X37295402Y68795156D01*
X37247795Y68866406D01*
X37246996Y68866940D01*
X37176545Y68914014D01*
X37113717Y68926511D01*
X36946288Y68926511D01*
X36908655Y68919026D01*
X36883455Y68914013D01*
X36883454Y68914013D01*
X36883452Y68914012D01*
X36842389Y68886575D01*
X36775711Y68865698D01*
X36708332Y68884184D01*
X36661642Y68936163D01*
X36649500Y68989678D01*
X36649500Y69080422D01*
X36669185Y69147461D01*
X36685814Y69168098D01*
X37113717Y69596001D01*
X57035678Y69596001D01*
X57035678Y69596000D01*
X57054923Y69388309D01*
X57054923Y69388307D01*
X57054924Y69388304D01*
X57099228Y69232591D01*
X57112007Y69187678D01*
X57167400Y69076435D01*
X57204981Y69000962D01*
X57330682Y68834507D01*
X57484829Y68693984D01*
X57662172Y68584177D01*
X57856673Y68508827D01*
X58061707Y68470500D01*
X58061710Y68470500D01*
X58270290Y68470500D01*
X58270293Y68470500D01*
X58475327Y68508827D01*
X58669828Y68584177D01*
X58847171Y68693984D01*
X59001318Y68834507D01*
X59127019Y69000962D01*
X59219994Y69187681D01*
X59277076Y69388304D01*
X59296322Y69596000D01*
X59277076Y69803696D01*
X59219994Y70004319D01*
X59127019Y70191038D01*
X59001318Y70357493D01*
X58847171Y70498016D01*
X58669828Y70607823D01*
X58669827Y70607824D01*
X58510807Y70669428D01*
X58475327Y70683173D01*
X58270293Y70721500D01*
X58061707Y70721500D01*
X57856673Y70683173D01*
X57856670Y70683173D01*
X57856670Y70683172D01*
X57662172Y70607824D01*
X57662171Y70607823D01*
X57484827Y70498015D01*
X57330683Y70357495D01*
X57204981Y70191039D01*
X57112007Y70004323D01*
X57084376Y69907210D01*
X57066666Y69844963D01*
X57054923Y69803692D01*
X57035678Y69596001D01*
X37113717Y69596001D01*
X38511521Y70993806D01*
X38511524Y70993807D01*
X38528962Y71011245D01*
X38528963Y71011245D01*
X38600555Y71082837D01*
X38600555Y71082839D01*
X38600557Y71082840D01*
X38630175Y71154348D01*
X38639300Y71176377D01*
X38639300Y75184000D01*
X53994163Y75184000D01*
X54013464Y74864899D01*
X54013464Y74864894D01*
X54013465Y74864893D01*
X54071091Y74550440D01*
X54071092Y74550436D01*
X54071093Y74550432D01*
X54166193Y74245244D01*
X54166197Y74245233D01*
X54166198Y74245230D01*
X54166200Y74245225D01*
X54297405Y73953699D01*
X54447383Y73705606D01*
X54462792Y73680116D01*
X54462798Y73680107D01*
X54659954Y73428457D01*
X54886003Y73202408D01*
X55024556Y73093858D01*
X55137661Y73005246D01*
X55411246Y72839858D01*
X55702772Y72708653D01*
X55702782Y72708650D01*
X55702790Y72708647D01*
X55906248Y72645247D01*
X56007987Y72613544D01*
X56322440Y72555918D01*
X56641547Y72536616D01*
X56960654Y72555918D01*
X57275107Y72613544D01*
X57580322Y72708653D01*
X57871848Y72839858D01*
X58145433Y73005246D01*
X58397087Y73202405D01*
X58623142Y73428460D01*
X58820301Y73680114D01*
X58985689Y73953699D01*
X59116894Y74245225D01*
X59212003Y74550440D01*
X59269629Y74864893D01*
X59288931Y75184000D01*
X59269629Y75503107D01*
X59212003Y75817560D01*
X59137577Y76056401D01*
X59116900Y76122757D01*
X59116896Y76122768D01*
X59116894Y76122775D01*
X58985689Y76414301D01*
X58820301Y76687886D01*
X58775187Y76745469D01*
X58623139Y76939544D01*
X58397090Y77165593D01*
X58145440Y77362749D01*
X58145435Y77362752D01*
X58145433Y77362754D01*
X57871848Y77528142D01*
X57580322Y77659347D01*
X57580317Y77659349D01*
X57580314Y77659350D01*
X57580303Y77659354D01*
X57275115Y77754454D01*
X57275111Y77754455D01*
X57275107Y77754456D01*
X56960654Y77812082D01*
X56960653Y77812083D01*
X56960648Y77812083D01*
X56641547Y77831384D01*
X56322445Y77812083D01*
X56322440Y77812082D01*
X56007987Y77754456D01*
X56007984Y77754456D01*
X56007978Y77754454D01*
X55702790Y77659354D01*
X55702779Y77659350D01*
X55702773Y77659348D01*
X55702772Y77659347D01*
X55609885Y77617542D01*
X55414179Y77529462D01*
X55411246Y77528142D01*
X55322161Y77474288D01*
X55137662Y77362755D01*
X55137653Y77362749D01*
X54886003Y77165593D01*
X54659954Y76939544D01*
X54462798Y76687894D01*
X54462792Y76687885D01*
X54297404Y76414299D01*
X54297403Y76414297D01*
X54166197Y76122768D01*
X54166193Y76122757D01*
X54071093Y75817569D01*
X54071091Y75817563D01*
X54071091Y75817560D01*
X54037473Y75634114D01*
X54013464Y75503102D01*
X53994163Y75184000D01*
X38639300Y75184000D01*
X38639300Y75503741D01*
X38658985Y75570780D01*
X38711789Y75616535D01*
X38727296Y75622398D01*
X38765913Y75634112D01*
X38828140Y75667373D01*
X38938084Y75726139D01*
X38938086Y75726142D01*
X38938090Y75726143D01*
X39089005Y75849995D01*
X39212857Y76000910D01*
X39212858Y76000914D01*
X39212861Y76000916D01*
X39304886Y76173083D01*
X39304887Y76173086D01*
X39304888Y76173087D01*
X39361560Y76359910D01*
X39380696Y76554200D01*
X39361560Y76748490D01*
X39304888Y76935313D01*
X39304886Y76935316D01*
X39304886Y76935318D01*
X39212861Y77107485D01*
X39212856Y77107491D01*
X39209888Y77111107D01*
X39186617Y77139464D01*
X39089005Y77258406D01*
X38938090Y77382257D01*
X38938084Y77382262D01*
X38765917Y77474287D01*
X38632145Y77514866D01*
X38579090Y77530960D01*
X38579088Y77530961D01*
X38579090Y77530961D01*
X38384800Y77550096D01*
X38190511Y77530961D01*
X38003682Y77474287D01*
X37831515Y77382262D01*
X37831509Y77382257D01*
X37680594Y77258406D01*
X37556743Y77107491D01*
X37556738Y77107485D01*
X37464713Y76935318D01*
X37408039Y76748489D01*
X37388904Y76554200D01*
X37408039Y76359912D01*
X37464713Y76173083D01*
X37556738Y76000916D01*
X37556743Y76000910D01*
X37680594Y75849995D01*
X37831509Y75726144D01*
X37831515Y75726139D01*
X38003679Y75634116D01*
X38003680Y75634116D01*
X38003687Y75634112D01*
X38042295Y75622401D01*
X38100733Y75584106D01*
X38129190Y75520294D01*
X38130300Y75503741D01*
X38130300Y71383781D01*
X38110615Y71316742D01*
X38093981Y71296100D01*
X38032781Y71234900D01*
X37971458Y71201415D01*
X37901766Y71206399D01*
X37845833Y71248271D01*
X37821416Y71313735D01*
X37821100Y71322581D01*
X37821100Y74767335D01*
X37821101Y74767344D01*
X37821101Y74883022D01*
X37821101Y74883023D01*
X37782355Y74976563D01*
X36767546Y75991372D01*
X36734061Y76052695D01*
X36739045Y76122387D01*
X36745865Y76137499D01*
X36764888Y76173087D01*
X36821560Y76359910D01*
X36840696Y76554200D01*
X36821560Y76748490D01*
X36764888Y76935313D01*
X36764886Y76935316D01*
X36764886Y76935318D01*
X36672861Y77107485D01*
X36672856Y77107491D01*
X36669888Y77111107D01*
X36646617Y77139464D01*
X36549005Y77258406D01*
X36398090Y77382257D01*
X36398084Y77382262D01*
X36225917Y77474287D01*
X36092145Y77514866D01*
X36039090Y77530960D01*
X36039088Y77530961D01*
X36039090Y77530961D01*
X35844800Y77550096D01*
X35650511Y77530961D01*
X35463682Y77474287D01*
X35291515Y77382262D01*
X35291509Y77382257D01*
X35140594Y77258406D01*
X35016743Y77107491D01*
X35016738Y77107485D01*
X34924713Y76935318D01*
X34868039Y76748489D01*
X34848904Y76554200D01*
X34868039Y76359912D01*
X34924713Y76173083D01*
X35016738Y76000916D01*
X35016743Y76000910D01*
X35140594Y75849995D01*
X35291509Y75726144D01*
X35291515Y75726139D01*
X35463682Y75634114D01*
X35463684Y75634114D01*
X35463687Y75634112D01*
X35650510Y75577440D01*
X35650509Y75577440D01*
X35667929Y75575725D01*
X35844800Y75558304D01*
X36039090Y75577440D01*
X36225913Y75634112D01*
X36261493Y75653131D01*
X36329894Y75667373D01*
X36395138Y75642375D01*
X36407628Y75631454D01*
X37275781Y74763301D01*
X37309266Y74701978D01*
X37312100Y74675620D01*
X37312100Y73772645D01*
X37292415Y73705606D01*
X37239611Y73659851D01*
X37170453Y73649907D01*
X37163910Y73651027D01*
X37125143Y73658738D01*
X37113715Y73661011D01*
X37113714Y73661011D01*
X36946288Y73661011D01*
X36908655Y73653526D01*
X36883455Y73648513D01*
X36883454Y73648513D01*
X36883452Y73648512D01*
X36812205Y73600907D01*
X36803569Y73592270D01*
X36801574Y73594265D01*
X36761968Y73561176D01*
X36692642Y73552481D01*
X36629620Y73582647D01*
X36620334Y73593367D01*
X36612795Y73600906D01*
X36541545Y73648514D01*
X36478717Y73661011D01*
X36311288Y73661011D01*
X36273655Y73653526D01*
X36248455Y73648513D01*
X36248454Y73648513D01*
X36248452Y73648512D01*
X36177205Y73600907D01*
X36168569Y73592270D01*
X36166574Y73594265D01*
X36126968Y73561176D01*
X36057642Y73552481D01*
X35994620Y73582647D01*
X35985334Y73593367D01*
X35977795Y73600906D01*
X35906545Y73648514D01*
X35843717Y73661011D01*
X35676288Y73661011D01*
X35638655Y73653526D01*
X35613455Y73648513D01*
X35613454Y73648513D01*
X35613452Y73648512D01*
X35542205Y73600907D01*
X35533569Y73592270D01*
X35531574Y73594265D01*
X35491968Y73561176D01*
X35422642Y73552481D01*
X35359620Y73582647D01*
X35350334Y73593367D01*
X35342795Y73600906D01*
X35271545Y73648514D01*
X35208717Y73661011D01*
X35041288Y73661011D01*
X35003655Y73653526D01*
X34978455Y73648513D01*
X34978454Y73648513D01*
X34978452Y73648512D01*
X34907205Y73600907D01*
X34898569Y73592270D01*
X34896574Y73594265D01*
X34856968Y73561176D01*
X34787642Y73552481D01*
X34724620Y73582647D01*
X34715334Y73593367D01*
X34707795Y73600906D01*
X34636545Y73648514D01*
X34573717Y73661011D01*
X34406288Y73661011D01*
X34368655Y73653526D01*
X34343455Y73648513D01*
X34343454Y73648513D01*
X34343452Y73648512D01*
X34302389Y73621075D01*
X34235711Y73600198D01*
X34168332Y73618684D01*
X34121642Y73670663D01*
X34109500Y73724178D01*
X34109500Y73740710D01*
X34109501Y73740719D01*
X34109501Y73856397D01*
X34109501Y73856398D01*
X34070755Y73949938D01*
X31775025Y76245668D01*
X31741540Y76306991D01*
X31741122Y76353832D01*
X31740963Y76353847D01*
X31741108Y76355328D01*
X31741089Y76357544D01*
X31741559Y76359908D01*
X31741560Y76359910D01*
X31760696Y76554200D01*
X32308904Y76554200D01*
X32328039Y76359912D01*
X32384713Y76173083D01*
X32476738Y76000916D01*
X32476743Y76000910D01*
X32600594Y75849995D01*
X32751509Y75726144D01*
X32751515Y75726139D01*
X32923682Y75634114D01*
X32923684Y75634114D01*
X32923687Y75634112D01*
X33110510Y75577440D01*
X33110509Y75577440D01*
X33127929Y75575725D01*
X33304800Y75558304D01*
X33499090Y75577440D01*
X33685913Y75634112D01*
X33685917Y75634114D01*
X33858084Y75726139D01*
X33858086Y75726142D01*
X33858090Y75726143D01*
X34009005Y75849995D01*
X34132857Y76000910D01*
X34132858Y76000914D01*
X34132861Y76000916D01*
X34224886Y76173083D01*
X34224887Y76173086D01*
X34224888Y76173087D01*
X34281560Y76359910D01*
X34300696Y76554200D01*
X34281560Y76748490D01*
X34224888Y76935313D01*
X34224886Y76935316D01*
X34224886Y76935318D01*
X34132861Y77107485D01*
X34132856Y77107491D01*
X34129888Y77111107D01*
X34106617Y77139464D01*
X34009005Y77258406D01*
X33858090Y77382257D01*
X33858084Y77382262D01*
X33685917Y77474287D01*
X33552145Y77514866D01*
X33499090Y77530960D01*
X33499088Y77530961D01*
X33499090Y77530961D01*
X33304800Y77550096D01*
X33110511Y77530961D01*
X32923682Y77474287D01*
X32751515Y77382262D01*
X32751509Y77382257D01*
X32600594Y77258406D01*
X32476743Y77107491D01*
X32476738Y77107485D01*
X32384713Y76935318D01*
X32328039Y76748489D01*
X32308904Y76554200D01*
X31760696Y76554200D01*
X31741560Y76748490D01*
X31684888Y76935313D01*
X31684886Y76935316D01*
X31684886Y76935318D01*
X31592861Y77107485D01*
X31592856Y77107491D01*
X31589888Y77111107D01*
X31566617Y77139464D01*
X31469005Y77258406D01*
X31318090Y77382257D01*
X31318084Y77382262D01*
X31145917Y77474287D01*
X31012145Y77514866D01*
X30959090Y77530960D01*
X30959088Y77530961D01*
X30959090Y77530961D01*
X30764800Y77550096D01*
X30570511Y77530961D01*
X30383682Y77474287D01*
X30211515Y77382262D01*
X30211509Y77382257D01*
X30060594Y77258406D01*
X29936743Y77107491D01*
X29936738Y77107485D01*
X29844713Y76935318D01*
X29788039Y76748489D01*
X29768904Y76554200D01*
X29788039Y76359912D01*
X29844713Y76173083D01*
X29936738Y76000916D01*
X29936743Y76000910D01*
X30060594Y75849995D01*
X30173290Y75757509D01*
X30211510Y75726143D01*
X30214066Y75724777D01*
X30236410Y75712833D01*
X30286254Y75663870D01*
X30301714Y75595732D01*
X30277882Y75530053D01*
X30222324Y75487684D01*
X30177956Y75479475D01*
X29925580Y75479475D01*
X29858541Y75499160D01*
X29837899Y75515794D01*
X29205755Y76147938D01*
X29172270Y76209261D01*
X29174776Y76271615D01*
X29199716Y76353832D01*
X29201560Y76359910D01*
X29220696Y76554200D01*
X29201560Y76748490D01*
X29144888Y76935313D01*
X29144886Y76935316D01*
X29144886Y76935318D01*
X29052861Y77107485D01*
X29052856Y77107491D01*
X29049888Y77111107D01*
X29026617Y77139464D01*
X28929005Y77258406D01*
X28778090Y77382257D01*
X28778084Y77382262D01*
X28605917Y77474287D01*
X28472145Y77514866D01*
X28419090Y77530960D01*
X28419088Y77530961D01*
X28419090Y77530961D01*
X28224800Y77550096D01*
X28030511Y77530961D01*
X27843682Y77474287D01*
X27671515Y77382262D01*
X27671509Y77382257D01*
X27520594Y77258406D01*
X27396743Y77107491D01*
X27396738Y77107485D01*
X27304713Y76935318D01*
X27248039Y76748489D01*
X27228904Y76554200D01*
X27248039Y76359912D01*
X27304713Y76173083D01*
X27396738Y76000916D01*
X27396743Y76000910D01*
X27520594Y75849995D01*
X27671509Y75726144D01*
X27671515Y75726139D01*
X27843682Y75634114D01*
X27843684Y75634114D01*
X27843687Y75634112D01*
X28030510Y75577440D01*
X28030509Y75577440D01*
X28047929Y75575725D01*
X28224800Y75558304D01*
X28419090Y75577440D01*
X28605913Y75634112D01*
X28778090Y75726143D01*
X28778092Y75726146D01*
X28781456Y75727943D01*
X28849859Y75742185D01*
X28915103Y75717185D01*
X28927591Y75706266D01*
X29603101Y75030756D01*
X29636586Y74969433D01*
X29631602Y74899741D01*
X29589730Y74843808D01*
X29524266Y74819391D01*
X29515420Y74819075D01*
X27831205Y74819075D01*
X27764166Y74838760D01*
X27743524Y74855394D01*
X26607546Y75991372D01*
X26574061Y76052695D01*
X26579045Y76122387D01*
X26585865Y76137499D01*
X26604888Y76173087D01*
X26661560Y76359910D01*
X26680696Y76554200D01*
X26661560Y76748490D01*
X26604888Y76935313D01*
X26604886Y76935316D01*
X26604886Y76935318D01*
X26512861Y77107485D01*
X26512856Y77107491D01*
X26509888Y77111107D01*
X26486617Y77139464D01*
X26389005Y77258406D01*
X26238090Y77382257D01*
X26238084Y77382262D01*
X26065917Y77474287D01*
X25932145Y77514866D01*
X25879090Y77530960D01*
X25879088Y77530961D01*
X25879090Y77530961D01*
X25684800Y77550096D01*
X25490511Y77530961D01*
X25303682Y77474287D01*
X25131515Y77382262D01*
X25131509Y77382257D01*
X24980594Y77258406D01*
X24856743Y77107491D01*
X24856738Y77107485D01*
X24764713Y76935318D01*
X24708039Y76748489D01*
X24688904Y76554200D01*
X24708039Y76359912D01*
X24764713Y76173083D01*
X24856738Y76000916D01*
X24856743Y76000910D01*
X24980594Y75849995D01*
X25131509Y75726144D01*
X25131515Y75726139D01*
X25303682Y75634114D01*
X25303684Y75634114D01*
X25303687Y75634112D01*
X25490510Y75577440D01*
X25490509Y75577440D01*
X25507929Y75575725D01*
X25684800Y75558304D01*
X25879090Y75577440D01*
X26065913Y75634112D01*
X26101493Y75653131D01*
X26169894Y75667373D01*
X26235138Y75642375D01*
X26247628Y75631454D01*
X27530262Y74348820D01*
X27623802Y74310074D01*
X27623803Y74310074D01*
X27739482Y74310074D01*
X27739490Y74310075D01*
X30002845Y74310075D01*
X30069884Y74290390D01*
X30090526Y74273756D01*
X30177367Y74186915D01*
X30210852Y74125592D01*
X30205868Y74055900D01*
X30171447Y74006007D01*
X30170000Y74004738D01*
X30170000Y72872111D01*
X30150315Y72805072D01*
X30097511Y72759317D01*
X30046000Y72748111D01*
X29420000Y72748111D01*
X29420000Y72263734D01*
X29434478Y72153770D01*
X29434478Y72153769D01*
X29491156Y72016936D01*
X29581321Y71899430D01*
X29646625Y71849321D01*
X29687828Y71792893D01*
X29691983Y71723147D01*
X29657771Y71662227D01*
X29596053Y71629474D01*
X29595331Y71629328D01*
X29591180Y71628503D01*
X29497635Y71589754D01*
X28009042Y70101161D01*
X27970301Y70007627D01*
X27970300Y70007622D01*
X27970300Y65364661D01*
X27950615Y65297622D01*
X27897811Y65251867D01*
X27882297Y65246001D01*
X27843684Y65234288D01*
X27671515Y65142262D01*
X27671509Y65142257D01*
X27520594Y65018406D01*
X27396743Y64867491D01*
X27396738Y64867485D01*
X27304713Y64695318D01*
X27248039Y64508489D01*
X27228904Y64314200D01*
X27248039Y64119912D01*
X27304713Y63933083D01*
X27396738Y63760916D01*
X27396743Y63760910D01*
X27520594Y63609995D01*
X27671509Y63486144D01*
X27671515Y63486139D01*
X27843682Y63394114D01*
X27843684Y63394114D01*
X27843687Y63394112D01*
X28030510Y63337440D01*
X28030509Y63337440D01*
X28047929Y63335725D01*
X28224800Y63318304D01*
X28419090Y63337440D01*
X28605913Y63394112D01*
X28605917Y63394114D01*
X28778084Y63486139D01*
X28778086Y63486142D01*
X28778090Y63486143D01*
X28929005Y63609995D01*
X29052857Y63760910D01*
X29052858Y63760914D01*
X29052861Y63760916D01*
X29144886Y63933083D01*
X29144886Y63933084D01*
X29144888Y63933087D01*
X29201560Y64119910D01*
X29220696Y64314200D01*
X29768904Y64314200D01*
X29788039Y64119912D01*
X29844713Y63933083D01*
X29936738Y63760916D01*
X29936743Y63760910D01*
X30060594Y63609995D01*
X30211509Y63486144D01*
X30211515Y63486139D01*
X30383682Y63394114D01*
X30383684Y63394114D01*
X30383687Y63394112D01*
X30570510Y63337440D01*
X30570509Y63337440D01*
X30587929Y63335725D01*
X30764800Y63318304D01*
X30959090Y63337440D01*
X31145913Y63394112D01*
X31145917Y63394114D01*
X31318084Y63486139D01*
X31318086Y63486142D01*
X31318090Y63486143D01*
X31469005Y63609995D01*
X31592857Y63760910D01*
X31592858Y63760914D01*
X31592861Y63760916D01*
X31684886Y63933083D01*
X31684886Y63933084D01*
X31684888Y63933087D01*
X31741560Y64119910D01*
X31760696Y64314200D01*
X31741560Y64508490D01*
X31684888Y64695313D01*
X31684886Y64695316D01*
X31684886Y64695318D01*
X31592861Y64867485D01*
X31592856Y64867491D01*
X31591215Y64869490D01*
X31520261Y64955949D01*
X31469005Y65018406D01*
X31318090Y65142257D01*
X31318084Y65142262D01*
X31145917Y65234287D01*
X30981045Y65284300D01*
X30959090Y65290960D01*
X30959088Y65290961D01*
X30959090Y65290961D01*
X30764800Y65310096D01*
X30570511Y65290961D01*
X30383682Y65234287D01*
X30211515Y65142262D01*
X30211509Y65142257D01*
X30060594Y65018406D01*
X29936743Y64867491D01*
X29936738Y64867485D01*
X29844713Y64695318D01*
X29788039Y64508489D01*
X29768904Y64314200D01*
X29220696Y64314200D01*
X29201560Y64508490D01*
X29144888Y64695313D01*
X29144886Y64695316D01*
X29144886Y64695318D01*
X29052861Y64867485D01*
X29052856Y64867491D01*
X29051215Y64869490D01*
X28980261Y64955949D01*
X28929005Y65018406D01*
X28778090Y65142257D01*
X28778084Y65142262D01*
X28605915Y65234288D01*
X28567303Y65246001D01*
X28508865Y65284300D01*
X28480409Y65348112D01*
X28479300Y65364661D01*
X28479300Y66252277D01*
X28498985Y66319316D01*
X28551789Y66365071D01*
X28620947Y66375015D01*
X28638231Y66371255D01*
X28713683Y66349100D01*
X28843919Y66349100D01*
X28843919Y66349101D01*
X28848852Y66350550D01*
X28855808Y66352591D01*
X28925678Y66352593D01*
X28984456Y66314820D01*
X29013483Y66251264D01*
X29013483Y66215969D01*
X29006443Y66167002D01*
X29006443Y66167001D01*
X29024976Y66038092D01*
X29070732Y65937902D01*
X29079079Y65919626D01*
X29164364Y65821201D01*
X29164366Y65821200D01*
X29164366Y65821199D01*
X29208188Y65793038D01*
X29273924Y65750792D01*
X29375765Y65720888D01*
X29398882Y65714100D01*
X29398883Y65714100D01*
X29529118Y65714100D01*
X29548625Y65719829D01*
X29654076Y65750792D01*
X29763636Y65821201D01*
X29827671Y65895103D01*
X29886449Y65932877D01*
X29921384Y65937900D01*
X33555740Y65937900D01*
X33555742Y65937900D01*
X33602512Y65957273D01*
X33649279Y65976643D01*
X33649280Y65976645D01*
X33649282Y65976645D01*
X34157004Y66484369D01*
X34218325Y66517852D01*
X34288016Y66512868D01*
X34343950Y66470997D01*
X34368367Y66405532D01*
X34356024Y66348797D01*
X34358318Y66347847D01*
X34314901Y66243027D01*
X34314900Y66243022D01*
X34314900Y64992228D01*
X34295215Y64925189D01*
X34242411Y64879434D01*
X34173253Y64869490D01*
X34109697Y64898515D01*
X34095047Y64913563D01*
X34009005Y65018405D01*
X33858090Y65142257D01*
X33858084Y65142262D01*
X33685917Y65234287D01*
X33521045Y65284300D01*
X33499090Y65290960D01*
X33499088Y65290961D01*
X33499090Y65290961D01*
X33304800Y65310096D01*
X33110511Y65290961D01*
X32923682Y65234287D01*
X32751515Y65142262D01*
X32751509Y65142257D01*
X32600594Y65018406D01*
X32476743Y64867491D01*
X32476738Y64867485D01*
X32384713Y64695318D01*
X32328039Y64508489D01*
X32308904Y64314200D01*
X32328039Y64119912D01*
X32384713Y63933083D01*
X32476738Y63760916D01*
X32476743Y63760910D01*
X32600594Y63609995D01*
X32751509Y63486144D01*
X32751515Y63486139D01*
X32923682Y63394114D01*
X32923684Y63394114D01*
X32923687Y63394112D01*
X33110510Y63337440D01*
X33110509Y63337440D01*
X33127929Y63335725D01*
X33304800Y63318304D01*
X33499090Y63337440D01*
X33556526Y63354864D01*
X33626393Y63355487D01*
X33685506Y63318240D01*
X33715097Y63254946D01*
X33705772Y63185701D01*
X33680203Y63148522D01*
X33484301Y62952619D01*
X33422978Y62919134D01*
X33396620Y62916300D01*
X29238975Y62916300D01*
X29171936Y62935985D01*
X29145261Y62959099D01*
X29103236Y63007599D01*
X29103237Y63007599D01*
X29051364Y63040935D01*
X28993676Y63078008D01*
X28910370Y63102470D01*
X28868718Y63114700D01*
X28868717Y63114700D01*
X28738483Y63114700D01*
X28738482Y63114700D01*
X28676003Y63096354D01*
X28613524Y63078008D01*
X28613521Y63078006D01*
X28503966Y63007602D01*
X28503966Y63007601D01*
X28418679Y62909175D01*
X28418678Y62909173D01*
X28364576Y62790709D01*
X28346043Y62661800D01*
X28364576Y62532892D01*
X28364834Y62532016D01*
X28364834Y62531103D01*
X28365839Y62524113D01*
X28364834Y62523969D01*
X28364838Y62462147D01*
X28327067Y62403366D01*
X28263513Y62374338D01*
X28245859Y62373075D01*
X28204390Y62373075D01*
X28078111Y62335997D01*
X27967388Y62264840D01*
X27960688Y62259033D01*
X27958569Y62261478D01*
X27913079Y62232277D01*
X27843209Y62232314D01*
X27790526Y62263592D01*
X26921160Y63132958D01*
X26827626Y63171699D01*
X26827624Y63171700D01*
X26827623Y63171700D01*
X26726377Y63171700D01*
X26721339Y63171700D01*
X26707126Y63170300D01*
X26142226Y63170300D01*
X26075187Y63189985D01*
X26029432Y63242789D01*
X26019488Y63311947D01*
X26048513Y63375503D01*
X26083773Y63403658D01*
X26186985Y63458827D01*
X26238090Y63486143D01*
X26389005Y63609995D01*
X26512857Y63760910D01*
X26512858Y63760914D01*
X26512861Y63760916D01*
X26604886Y63933083D01*
X26604886Y63933084D01*
X26604888Y63933087D01*
X26661560Y64119910D01*
X26680696Y64314200D01*
X26661560Y64508490D01*
X26604888Y64695313D01*
X26604886Y64695316D01*
X26604886Y64695318D01*
X26512861Y64867485D01*
X26512856Y64867491D01*
X26511215Y64869490D01*
X26440261Y64955949D01*
X26389005Y65018406D01*
X26238090Y65142257D01*
X26238084Y65142262D01*
X26065915Y65234288D01*
X26027303Y65246001D01*
X25968865Y65284300D01*
X25940409Y65348112D01*
X25939300Y65364661D01*
X25939300Y69927220D01*
X25958985Y69994259D01*
X25975619Y70014901D01*
X27380368Y71419650D01*
X28790755Y72830037D01*
X28790755Y72830039D01*
X28790757Y72830040D01*
X28829498Y72923572D01*
X28829498Y72923573D01*
X28829500Y72923577D01*
X28829500Y72923583D01*
X28830071Y72926452D01*
X28833053Y72932154D01*
X28834174Y72934860D01*
X28834416Y72934760D01*
X28862452Y72988365D01*
X28870489Y72995984D01*
X28874626Y72999570D01*
X28874636Y72999576D01*
X28959921Y73098001D01*
X29014023Y73216466D01*
X29032557Y73345375D01*
X29014023Y73474284D01*
X29010276Y73482489D01*
X29420000Y73482489D01*
X29420000Y72998111D01*
X29920000Y72998111D01*
X29920000Y74004738D01*
X29835659Y73993633D01*
X29835657Y73993633D01*
X29698824Y73936955D01*
X29581320Y73846791D01*
X29491156Y73729287D01*
X29434478Y73592454D01*
X29434478Y73592453D01*
X29420000Y73482489D01*
X29010276Y73482489D01*
X28959921Y73592749D01*
X28874636Y73691174D01*
X28874633Y73691176D01*
X28874633Y73691177D01*
X28797541Y73740719D01*
X28765076Y73761583D01*
X28681770Y73786045D01*
X28640118Y73798275D01*
X28640117Y73798275D01*
X28509883Y73798275D01*
X28509882Y73798275D01*
X28447403Y73779929D01*
X28384924Y73761583D01*
X28384921Y73761581D01*
X28275366Y73691177D01*
X28275366Y73691176D01*
X28275364Y73691175D01*
X28275364Y73691174D01*
X28265376Y73679647D01*
X28190079Y73592750D01*
X28190078Y73592748D01*
X28135976Y73474284D01*
X28117443Y73345375D01*
X28135976Y73216467D01*
X28190078Y73098002D01*
X28194271Y73091478D01*
X28213956Y73024438D01*
X28194272Y72957399D01*
X28177637Y72936757D01*
X25540637Y70299755D01*
X25469044Y70228163D01*
X25469042Y70228161D01*
X25430301Y70134627D01*
X25430300Y70134622D01*
X25430300Y69430075D01*
X25410615Y69363036D01*
X25357811Y69317281D01*
X25288653Y69307337D01*
X25225097Y69336362D01*
X25224073Y69337259D01*
X25205453Y69353755D01*
X25113213Y69435472D01*
X25113211Y69435473D01*
X25113210Y69435474D01*
X25113206Y69435477D01*
X24972823Y69509156D01*
X24818876Y69547100D01*
X24660324Y69547100D01*
X24506376Y69509156D01*
X24365993Y69435477D01*
X24365989Y69435474D01*
X24365987Y69435472D01*
X24329036Y69402736D01*
X24301435Y69378284D01*
X24238202Y69348563D01*
X24219208Y69347100D01*
X23659693Y69347100D01*
X23601947Y69364057D01*
X23601740Y69363555D01*
X23597079Y69365486D01*
X23592654Y69366785D01*
X23590799Y69368000D01*
X23590455Y69368230D01*
X23590453Y69368231D01*
X23579804Y69370349D01*
X23517894Y69402736D01*
X23483322Y69463454D01*
X23480000Y69491965D01*
X23480000Y69602213D01*
X23499685Y69669252D01*
X23552489Y69715007D01*
X23590744Y69725502D01*
X23638172Y69730602D01*
X23638179Y69730604D01*
X23772886Y69780846D01*
X23772893Y69780850D01*
X23887987Y69867010D01*
X23887990Y69867013D01*
X23974150Y69982107D01*
X23974154Y69982114D01*
X24024396Y70116821D01*
X24024398Y70116828D01*
X24030799Y70176356D01*
X24030800Y70176373D01*
X24030800Y70302000D01*
X22230800Y70302000D01*
X22230800Y70176356D01*
X22237201Y70116828D01*
X22237203Y70116821D01*
X22276253Y70012122D01*
X22281237Y69942430D01*
X22247752Y69881107D01*
X22186428Y69847623D01*
X22116737Y69852607D01*
X22072390Y69881108D01*
X21799819Y70153679D01*
X21766334Y70215002D01*
X21763500Y70241360D01*
X21763500Y70927645D01*
X22230800Y70927645D01*
X22230800Y70802000D01*
X22880800Y70802000D01*
X23380800Y70802000D01*
X24030800Y70802000D01*
X24030800Y70927628D01*
X24030799Y70927645D01*
X24024398Y70987173D01*
X24024396Y70987180D01*
X23974154Y71121887D01*
X23974150Y71121894D01*
X23887990Y71236988D01*
X23887987Y71236991D01*
X23772893Y71323151D01*
X23772886Y71323155D01*
X23638179Y71373397D01*
X23638172Y71373399D01*
X23578644Y71379800D01*
X23380800Y71379800D01*
X23380800Y70802000D01*
X22880800Y70802000D01*
X22880800Y71379800D01*
X22682955Y71379800D01*
X22623427Y71373399D01*
X22623420Y71373397D01*
X22488713Y71323155D01*
X22488706Y71323151D01*
X22373612Y71236991D01*
X22373609Y71236988D01*
X22287449Y71121894D01*
X22287445Y71121887D01*
X22237203Y70987180D01*
X22237201Y70987173D01*
X22230800Y70927645D01*
X21763500Y70927645D01*
X21763500Y71261041D01*
X21783185Y71328080D01*
X21799819Y71348722D01*
X22235278Y71784181D01*
X22296601Y71817666D01*
X22322959Y71820500D01*
X22524028Y71820500D01*
X22591067Y71800815D01*
X22627130Y71765390D01*
X22635564Y71752768D01*
X22635565Y71752768D01*
X22635566Y71752766D01*
X22686142Y71718972D01*
X22686143Y71718972D01*
X22686145Y71718971D01*
X22708442Y71714536D01*
X22730743Y71710100D01*
X23416456Y71710101D01*
X23461058Y71718972D01*
X23511634Y71752766D01*
X23545428Y71803342D01*
X23545429Y71803347D01*
X23547547Y71813991D01*
X23579932Y71875902D01*
X23640647Y71910476D01*
X23669164Y71913800D01*
X23779413Y71913800D01*
X23846452Y71894115D01*
X23892207Y71841311D01*
X23902702Y71803056D01*
X23907801Y71755628D01*
X23907803Y71755621D01*
X23958045Y71620914D01*
X23958049Y71620907D01*
X24044209Y71505813D01*
X24044212Y71505810D01*
X24159306Y71419650D01*
X24159313Y71419646D01*
X24294020Y71369404D01*
X24294027Y71369402D01*
X24353555Y71363001D01*
X24353572Y71363000D01*
X24479200Y71363000D01*
X24979200Y71363000D01*
X25104828Y71363000D01*
X25104844Y71363001D01*
X25164372Y71369402D01*
X25164379Y71369404D01*
X25299086Y71419646D01*
X25299093Y71419650D01*
X25414187Y71505810D01*
X25414190Y71505813D01*
X25500350Y71620907D01*
X25500354Y71620914D01*
X25550596Y71755621D01*
X25550598Y71755628D01*
X25556999Y71815156D01*
X25557000Y71815173D01*
X25557000Y72013000D01*
X24979200Y72013000D01*
X24979200Y71363000D01*
X24479200Y71363000D01*
X24479200Y72513000D01*
X24979200Y72513000D01*
X25557000Y72513000D01*
X25557000Y72710828D01*
X25556999Y72710845D01*
X25550598Y72770373D01*
X25550596Y72770380D01*
X25500354Y72905087D01*
X25500350Y72905094D01*
X25414190Y73020188D01*
X25414187Y73020191D01*
X25299093Y73106351D01*
X25299086Y73106355D01*
X25164379Y73156597D01*
X25164372Y73156599D01*
X25104844Y73163000D01*
X24979200Y73163000D01*
X24979200Y72513000D01*
X24479200Y72513000D01*
X24479200Y73163000D01*
X24353555Y73163000D01*
X24294027Y73156599D01*
X24294020Y73156597D01*
X24159313Y73106355D01*
X24159306Y73106351D01*
X24044212Y73020191D01*
X24044209Y73020188D01*
X23958049Y72905094D01*
X23958045Y72905087D01*
X23907803Y72770380D01*
X23907801Y72770373D01*
X23902702Y72722944D01*
X23875964Y72658393D01*
X23818571Y72618545D01*
X23779413Y72612200D01*
X23669163Y72612200D01*
X23602124Y72631885D01*
X23556369Y72684689D01*
X23547545Y72712012D01*
X23545428Y72722658D01*
X23545426Y72722660D01*
X23545426Y72722662D01*
X23511634Y72773234D01*
X23485620Y72790616D01*
X23461058Y72807028D01*
X23461057Y72807029D01*
X23461056Y72807029D01*
X23461054Y72807030D01*
X23416459Y72815900D01*
X22730745Y72815900D01*
X22686141Y72807028D01*
X22686138Y72807027D01*
X22635568Y72773237D01*
X22626933Y72764600D01*
X22624192Y72767341D01*
X22587430Y72736610D01*
X22537927Y72726300D01*
X22024375Y72726300D01*
X21909185Y72695436D01*
X21805913Y72635810D01*
X21805910Y72635808D01*
X20948192Y71778090D01*
X20948190Y71778087D01*
X20888564Y71674815D01*
X20874122Y71620914D01*
X20857700Y71559625D01*
X20857700Y70062025D01*
X20857700Y69942775D01*
X20872403Y69887901D01*
X20888564Y69827586D01*
X20915548Y69780850D01*
X20948190Y69724313D01*
X20948192Y69724311D01*
X20956999Y69715504D01*
X20990484Y69654181D01*
X20985500Y69584489D01*
X20943628Y69528556D01*
X20878164Y69504139D01*
X20839643Y69507426D01*
X20678676Y69547100D01*
X20520124Y69547100D01*
X20366176Y69509156D01*
X20225793Y69435477D01*
X20225789Y69435474D01*
X20225787Y69435472D01*
X20188836Y69402736D01*
X20161235Y69378284D01*
X20098002Y69348563D01*
X20079008Y69347100D01*
X18974375Y69347100D01*
X18859185Y69316236D01*
X18755913Y69256610D01*
X18755910Y69256608D01*
X17646192Y68146890D01*
X17646190Y68146887D01*
X17586564Y68043615D01*
X17555700Y67928425D01*
X17555700Y67193731D01*
X17536015Y67126692D01*
X17483211Y67080937D01*
X17414053Y67070993D01*
X17407509Y67072114D01*
X17367360Y67080100D01*
X16702245Y67080100D01*
X16657641Y67071228D01*
X16657638Y67071227D01*
X16607066Y67037435D01*
X16573271Y66986857D01*
X16573270Y66986855D01*
X16564400Y66942260D01*
X16564400Y66670700D01*
X16544715Y66603661D01*
X16491911Y66557906D01*
X16440400Y66546700D01*
X15917699Y66546700D01*
X15850660Y66566385D01*
X15804905Y66619189D01*
X15793699Y66670700D01*
X15793699Y66807255D01*
X15793698Y66807260D01*
X15784828Y66851858D01*
X15784826Y66851860D01*
X15784826Y66851862D01*
X15751034Y66902434D01*
X15700459Y66936227D01*
X15700458Y66936228D01*
X15700457Y66936229D01*
X15700456Y66936229D01*
X15700454Y66936230D01*
X15655859Y66945100D01*
X14525745Y66945100D01*
X14481141Y66936228D01*
X14481138Y66936227D01*
X14430566Y66902435D01*
X14396771Y66851857D01*
X14396770Y66851855D01*
X14387900Y66807260D01*
X14093698Y66807260D01*
X14084828Y66851858D01*
X14084826Y66851860D01*
X14084826Y66851862D01*
X14051034Y66902434D01*
X14000459Y66936227D01*
X14000458Y66936228D01*
X14000457Y66936229D01*
X14000456Y66936229D01*
X14000454Y66936230D01*
X13955859Y66945100D01*
X12825745Y66945100D01*
X12781141Y66936228D01*
X12781138Y66936227D01*
X12730566Y66902435D01*
X12696771Y66851857D01*
X12696770Y66851855D01*
X12687900Y66807260D01*
X12687900Y65777146D01*
X12696772Y65732542D01*
X12696773Y65732539D01*
X12730565Y65681967D01*
X12730566Y65681966D01*
X12781142Y65648172D01*
X12781143Y65648172D01*
X12781145Y65648171D01*
X12803442Y65643736D01*
X12825743Y65639300D01*
X13012300Y65639301D01*
X13079339Y65619617D01*
X13125094Y65566813D01*
X13136300Y65515301D01*
X13136300Y65400179D01*
X13136301Y65400174D01*
X13175042Y65306640D01*
X16521069Y61960613D01*
X16533694Y61950252D01*
X16593327Y61890619D01*
X16593340Y61890604D01*
X16600401Y61883543D01*
X16671543Y61812401D01*
X16725993Y61789848D01*
X16764495Y61773899D01*
X16764497Y61773899D01*
X16879539Y61773899D01*
X16879547Y61773900D01*
X19033121Y61773900D01*
X19049370Y61772300D01*
X19053377Y61772300D01*
X25982683Y61772300D01*
X26049722Y61752615D01*
X26070364Y61735981D01*
X27507962Y60298383D01*
X27541447Y60237060D01*
X27536463Y60167368D01*
X27494591Y60111435D01*
X27487321Y60106387D01*
X27383190Y60039466D01*
X27383189Y60039466D01*
X27296999Y59939998D01*
X27296998Y59939996D01*
X27296998Y59939995D01*
X27290794Y59926410D01*
X27245038Y59873607D01*
X27177998Y59853923D01*
X27110959Y59873608D01*
X27065206Y59926410D01*
X27059002Y59939996D01*
X26972812Y60039464D01*
X26862091Y60110620D01*
X26862089Y60110621D01*
X26862087Y60110622D01*
X26862088Y60110622D01*
X26735809Y60147700D01*
X26735807Y60147700D01*
X26604193Y60147700D01*
X26604190Y60147700D01*
X26477911Y60110622D01*
X26367189Y60039465D01*
X26280999Y59939998D01*
X26280997Y59939995D01*
X26226324Y59820279D01*
X26226323Y59820274D01*
X26207593Y59690000D01*
X26207593Y59689997D01*
X26211642Y59661830D01*
X26201697Y59592671D01*
X26176585Y59556505D01*
X25838899Y59218818D01*
X25777578Y59185334D01*
X25751220Y59182500D01*
X21070865Y59182500D01*
X21070857Y59182501D01*
X21056423Y59182501D01*
X20955177Y59182501D01*
X20955176Y59182501D01*
X20861635Y59143754D01*
X19361900Y57644019D01*
X19300577Y57610534D01*
X19274219Y57607700D01*
X19161990Y57607700D01*
X19035711Y57570622D01*
X18924989Y57499465D01*
X18838799Y57399998D01*
X18838797Y57399995D01*
X18784124Y57280279D01*
X18784123Y57280274D01*
X18765393Y57150000D01*
X18784123Y57019727D01*
X18784124Y57019722D01*
X18838797Y56900006D01*
X18838798Y56900004D01*
X18924988Y56800536D01*
X19035709Y56729380D01*
X19035712Y56729379D01*
X19035711Y56729379D01*
X19161990Y56692301D01*
X19161992Y56692300D01*
X19161993Y56692300D01*
X19293608Y56692300D01*
X19293608Y56692301D01*
X19391604Y56721075D01*
X19419888Y56729379D01*
X19419888Y56729380D01*
X19419891Y56729380D01*
X19530612Y56800536D01*
X19616802Y56900004D01*
X19666962Y57009841D01*
X19671475Y57019722D01*
X19671476Y57019727D01*
X19673716Y57035302D01*
X19690207Y57150000D01*
X19686157Y57178167D01*
X19696099Y57247325D01*
X19721210Y57283494D01*
X21074899Y58637181D01*
X21136222Y58670666D01*
X21162580Y58673500D01*
X25958621Y58673500D01*
X25958623Y58673500D01*
X26005393Y58692873D01*
X26052160Y58712243D01*
X26052161Y58712245D01*
X26052163Y58712245D01*
X26535898Y59195982D01*
X26597221Y59229466D01*
X26623579Y59232300D01*
X26735808Y59232300D01*
X26735808Y59232301D01*
X26862091Y59269380D01*
X26972812Y59340536D01*
X27059002Y59440004D01*
X27065207Y59453592D01*
X27110960Y59506393D01*
X27177999Y59526078D01*
X27245039Y59506394D01*
X27290793Y59453592D01*
X27296998Y59440004D01*
X27375389Y59349536D01*
X27383190Y59340534D01*
X27388702Y59335758D01*
X27426477Y59276980D01*
X27431500Y59242045D01*
X27431500Y57550955D01*
X27411815Y57483916D01*
X27395181Y57463274D01*
X26677101Y56745194D01*
X26615778Y56711709D01*
X26589420Y56708875D01*
X24856152Y56708875D01*
X24789113Y56728560D01*
X24743358Y56781364D01*
X24733414Y56850522D01*
X24762439Y56914078D01*
X24768471Y56920556D01*
X24824271Y56976356D01*
X24885594Y57009841D01*
X24911952Y57012675D01*
X25628421Y57012675D01*
X25628423Y57012675D01*
X25683038Y57035297D01*
X25721960Y57051418D01*
X25721961Y57051420D01*
X25721963Y57051420D01*
X26377967Y57707427D01*
X26439290Y57740911D01*
X26500582Y57738722D01*
X26604190Y57708301D01*
X26604192Y57708300D01*
X26604193Y57708300D01*
X26735808Y57708300D01*
X26735808Y57708301D01*
X26862091Y57745380D01*
X26972812Y57816536D01*
X27059002Y57916004D01*
X27113676Y58035725D01*
X27132407Y58166000D01*
X27113676Y58296275D01*
X27113675Y58296276D01*
X27113675Y58296279D01*
X27059002Y58415995D01*
X27059002Y58415996D01*
X26972812Y58515464D01*
X26862091Y58586620D01*
X26862089Y58586621D01*
X26862087Y58586622D01*
X26862088Y58586622D01*
X26735809Y58623700D01*
X26735807Y58623700D01*
X26604193Y58623700D01*
X26604190Y58623700D01*
X26477911Y58586622D01*
X26367189Y58515465D01*
X26280999Y58415998D01*
X26280998Y58415997D01*
X26280998Y58415996D01*
X26226324Y58296275D01*
X26226323Y58296274D01*
X26222641Y58288209D01*
X26221510Y58288726D01*
X26195357Y58244651D01*
X25508701Y57557994D01*
X25447378Y57524509D01*
X25421020Y57521675D01*
X24820237Y57521675D01*
X24820229Y57521676D01*
X24805795Y57521676D01*
X24704549Y57521676D01*
X24704548Y57521676D01*
X24650925Y57499464D01*
X24613390Y57483916D01*
X24611007Y57482929D01*
X24264100Y57136022D01*
X24202777Y57102537D01*
X24176419Y57099703D01*
X24064190Y57099703D01*
X23937911Y57062625D01*
X23827189Y56991468D01*
X23740999Y56892001D01*
X23740997Y56891998D01*
X23686324Y56772282D01*
X23686323Y56772277D01*
X23667593Y56642003D01*
X23686323Y56511730D01*
X23686324Y56511725D01*
X23740997Y56392009D01*
X23740999Y56392006D01*
X23784152Y56342205D01*
X23813177Y56278649D01*
X23803233Y56209491D01*
X23784153Y56179800D01*
X23740999Y56129998D01*
X23740997Y56129995D01*
X23686324Y56010279D01*
X23686323Y56010274D01*
X23667593Y55880000D01*
X23686323Y55749727D01*
X23686324Y55749722D01*
X23740997Y55630006D01*
X23741002Y55629999D01*
X23799500Y55562489D01*
X23828526Y55498934D01*
X23818583Y55429775D01*
X23799501Y55400084D01*
X23772704Y55369159D01*
X23772699Y55369152D01*
X23718026Y55249436D01*
X23718025Y55249431D01*
X23699295Y55119157D01*
X23718025Y54988884D01*
X23718026Y54988879D01*
X23743278Y54933586D01*
X23772700Y54869161D01*
X23797033Y54841079D01*
X23826059Y54777524D01*
X23816116Y54708366D01*
X23797034Y54678674D01*
X23736254Y54608530D01*
X23736249Y54608523D01*
X23681576Y54488807D01*
X23681575Y54488802D01*
X23662845Y54358528D01*
X23681575Y54228255D01*
X23681576Y54228250D01*
X23736249Y54108534D01*
X23736251Y54108531D01*
X23798580Y54036600D01*
X23827605Y53973044D01*
X23817662Y53903886D01*
X23798580Y53874195D01*
X23744010Y53811218D01*
X23744005Y53811211D01*
X23689332Y53691495D01*
X23689331Y53691490D01*
X23670601Y53561216D01*
X23689331Y53430943D01*
X23689332Y53430938D01*
X23744005Y53311222D01*
X23744010Y53311215D01*
X23801529Y53244835D01*
X23830555Y53181280D01*
X23820612Y53112121D01*
X23801530Y53082430D01*
X23746616Y53019056D01*
X23746611Y53019049D01*
X23691938Y52899333D01*
X23691937Y52899328D01*
X23673207Y52769054D01*
X23691937Y52638781D01*
X23691938Y52638776D01*
X23746611Y52519060D01*
X23746612Y52519058D01*
X23761999Y52501300D01*
X23826812Y52426503D01*
X23855837Y52362947D01*
X23845894Y52293789D01*
X23800139Y52240985D01*
X23733099Y52221300D01*
X20765147Y52221300D01*
X20765139Y52221301D01*
X20750705Y52221301D01*
X20650095Y52221301D01*
X20650093Y52221301D01*
X20611593Y52205353D01*
X20557143Y52182800D01*
X20481670Y52107326D01*
X11849884Y43475540D01*
X11849873Y43475531D01*
X11849874Y43475530D01*
X11774400Y43400057D01*
X11751847Y43345607D01*
X11735899Y43307107D01*
X11735899Y43192062D01*
X11735900Y43192053D01*
X11735900Y40016125D01*
X11716215Y39949086D01*
X11693101Y39922411D01*
X11689161Y39918998D01*
X11603881Y39820579D01*
X11603878Y39820573D01*
X11549776Y39702109D01*
X11531243Y39573200D01*
X1372067Y39573200D01*
X1372070Y42987345D01*
X8267200Y42987345D01*
X8267200Y42864656D01*
X8291132Y42744344D01*
X8291134Y42744336D01*
X8338080Y42630997D01*
X8338085Y42630988D01*
X8406239Y42528989D01*
X8406242Y42528985D01*
X8492984Y42442243D01*
X8492988Y42442240D01*
X8594987Y42374086D01*
X8594993Y42374083D01*
X8594994Y42374082D01*
X8708336Y42327134D01*
X8828655Y42303201D01*
X8828658Y42303200D01*
X8828660Y42303200D01*
X8951342Y42303200D01*
X8951343Y42303201D01*
X9071664Y42327134D01*
X9185006Y42374082D01*
X9287012Y42442240D01*
X9373760Y42528988D01*
X9441918Y42630994D01*
X9488866Y42744336D01*
X9512800Y42864660D01*
X9512800Y42987340D01*
X9512800Y42987343D01*
X9512799Y42987345D01*
X9488867Y43107657D01*
X9488866Y43107664D01*
X9447929Y43206495D01*
X9441919Y43221004D01*
X9441914Y43221013D01*
X9373760Y43323012D01*
X9373757Y43323016D01*
X9287015Y43409758D01*
X9287011Y43409761D01*
X9185012Y43477915D01*
X9185003Y43477920D01*
X9071664Y43524866D01*
X9071656Y43524868D01*
X8951343Y43548800D01*
X8951340Y43548800D01*
X8828660Y43548800D01*
X8828657Y43548800D01*
X8708343Y43524868D01*
X8708335Y43524866D01*
X8594996Y43477920D01*
X8594987Y43477915D01*
X8492988Y43409761D01*
X8492984Y43409758D01*
X8406242Y43323016D01*
X8406239Y43323012D01*
X8338085Y43221013D01*
X8338080Y43221004D01*
X8291134Y43107665D01*
X8291132Y43107657D01*
X8267200Y42987345D01*
X1372070Y42987345D01*
X1372077Y50800000D01*
X3556000Y50800000D01*
X6604000Y50800000D01*
X6604000Y53848000D01*
X3556000Y53848000D01*
X3556000Y50800000D01*
X1372077Y50800000D01*
X1372086Y60960000D01*
X7411593Y60960000D01*
X7430323Y60829727D01*
X7430325Y60829719D01*
X7484994Y60710011D01*
X7484996Y60710008D01*
X7484998Y60710004D01*
X7485000Y60710001D01*
X7485002Y60709999D01*
X7490811Y60703295D01*
X7519838Y60639740D01*
X7521100Y60622091D01*
X7521100Y56217910D01*
X7501415Y56150871D01*
X7490814Y56136708D01*
X7484999Y56129998D01*
X7484997Y56129995D01*
X7430324Y56010279D01*
X7430323Y56010274D01*
X7411593Y55880000D01*
X7430323Y55749727D01*
X7430324Y55749722D01*
X7476724Y55648122D01*
X7484998Y55630004D01*
X7571188Y55530536D01*
X7681909Y55459380D01*
X7681912Y55459379D01*
X7681911Y55459379D01*
X7779906Y55430606D01*
X7785582Y55428939D01*
X7808190Y55422301D01*
X7808192Y55422300D01*
X7808193Y55422300D01*
X7939808Y55422300D01*
X7939808Y55422301D01*
X8066091Y55459380D01*
X8176812Y55530536D01*
X8263002Y55630004D01*
X8317676Y55749725D01*
X8336407Y55880000D01*
X8317676Y56010275D01*
X8317675Y56010276D01*
X8317675Y56010279D01*
X8282456Y56087396D01*
X8263002Y56129996D01*
X8257185Y56136709D01*
X8228162Y56200265D01*
X8226900Y56217910D01*
X8226900Y60622091D01*
X8246585Y60689130D01*
X8257189Y60703295D01*
X8259708Y60706203D01*
X8263002Y60710004D01*
X8274486Y60735152D01*
X8317674Y60829719D01*
X8317676Y60829727D01*
X8336407Y60960000D01*
X8317676Y61090275D01*
X8317675Y61090276D01*
X8317675Y61090279D01*
X8263002Y61209995D01*
X8263002Y61209996D01*
X8176812Y61309464D01*
X8066091Y61380620D01*
X8066089Y61380621D01*
X8066087Y61380622D01*
X8066088Y61380622D01*
X7939809Y61417700D01*
X7939807Y61417700D01*
X7808193Y61417700D01*
X7808190Y61417700D01*
X7681911Y61380622D01*
X7571189Y61309465D01*
X7484999Y61209998D01*
X7484997Y61209995D01*
X7430324Y61090279D01*
X7430323Y61090274D01*
X7411593Y60960000D01*
X1372086Y60960000D01*
X1372093Y69596001D01*
X3949678Y69596001D01*
X3949678Y69596000D01*
X3968923Y69388309D01*
X3968923Y69388307D01*
X3968924Y69388304D01*
X4013228Y69232591D01*
X4026007Y69187678D01*
X4081400Y69076435D01*
X4118981Y69000962D01*
X4244682Y68834507D01*
X4398829Y68693984D01*
X4576172Y68584177D01*
X4770673Y68508827D01*
X4975707Y68470500D01*
X4975710Y68470500D01*
X5184290Y68470500D01*
X5184293Y68470500D01*
X5389327Y68508827D01*
X5583828Y68584177D01*
X5761171Y68693984D01*
X5915318Y68834507D01*
X6041019Y69000962D01*
X6133994Y69187681D01*
X6191076Y69388304D01*
X6210322Y69596000D01*
X6191076Y69803696D01*
X6133994Y70004319D01*
X6041019Y70191038D01*
X5915318Y70357493D01*
X5761171Y70498016D01*
X5583828Y70607823D01*
X5583827Y70607824D01*
X5424807Y70669428D01*
X5389327Y70683173D01*
X5184293Y70721500D01*
X4975707Y70721500D01*
X4770673Y70683173D01*
X4770670Y70683173D01*
X4770670Y70683172D01*
X4576172Y70607824D01*
X4576171Y70607823D01*
X4398827Y70498015D01*
X4244683Y70357495D01*
X4118981Y70191039D01*
X4026007Y70004323D01*
X3998376Y69907210D01*
X3980666Y69844963D01*
X3968923Y69803692D01*
X3949678Y69596001D01*
X1372093Y69596001D01*
X1372098Y75438000D01*
X2432163Y75438000D01*
X2451464Y75118899D01*
X2451464Y75118894D01*
X2451465Y75118893D01*
X2509091Y74804440D01*
X2509092Y74804436D01*
X2509093Y74804432D01*
X2604193Y74499244D01*
X2604197Y74499233D01*
X2604198Y74499230D01*
X2604200Y74499225D01*
X2735405Y74207699D01*
X2899076Y73936955D01*
X2900792Y73934116D01*
X2900798Y73934107D01*
X3097954Y73682457D01*
X3324003Y73456408D01*
X3324007Y73456405D01*
X3575661Y73259246D01*
X3849246Y73093858D01*
X4140772Y72962653D01*
X4140782Y72962650D01*
X4140790Y72962647D01*
X4266171Y72923577D01*
X4445987Y72867544D01*
X4760440Y72809918D01*
X5079547Y72790616D01*
X5398654Y72809918D01*
X5713107Y72867544D01*
X5994180Y72955130D01*
X6018303Y72962647D01*
X6018304Y72962648D01*
X6018322Y72962653D01*
X6309848Y73093858D01*
X6583433Y73259246D01*
X6835087Y73456405D01*
X7061142Y73682460D01*
X7258301Y73934114D01*
X7423689Y74207699D01*
X7554894Y74499225D01*
X7650003Y74804440D01*
X7707629Y75118893D01*
X7726931Y75438000D01*
X7707629Y75757107D01*
X7650003Y76071560D01*
X7567719Y76335618D01*
X7554900Y76376757D01*
X7554896Y76376768D01*
X7554894Y76376775D01*
X7475042Y76554200D01*
X19684860Y76554200D01*
X19704963Y76362932D01*
X19704964Y76362930D01*
X19764390Y76180033D01*
X19764393Y76180027D01*
X19842700Y76044394D01*
X19860553Y76013473D01*
X19989240Y75870551D01*
X20062164Y75817569D01*
X20144825Y75757512D01*
X20144830Y75757509D01*
X20320517Y75679287D01*
X20320523Y75679285D01*
X20508640Y75639300D01*
X20508641Y75639300D01*
X20700959Y75639300D01*
X20700960Y75639300D01*
X20889077Y75679285D01*
X20889079Y75679287D01*
X20889082Y75679287D01*
X20949677Y75706266D01*
X21064770Y75757509D01*
X21220360Y75870551D01*
X21349047Y76013473D01*
X21445207Y76180027D01*
X21504637Y76362934D01*
X21524740Y76554200D01*
X22224860Y76554200D01*
X22244963Y76362932D01*
X22244964Y76362930D01*
X22304390Y76180033D01*
X22304393Y76180027D01*
X22382700Y76044394D01*
X22400553Y76013473D01*
X22529240Y75870551D01*
X22602164Y75817569D01*
X22684825Y75757512D01*
X22684830Y75757509D01*
X22860517Y75679287D01*
X22860523Y75679285D01*
X23048640Y75639300D01*
X23048641Y75639300D01*
X23240959Y75639300D01*
X23240960Y75639300D01*
X23429077Y75679285D01*
X23429079Y75679287D01*
X23429082Y75679287D01*
X23489677Y75706266D01*
X23604770Y75757509D01*
X23760360Y75870551D01*
X23889047Y76013473D01*
X23985207Y76180027D01*
X24044637Y76362934D01*
X24064740Y76554200D01*
X24044637Y76745466D01*
X23997649Y76890081D01*
X23985209Y76928368D01*
X23985206Y76928374D01*
X23983251Y76931760D01*
X23889047Y77094927D01*
X23848946Y77139464D01*
X23760364Y77237845D01*
X23760362Y77237847D01*
X23760360Y77237849D01*
X23651715Y77316784D01*
X23604774Y77350889D01*
X23604769Y77350892D01*
X23429082Y77429114D01*
X23429076Y77429116D01*
X23280944Y77460602D01*
X23240960Y77469100D01*
X23048640Y77469100D01*
X23015664Y77462092D01*
X22860523Y77429116D01*
X22860517Y77429114D01*
X22684830Y77350892D01*
X22684825Y77350889D01*
X22529241Y77237850D01*
X22529235Y77237845D01*
X22400552Y77094927D01*
X22304393Y76928374D01*
X22304390Y76928368D01*
X22244964Y76745471D01*
X22244963Y76745469D01*
X22224860Y76554200D01*
X21524740Y76554200D01*
X21504637Y76745466D01*
X21457649Y76890081D01*
X21445209Y76928368D01*
X21445206Y76928374D01*
X21443251Y76931760D01*
X21349047Y77094927D01*
X21308946Y77139464D01*
X21220364Y77237845D01*
X21220362Y77237847D01*
X21220360Y77237849D01*
X21111715Y77316784D01*
X21064774Y77350889D01*
X21064769Y77350892D01*
X20889082Y77429114D01*
X20889076Y77429116D01*
X20740944Y77460602D01*
X20700960Y77469100D01*
X20508640Y77469100D01*
X20475664Y77462092D01*
X20320523Y77429116D01*
X20320517Y77429114D01*
X20144830Y77350892D01*
X20144825Y77350889D01*
X19989241Y77237850D01*
X19989235Y77237845D01*
X19860552Y77094927D01*
X19764393Y76928374D01*
X19764390Y76928368D01*
X19704964Y76745471D01*
X19704963Y76745469D01*
X19684860Y76554200D01*
X7475042Y76554200D01*
X7423689Y76668301D01*
X7258301Y76941886D01*
X7131697Y77103483D01*
X7061139Y77193544D01*
X6835090Y77419593D01*
X6583440Y77616749D01*
X6583435Y77616752D01*
X6583433Y77616754D01*
X6309848Y77782142D01*
X6018322Y77913347D01*
X6018317Y77913349D01*
X6018314Y77913350D01*
X6018303Y77913354D01*
X5713115Y78008454D01*
X5713111Y78008455D01*
X5713107Y78008456D01*
X5398654Y78066082D01*
X5398653Y78066083D01*
X5398648Y78066083D01*
X5079547Y78085384D01*
X4760445Y78066083D01*
X4760440Y78066082D01*
X4445987Y78008456D01*
X4445984Y78008456D01*
X4445978Y78008454D01*
X4140790Y77913354D01*
X4140779Y77913350D01*
X3887581Y77799395D01*
X3849246Y77782142D01*
X3754642Y77724952D01*
X3575662Y77616755D01*
X3575653Y77616749D01*
X3324003Y77419593D01*
X3097954Y77193544D01*
X2900798Y76941894D01*
X2900792Y76941885D01*
X2868562Y76888570D01*
X2747250Y76687894D01*
X2735404Y76668299D01*
X2735403Y76668297D01*
X2604197Y76376768D01*
X2604193Y76376757D01*
X2509093Y76071569D01*
X2509091Y76071563D01*
X2509091Y76071560D01*
X2466989Y75841817D01*
X2451464Y75757102D01*
X2432163Y75438000D01*
X1372098Y75438000D01*
X1372099Y77103500D01*
X1373033Y77118663D01*
X1405827Y77384246D01*
X1408403Y77398338D01*
X1472190Y77660475D01*
X1476377Y77674173D01*
X1570031Y77927176D01*
X1575780Y77940314D01*
X1583208Y77954923D01*
X1698044Y78180791D01*
X1705264Y78193163D01*
X1854505Y78417900D01*
X1863116Y78429366D01*
X2037336Y78635354D01*
X2047204Y78645737D01*
X2244061Y78830207D01*
X2255059Y78839378D01*
X2471936Y78999874D01*
X2483911Y79007704D01*
X2717868Y79142049D01*
X2730688Y79148454D01*
X2978599Y79254856D01*
X2992067Y79259734D01*
X3250619Y79336773D01*
X3264571Y79340064D01*
X3530289Y79386701D01*
X3544516Y79388357D01*
X3817666Y79404194D01*
X3824842Y79404401D01*
X3824978Y79404401D01*
X58106152Y79399931D01*
G37*
G04 #@! TD.AperFunction*
M02*
