G04 #@! TF.GenerationSoftware,KiCad,Pcbnew,8.99.0-unknown-bf16f757ed~178~ubuntu22.04.1*
G04 #@! TF.CreationDate,2024-04-23T09:45:43-07:00*
G04 #@! TF.ProjectId,rps_v4.0.0,7270735f-7634-42e3-902e-302e6b696361,rev?*
G04 #@! TF.SameCoordinates,PX6b4f310PY82524e0*
G04 #@! TF.FileFunction,Soldermask,Top*
G04 #@! TF.FilePolarity,Negative*
%FSLAX46Y46*%
G04 Gerber Fmt 4.6, Leading zero omitted, Abs format (unit mm)*
G04 Created by KiCad (PCBNEW 8.99.0-unknown-bf16f757ed~178~ubuntu22.04.1) date 2024-04-23 09:45:43*
%MOMM*%
%LPD*%
G01*
G04 APERTURE LIST*
G04 Aperture macros list*
%AMRoundRect*
0 Rectangle with rounded corners*
0 $1 Rounding radius*
0 $2 $3 $4 $5 $6 $7 $8 $9 X,Y pos of 4 corners*
0 Add a 4 corners polygon primitive as box body*
4,1,4,$2,$3,$4,$5,$6,$7,$8,$9,$2,$3,0*
0 Add four circle primitives for the rounded corners*
1,1,$1+$1,$2,$3*
1,1,$1+$1,$4,$5*
1,1,$1+$1,$6,$7*
1,1,$1+$1,$8,$9*
0 Add four rect primitives between the rounded corners*
20,1,$1+$1,$2,$3,$4,$5,0*
20,1,$1+$1,$4,$5,$6,$7,0*
20,1,$1+$1,$6,$7,$8,$9,0*
20,1,$1+$1,$8,$9,$2,$3,0*%
G04 Aperture macros list end*
%ADD10C,0.010000*%
%ADD11C,0.000000*%
%ADD12R,2.000000X2.000000*%
%ADD13C,2.000000*%
%ADD14RoundRect,0.250000X-0.450000X0.350000X-0.450000X-0.350000X0.450000X-0.350000X0.450000X0.350000X0*%
%ADD15R,0.863600X1.092200*%
%ADD16C,1.879600*%
%ADD17C,1.727200*%
%ADD18R,1.193800X2.489200*%
%ADD19R,0.990600X0.711200*%
%ADD20C,2.250000*%
%ADD21R,0.655600X0.800000*%
%ADD22R,1.346200X0.900000*%
%ADD23RoundRect,0.102000X0.600000X0.600000X-0.600000X0.600000X-0.600000X-0.600000X0.600000X-0.600000X0*%
%ADD24C,1.270000*%
%ADD25R,0.800000X0.655600*%
%ADD26RoundRect,0.250000X0.450000X-0.350000X0.450000X0.350000X-0.450000X0.350000X-0.450000X-0.350000X0*%
%ADD27RoundRect,0.102000X0.400000X0.200000X-0.400000X0.200000X-0.400000X-0.200000X0.400000X-0.200000X0*%
%ADD28RoundRect,0.102000X0.200000X0.400000X-0.200000X0.400000X-0.200000X-0.400000X0.200000X-0.400000X0*%
%ADD29RoundRect,0.102000X0.725000X0.725000X-0.725000X0.725000X-0.725000X-0.725000X0.725000X-0.725000X0*%
%ADD30RoundRect,0.102000X0.350000X0.350000X-0.350000X0.350000X-0.350000X-0.350000X0.350000X-0.350000X0*%
%ADD31R,0.482600X1.422400*%
%ADD32R,0.558800X1.422400*%
%ADD33RoundRect,0.250000X-0.250000X-0.750000X0.250000X-0.750000X0.250000X0.750000X-0.250000X0.750000X0*%
%ADD34C,0.990600*%
%ADD35C,0.787400*%
G04 APERTURE END LIST*
D10*
X33845000Y53562000D02*
X33185000Y52902000D01*
X32195000Y52902000D01*
X32195000Y54552000D01*
X33845000Y54552000D01*
X33845000Y53562000D01*
G36*
X33845000Y53562000D02*
G01*
X33185000Y52902000D01*
X32195000Y52902000D01*
X32195000Y54552000D01*
X33845000Y54552000D01*
X33845000Y53562000D01*
G37*
D11*
G36*
X43713400Y47772800D02*
G01*
X44348400Y47137800D01*
X44348400Y45029600D01*
X42519600Y45029600D01*
X42519600Y47137800D01*
X43154600Y47772800D01*
X43154600Y48290000D01*
X43713400Y48290000D01*
X43713400Y47772800D01*
G37*
D12*
X4826000Y27980975D03*
D13*
X56816000Y27980975D03*
D14*
X38252400Y28965400D03*
X38252400Y26965400D03*
D15*
X13550900Y24932975D03*
X15405100Y24932975D03*
D16*
X20604800Y64314200D03*
X23144800Y64314200D03*
X25684800Y64314200D03*
X28224800Y64314200D03*
X30764800Y64314200D03*
X33304800Y64314200D03*
X35844800Y64314200D03*
X38384800Y64314200D03*
X38384800Y76554200D03*
X35844800Y76554200D03*
X33304800Y76554200D03*
X30764800Y76554200D03*
X28224800Y76554200D03*
X25684800Y76554200D03*
D17*
X23144800Y76554200D03*
X20604800Y76554200D03*
D18*
X48147600Y50929875D03*
X50647600Y50929875D03*
X53147600Y50929875D03*
X53147600Y56441675D03*
X50647600Y56441675D03*
X48147600Y56441675D03*
D19*
X11719999Y5687974D03*
X16220001Y5687974D03*
X11719999Y3537976D03*
X16220001Y3537976D03*
D20*
X5080000Y4866975D03*
D19*
X28737999Y5687974D03*
X33238001Y5687974D03*
X28737999Y3537976D03*
X33238001Y3537976D03*
D21*
X40320200Y50800000D03*
X41975800Y50800000D03*
D22*
X39116000Y57308750D03*
X39116000Y55187850D03*
D23*
X46854400Y24917400D03*
X48954400Y24917400D03*
D19*
X45755999Y5687974D03*
X50256001Y5687974D03*
X45755999Y3537976D03*
X50256001Y3537976D03*
D20*
X58166000Y69596000D03*
D24*
X28448000Y41315975D03*
X28448000Y38775975D03*
X30988000Y41315975D03*
X30988000Y38775975D03*
X33528000Y41315975D03*
X33528000Y38775975D03*
D25*
X41960800Y59312200D03*
X41960800Y57656600D03*
D26*
X23876000Y26940000D03*
X23876000Y28940000D03*
D21*
X45557200Y50825400D03*
X43901600Y50825400D03*
D27*
X36945000Y51702000D03*
X36945000Y52502000D03*
X36945000Y53302000D03*
X36945000Y54102000D03*
X36945000Y54902000D03*
X36945000Y55702000D03*
X36945000Y56502000D03*
X36945000Y57302000D03*
X36945000Y58102000D03*
X36945000Y58902000D03*
X36945000Y59702000D03*
D28*
X35845000Y60602000D03*
X35045000Y60602000D03*
X34245000Y60602000D03*
X33445000Y60602000D03*
X32645000Y60602000D03*
X31845000Y60602000D03*
X31045000Y60602000D03*
X30245000Y60602000D03*
X29445000Y60602000D03*
X28645000Y60602000D03*
X27845000Y60602000D03*
X27045000Y60602000D03*
X26245000Y60602000D03*
D27*
X25145000Y59702000D03*
X25145000Y58902000D03*
X25145000Y58102000D03*
X25145000Y57302000D03*
X25145000Y56502000D03*
X25145000Y55702000D03*
X25145000Y54902000D03*
X25145000Y54102000D03*
X25145000Y53302000D03*
X25145000Y52502000D03*
X25145000Y51702000D03*
D28*
X26245000Y50802000D03*
X27045000Y50802000D03*
X27845000Y50802000D03*
X28645000Y50802000D03*
X29445000Y50802000D03*
X30245000Y50802000D03*
X31045000Y50802000D03*
X31845000Y50802000D03*
X32645000Y50802000D03*
X33445000Y50802000D03*
X34245000Y50802000D03*
X35045000Y50802000D03*
X35845000Y50802000D03*
D29*
X31045000Y53727000D03*
X29070000Y53727000D03*
X29070000Y55702000D03*
X29070000Y57677000D03*
X31045000Y57677000D03*
X33020000Y57677000D03*
X33020000Y55702000D03*
X31045000Y55702000D03*
D30*
X25095000Y50752000D03*
X25095000Y60652000D03*
X36995000Y60652000D03*
X36995000Y50752000D03*
D20*
X5080000Y69596000D03*
D31*
X44934000Y49001200D03*
D32*
X43434000Y49001200D03*
D31*
X41934000Y49001200D03*
D33*
X39370000Y59690000D03*
D19*
X28737999Y25499974D03*
X33238001Y25499974D03*
X28737999Y23349976D03*
X33238001Y23349976D03*
D34*
X8890000Y42926000D03*
X9906000Y37846000D03*
X7874000Y37846000D03*
D35*
X8255000Y41656000D03*
X9525000Y41656000D03*
X8255000Y40386000D03*
X9525000Y40386000D03*
X8255000Y39116000D03*
X9525000Y39116000D03*
D12*
X56896000Y10454975D03*
D13*
X4906000Y10454975D03*
D12*
X56896000Y52578000D03*
D13*
X4906000Y52578000D03*
M02*
