M48
METRIC,TZ
T1C0.300
T2C0.305
T3C0.381
T4C0.500
T5C0.600
T6C0.750
T7C1.016
T8C1.020
%
G90
G05
T1
X10541Y58039
X10592Y60122
X11532Y38100
X11989Y39573
X12319Y37084
X12471Y57480
X12522Y59792
X12776Y16256
X24282Y66853
X26238Y52070
X28575Y73345
X28779Y66802
X28804Y62662
X29464Y66167
X31293Y66878
X31471Y70602
X31623Y69713
X31826Y74803
X33305Y70917
X34366Y71542
X34620Y62068
X35052Y70907
X35204Y69993
X35306Y58334
X37033Y66619
X43485Y59360
T2
X7874Y60960
X7874Y55880
X13513Y38862
X17678Y64186
X19228Y57150
X22276Y28321
X23876Y60706
X24125Y54359
X24130Y56642
X24130Y55880
X24133Y53561
X24136Y52769
X24162Y55119
X26670Y59690
X26670Y58166
X27686Y59690
X28270Y61915
X28829Y59401
X30212Y59704
X31344Y59782
X32645Y59690
X34595Y57166
X34595Y52975
X35814Y59436
X36017Y55778
X36093Y54585
X38406Y28022
T3
X39675Y71704
T4
X28932Y68047
T5
X20599Y68894
X24740Y68894
T6
X20605Y76554
X20605Y64314
X23145Y76554
X23145Y64314
X25685Y76554
X25685Y64314
X28225Y76554
X28225Y64314
X30765Y76554
X30765Y64314
X33305Y76554
X33305Y64314
X35845Y76554
X35845Y64314
X38385Y76554
X38385Y64314
T7
X28448Y41316
X28448Y38776
X30988Y41316
X30988Y38776
X33528Y41316
X33528Y38776
T8
X4826Y27981
X4906Y52578
X4906Y10455
X56816Y27981
X56896Y52578
X56896Y10455
M30
