G04 #@! TF.GenerationSoftware,KiCad,Pcbnew,8.99.0-unknown-bf16f757ed~178~ubuntu22.04.1*
G04 #@! TF.CreationDate,2024-04-23T09:45:43-07:00*
G04 #@! TF.ProjectId,rps_v4.0.0,7270735f-7634-42e3-902e-302e6b696361,rev?*
G04 #@! TF.SameCoordinates,PX6b4f310PY82524e0*
G04 #@! TF.FileFunction,Legend,Bot*
G04 #@! TF.FilePolarity,Positive*
%FSLAX46Y46*%
G04 Gerber Fmt 4.6, Leading zero omitted, Abs format (unit mm)*
G04 Created by KiCad (PCBNEW 8.99.0-unknown-bf16f757ed~178~ubuntu22.04.1) date 2024-04-23 09:45:43*
%MOMM*%
%LPD*%
G01*
G04 APERTURE LIST*
%ADD10C,0.100000*%
%ADD11C,0.127000*%
%ADD12C,0.150000*%
%ADD13C,0.120000*%
%ADD14C,0.203200*%
%ADD15C,0.152400*%
G04 APERTURE END LIST*
D10*
X59232800Y41265175D02*
X53187600Y41265175D01*
D11*
X8983047Y16304863D02*
X9744952Y16304863D01*
X10221142Y16304863D02*
X10983047Y16304863D01*
X11459237Y16019149D02*
X12221142Y16304863D01*
X12221142Y16304863D02*
X11459237Y16590577D01*
X51615038Y12600433D02*
X51662657Y12648052D01*
X51662657Y12648052D02*
X51757895Y12790909D01*
X51757895Y12790909D02*
X51805514Y12886147D01*
X51805514Y12886147D02*
X51853133Y13029004D01*
X51853133Y13029004D02*
X51900752Y13267100D01*
X51900752Y13267100D02*
X51900752Y13457576D01*
X51900752Y13457576D02*
X51853133Y13695671D01*
X51853133Y13695671D02*
X51805514Y13838528D01*
X51805514Y13838528D02*
X51757895Y13933766D01*
X51757895Y13933766D02*
X51662657Y14076624D01*
X51662657Y14076624D02*
X51615038Y14124243D01*
X51281704Y13029004D02*
X51138847Y12981385D01*
X51138847Y12981385D02*
X50900752Y12981385D01*
X50900752Y12981385D02*
X50805514Y13029004D01*
X50805514Y13029004D02*
X50757895Y13076624D01*
X50757895Y13076624D02*
X50710276Y13171862D01*
X50710276Y13171862D02*
X50710276Y13267100D01*
X50710276Y13267100D02*
X50757895Y13362338D01*
X50757895Y13362338D02*
X50805514Y13409957D01*
X50805514Y13409957D02*
X50900752Y13457576D01*
X50900752Y13457576D02*
X51091228Y13505195D01*
X51091228Y13505195D02*
X51186466Y13552814D01*
X51186466Y13552814D02*
X51234085Y13600433D01*
X51234085Y13600433D02*
X51281704Y13695671D01*
X51281704Y13695671D02*
X51281704Y13790909D01*
X51281704Y13790909D02*
X51234085Y13886147D01*
X51234085Y13886147D02*
X51186466Y13933766D01*
X51186466Y13933766D02*
X51091228Y13981385D01*
X51091228Y13981385D02*
X50853133Y13981385D01*
X50853133Y13981385D02*
X50710276Y13933766D01*
X50281704Y13505195D02*
X49948371Y13505195D01*
X49805514Y12981385D02*
X50281704Y12981385D01*
X50281704Y12981385D02*
X50281704Y13981385D01*
X50281704Y13981385D02*
X49805514Y13981385D01*
X48805514Y13076624D02*
X48853133Y13029004D01*
X48853133Y13029004D02*
X48995990Y12981385D01*
X48995990Y12981385D02*
X49091228Y12981385D01*
X49091228Y12981385D02*
X49234085Y13029004D01*
X49234085Y13029004D02*
X49329323Y13124243D01*
X49329323Y13124243D02*
X49376942Y13219481D01*
X49376942Y13219481D02*
X49424561Y13409957D01*
X49424561Y13409957D02*
X49424561Y13552814D01*
X49424561Y13552814D02*
X49376942Y13743290D01*
X49376942Y13743290D02*
X49329323Y13838528D01*
X49329323Y13838528D02*
X49234085Y13933766D01*
X49234085Y13933766D02*
X49091228Y13981385D01*
X49091228Y13981385D02*
X48995990Y13981385D01*
X48995990Y13981385D02*
X48853133Y13933766D01*
X48853133Y13933766D02*
X48805514Y13886147D01*
X47805514Y12981385D02*
X48138847Y13457576D01*
X48376942Y12981385D02*
X48376942Y13981385D01*
X48376942Y13981385D02*
X47995990Y13981385D01*
X47995990Y13981385D02*
X47900752Y13933766D01*
X47900752Y13933766D02*
X47853133Y13886147D01*
X47853133Y13886147D02*
X47805514Y13790909D01*
X47805514Y13790909D02*
X47805514Y13648052D01*
X47805514Y13648052D02*
X47853133Y13552814D01*
X47853133Y13552814D02*
X47900752Y13505195D01*
X47900752Y13505195D02*
X47995990Y13457576D01*
X47995990Y13457576D02*
X48376942Y13457576D01*
X47376942Y13505195D02*
X47043609Y13505195D01*
X46900752Y12981385D02*
X47376942Y12981385D01*
X47376942Y12981385D02*
X47376942Y13981385D01*
X47376942Y13981385D02*
X46900752Y13981385D01*
X46615037Y13981385D02*
X46043609Y13981385D01*
X46329323Y12981385D02*
X46329323Y13981385D01*
X45234085Y12981385D02*
X45710275Y12981385D01*
X45710275Y12981385D02*
X45710275Y13981385D01*
X44710275Y13457576D02*
X44710275Y12981385D01*
X45043608Y13981385D02*
X44710275Y13457576D01*
X44710275Y13457576D02*
X44376942Y13981385D01*
X42805513Y12981385D02*
X43281703Y12981385D01*
X43281703Y12981385D02*
X43281703Y13981385D01*
X42472179Y13505195D02*
X42138846Y13505195D01*
X41995989Y12981385D02*
X42472179Y12981385D01*
X42472179Y12981385D02*
X42472179Y13981385D01*
X42472179Y13981385D02*
X41995989Y13981385D01*
X41710274Y13981385D02*
X41138846Y13981385D01*
X41424560Y12981385D02*
X41424560Y13981385D01*
X40186464Y13981385D02*
X39615036Y13981385D01*
X39900750Y12981385D02*
X39900750Y13981385D01*
X39281702Y12981385D02*
X39281702Y13981385D01*
X39281702Y13505195D02*
X38710274Y13505195D01*
X38710274Y12981385D02*
X38710274Y13981385D01*
X38234083Y13505195D02*
X37900750Y13505195D01*
X37757893Y12981385D02*
X38234083Y12981385D01*
X38234083Y12981385D02*
X38234083Y13981385D01*
X38234083Y13981385D02*
X37757893Y13981385D01*
X35995988Y12981385D02*
X36329321Y13457576D01*
X36567416Y12981385D02*
X36567416Y13981385D01*
X36567416Y13981385D02*
X36186464Y13981385D01*
X36186464Y13981385D02*
X36091226Y13933766D01*
X36091226Y13933766D02*
X36043607Y13886147D01*
X36043607Y13886147D02*
X35995988Y13790909D01*
X35995988Y13790909D02*
X35995988Y13648052D01*
X35995988Y13648052D02*
X36043607Y13552814D01*
X36043607Y13552814D02*
X36091226Y13505195D01*
X36091226Y13505195D02*
X36186464Y13457576D01*
X36186464Y13457576D02*
X36567416Y13457576D01*
X35567416Y12981385D02*
X35567416Y13981385D01*
X34567417Y13933766D02*
X34662655Y13981385D01*
X34662655Y13981385D02*
X34805512Y13981385D01*
X34805512Y13981385D02*
X34948369Y13933766D01*
X34948369Y13933766D02*
X35043607Y13838528D01*
X35043607Y13838528D02*
X35091226Y13743290D01*
X35091226Y13743290D02*
X35138845Y13552814D01*
X35138845Y13552814D02*
X35138845Y13409957D01*
X35138845Y13409957D02*
X35091226Y13219481D01*
X35091226Y13219481D02*
X35043607Y13124243D01*
X35043607Y13124243D02*
X34948369Y13029004D01*
X34948369Y13029004D02*
X34805512Y12981385D01*
X34805512Y12981385D02*
X34710274Y12981385D01*
X34710274Y12981385D02*
X34567417Y13029004D01*
X34567417Y13029004D02*
X34519798Y13076624D01*
X34519798Y13076624D02*
X34519798Y13409957D01*
X34519798Y13409957D02*
X34710274Y13409957D01*
X34091226Y12981385D02*
X34091226Y13981385D01*
X34091226Y13505195D02*
X33519798Y13505195D01*
X33519798Y12981385D02*
X33519798Y13981385D01*
X33186464Y13981385D02*
X32615036Y13981385D01*
X32900750Y12981385D02*
X32900750Y13981385D01*
X31519797Y12981385D02*
X31519797Y13981385D01*
X31519797Y13981385D02*
X31138845Y13981385D01*
X31138845Y13981385D02*
X31043607Y13933766D01*
X31043607Y13933766D02*
X30995988Y13886147D01*
X30995988Y13886147D02*
X30948369Y13790909D01*
X30948369Y13790909D02*
X30948369Y13648052D01*
X30948369Y13648052D02*
X30995988Y13552814D01*
X30995988Y13552814D02*
X31043607Y13505195D01*
X31043607Y13505195D02*
X31138845Y13457576D01*
X31138845Y13457576D02*
X31519797Y13457576D01*
X30519797Y13505195D02*
X30186464Y13505195D01*
X30043607Y12981385D02*
X30519797Y12981385D01*
X30519797Y12981385D02*
X30519797Y13981385D01*
X30519797Y13981385D02*
X30043607Y13981385D01*
X29043607Y12981385D02*
X29376940Y13457576D01*
X29615035Y12981385D02*
X29615035Y13981385D01*
X29615035Y13981385D02*
X29234083Y13981385D01*
X29234083Y13981385D02*
X29138845Y13933766D01*
X29138845Y13933766D02*
X29091226Y13886147D01*
X29091226Y13886147D02*
X29043607Y13790909D01*
X29043607Y13790909D02*
X29043607Y13648052D01*
X29043607Y13648052D02*
X29091226Y13552814D01*
X29091226Y13552814D02*
X29138845Y13505195D01*
X29138845Y13505195D02*
X29234083Y13457576D01*
X29234083Y13457576D02*
X29615035Y13457576D01*
X28662654Y13029004D02*
X28519797Y12981385D01*
X28519797Y12981385D02*
X28281702Y12981385D01*
X28281702Y12981385D02*
X28186464Y13029004D01*
X28186464Y13029004D02*
X28138845Y13076624D01*
X28138845Y13076624D02*
X28091226Y13171862D01*
X28091226Y13171862D02*
X28091226Y13267100D01*
X28091226Y13267100D02*
X28138845Y13362338D01*
X28138845Y13362338D02*
X28186464Y13409957D01*
X28186464Y13409957D02*
X28281702Y13457576D01*
X28281702Y13457576D02*
X28472178Y13505195D01*
X28472178Y13505195D02*
X28567416Y13552814D01*
X28567416Y13552814D02*
X28615035Y13600433D01*
X28615035Y13600433D02*
X28662654Y13695671D01*
X28662654Y13695671D02*
X28662654Y13790909D01*
X28662654Y13790909D02*
X28615035Y13886147D01*
X28615035Y13886147D02*
X28567416Y13933766D01*
X28567416Y13933766D02*
X28472178Y13981385D01*
X28472178Y13981385D02*
X28234083Y13981385D01*
X28234083Y13981385D02*
X28091226Y13933766D01*
X27472178Y13981385D02*
X27281702Y13981385D01*
X27281702Y13981385D02*
X27186464Y13933766D01*
X27186464Y13933766D02*
X27091226Y13838528D01*
X27091226Y13838528D02*
X27043607Y13648052D01*
X27043607Y13648052D02*
X27043607Y13314719D01*
X27043607Y13314719D02*
X27091226Y13124243D01*
X27091226Y13124243D02*
X27186464Y13029004D01*
X27186464Y13029004D02*
X27281702Y12981385D01*
X27281702Y12981385D02*
X27472178Y12981385D01*
X27472178Y12981385D02*
X27567416Y13029004D01*
X27567416Y13029004D02*
X27662654Y13124243D01*
X27662654Y13124243D02*
X27710273Y13314719D01*
X27710273Y13314719D02*
X27710273Y13648052D01*
X27710273Y13648052D02*
X27662654Y13838528D01*
X27662654Y13838528D02*
X27567416Y13933766D01*
X27567416Y13933766D02*
X27472178Y13981385D01*
X26615035Y12981385D02*
X26615035Y13981385D01*
X26615035Y13981385D02*
X26043607Y12981385D01*
X26043607Y12981385D02*
X26043607Y13981385D01*
X24805511Y12981385D02*
X24805511Y13981385D01*
X24234083Y12981385D02*
X24662654Y13552814D01*
X24234083Y13981385D02*
X24805511Y13409957D01*
X23805511Y12981385D02*
X23805511Y13981385D01*
X23805511Y13981385D02*
X23234083Y12981385D01*
X23234083Y12981385D02*
X23234083Y13981385D01*
X22567416Y13981385D02*
X22376940Y13981385D01*
X22376940Y13981385D02*
X22281702Y13933766D01*
X22281702Y13933766D02*
X22186464Y13838528D01*
X22186464Y13838528D02*
X22138845Y13648052D01*
X22138845Y13648052D02*
X22138845Y13314719D01*
X22138845Y13314719D02*
X22186464Y13124243D01*
X22186464Y13124243D02*
X22281702Y13029004D01*
X22281702Y13029004D02*
X22376940Y12981385D01*
X22376940Y12981385D02*
X22567416Y12981385D01*
X22567416Y12981385D02*
X22662654Y13029004D01*
X22662654Y13029004D02*
X22757892Y13124243D01*
X22757892Y13124243D02*
X22805511Y13314719D01*
X22805511Y13314719D02*
X22805511Y13648052D01*
X22805511Y13648052D02*
X22757892Y13838528D01*
X22757892Y13838528D02*
X22662654Y13933766D01*
X22662654Y13933766D02*
X22567416Y13981385D01*
X21805511Y13981385D02*
X21567416Y12981385D01*
X21567416Y12981385D02*
X21376940Y13695671D01*
X21376940Y13695671D02*
X21186464Y12981385D01*
X21186464Y12981385D02*
X20948369Y13981385D01*
X20567416Y13076624D02*
X20519797Y13029004D01*
X20519797Y13029004D02*
X20567416Y12981385D01*
X20567416Y12981385D02*
X20615035Y13029004D01*
X20615035Y13029004D02*
X20567416Y13076624D01*
X20567416Y13076624D02*
X20567416Y12981385D01*
X20091226Y13076624D02*
X20043607Y13029004D01*
X20043607Y13029004D02*
X20091226Y12981385D01*
X20091226Y12981385D02*
X20138845Y13029004D01*
X20138845Y13029004D02*
X20091226Y13076624D01*
X20091226Y13076624D02*
X20091226Y12981385D01*
X19615036Y13076624D02*
X19567417Y13029004D01*
X19567417Y13029004D02*
X19615036Y12981385D01*
X19615036Y12981385D02*
X19662655Y13029004D01*
X19662655Y13029004D02*
X19615036Y13076624D01*
X19615036Y13076624D02*
X19615036Y12981385D01*
X18805513Y13505195D02*
X19138846Y13505195D01*
X19138846Y12981385D02*
X19138846Y13981385D01*
X19138846Y13981385D02*
X18662656Y13981385D01*
X18091227Y13981385D02*
X17900751Y13981385D01*
X17900751Y13981385D02*
X17805513Y13933766D01*
X17805513Y13933766D02*
X17710275Y13838528D01*
X17710275Y13838528D02*
X17662656Y13648052D01*
X17662656Y13648052D02*
X17662656Y13314719D01*
X17662656Y13314719D02*
X17710275Y13124243D01*
X17710275Y13124243D02*
X17805513Y13029004D01*
X17805513Y13029004D02*
X17900751Y12981385D01*
X17900751Y12981385D02*
X18091227Y12981385D01*
X18091227Y12981385D02*
X18186465Y13029004D01*
X18186465Y13029004D02*
X18281703Y13124243D01*
X18281703Y13124243D02*
X18329322Y13314719D01*
X18329322Y13314719D02*
X18329322Y13648052D01*
X18329322Y13648052D02*
X18281703Y13838528D01*
X18281703Y13838528D02*
X18186465Y13933766D01*
X18186465Y13933766D02*
X18091227Y13981385D01*
X16662656Y12981385D02*
X16995989Y13457576D01*
X17234084Y12981385D02*
X17234084Y13981385D01*
X17234084Y13981385D02*
X16853132Y13981385D01*
X16853132Y13981385D02*
X16757894Y13933766D01*
X16757894Y13933766D02*
X16710275Y13886147D01*
X16710275Y13886147D02*
X16662656Y13790909D01*
X16662656Y13790909D02*
X16662656Y13648052D01*
X16662656Y13648052D02*
X16710275Y13552814D01*
X16710275Y13552814D02*
X16757894Y13505195D01*
X16757894Y13505195D02*
X16853132Y13457576D01*
X16853132Y13457576D02*
X17234084Y13457576D01*
X15519798Y13267100D02*
X15043608Y13267100D01*
X15615036Y12981385D02*
X15281703Y13981385D01*
X15281703Y13981385D02*
X14948370Y12981385D01*
X13853131Y12981385D02*
X13853131Y13981385D01*
X13853131Y13981385D02*
X13472179Y13981385D01*
X13472179Y13981385D02*
X13376941Y13933766D01*
X13376941Y13933766D02*
X13329322Y13886147D01*
X13329322Y13886147D02*
X13281703Y13790909D01*
X13281703Y13790909D02*
X13281703Y13648052D01*
X13281703Y13648052D02*
X13329322Y13552814D01*
X13329322Y13552814D02*
X13376941Y13505195D01*
X13376941Y13505195D02*
X13472179Y13457576D01*
X13472179Y13457576D02*
X13853131Y13457576D01*
X12281703Y12981385D02*
X12615036Y13457576D01*
X12853131Y12981385D02*
X12853131Y13981385D01*
X12853131Y13981385D02*
X12472179Y13981385D01*
X12472179Y13981385D02*
X12376941Y13933766D01*
X12376941Y13933766D02*
X12329322Y13886147D01*
X12329322Y13886147D02*
X12281703Y13790909D01*
X12281703Y13790909D02*
X12281703Y13648052D01*
X12281703Y13648052D02*
X12329322Y13552814D01*
X12329322Y13552814D02*
X12376941Y13505195D01*
X12376941Y13505195D02*
X12472179Y13457576D01*
X12472179Y13457576D02*
X12853131Y13457576D01*
X11853131Y12981385D02*
X11853131Y13981385D01*
X11472179Y13981385D02*
X10805513Y13981385D01*
X10805513Y13981385D02*
X11472179Y12981385D01*
X11472179Y12981385D02*
X10805513Y12981385D01*
X10424560Y13505195D02*
X10091227Y13505195D01*
X9948370Y12981385D02*
X10424560Y12981385D01*
X10424560Y12981385D02*
X10424560Y13981385D01*
X10424560Y13981385D02*
X9948370Y13981385D01*
X9615036Y12600433D02*
X9567417Y12648052D01*
X9567417Y12648052D02*
X9472179Y12790909D01*
X9472179Y12790909D02*
X9424560Y12886147D01*
X9424560Y12886147D02*
X9376941Y13029004D01*
X9376941Y13029004D02*
X9329322Y13267100D01*
X9329322Y13267100D02*
X9329322Y13457576D01*
X9329322Y13457576D02*
X9376941Y13695671D01*
X9376941Y13695671D02*
X9424560Y13838528D01*
X9424560Y13838528D02*
X9472179Y13933766D01*
X9472179Y13933766D02*
X9567417Y14076624D01*
X9567417Y14076624D02*
X9615036Y14124243D01*
X31036862Y52103953D02*
X31036862Y51342048D01*
X31036862Y50865858D02*
X31036862Y50103953D01*
X30751148Y49627763D02*
X31036862Y48865858D01*
X31036862Y48865858D02*
X31322576Y49627763D01*
X41175590Y24725585D02*
X40937495Y23725585D01*
X40937495Y23725585D02*
X40747019Y24439871D01*
X40747019Y24439871D02*
X40556543Y23725585D01*
X40556543Y23725585D02*
X40318448Y24725585D01*
X39937495Y23725585D02*
X39937495Y24725585D01*
X39937495Y24249395D02*
X39366067Y24249395D01*
X39366067Y23725585D02*
X39366067Y24725585D01*
X38937495Y24011300D02*
X38461305Y24011300D01*
X39032733Y23725585D02*
X38699400Y24725585D01*
X38699400Y24725585D02*
X38366067Y23725585D01*
X38175590Y24725585D02*
X37604162Y24725585D01*
X37889876Y23725585D02*
X37889876Y24725585D01*
X36508923Y23725585D02*
X36508923Y24725585D01*
X36508923Y24725585D02*
X36270828Y24725585D01*
X36270828Y24725585D02*
X36127971Y24677966D01*
X36127971Y24677966D02*
X36032733Y24582728D01*
X36032733Y24582728D02*
X35985114Y24487490D01*
X35985114Y24487490D02*
X35937495Y24297014D01*
X35937495Y24297014D02*
X35937495Y24154157D01*
X35937495Y24154157D02*
X35985114Y23963681D01*
X35985114Y23963681D02*
X36032733Y23868443D01*
X36032733Y23868443D02*
X36127971Y23773204D01*
X36127971Y23773204D02*
X36270828Y23725585D01*
X36270828Y23725585D02*
X36508923Y23725585D01*
X35318447Y24725585D02*
X35127971Y24725585D01*
X35127971Y24725585D02*
X35032733Y24677966D01*
X35032733Y24677966D02*
X34937495Y24582728D01*
X34937495Y24582728D02*
X34889876Y24392252D01*
X34889876Y24392252D02*
X34889876Y24058919D01*
X34889876Y24058919D02*
X34937495Y23868443D01*
X34937495Y23868443D02*
X35032733Y23773204D01*
X35032733Y23773204D02*
X35127971Y23725585D01*
X35127971Y23725585D02*
X35318447Y23725585D01*
X35318447Y23725585D02*
X35413685Y23773204D01*
X35413685Y23773204D02*
X35508923Y23868443D01*
X35508923Y23868443D02*
X35556542Y24058919D01*
X35556542Y24058919D02*
X35556542Y24392252D01*
X35556542Y24392252D02*
X35508923Y24582728D01*
X35508923Y24582728D02*
X35413685Y24677966D01*
X35413685Y24677966D02*
X35318447Y24725585D01*
X34461304Y24249395D02*
X34127971Y24249395D01*
X33985114Y23725585D02*
X34461304Y23725585D01*
X34461304Y23725585D02*
X34461304Y24725585D01*
X34461304Y24725585D02*
X33985114Y24725585D01*
X33604161Y23773204D02*
X33461304Y23725585D01*
X33461304Y23725585D02*
X33223209Y23725585D01*
X33223209Y23725585D02*
X33127971Y23773204D01*
X33127971Y23773204D02*
X33080352Y23820824D01*
X33080352Y23820824D02*
X33032733Y23916062D01*
X33032733Y23916062D02*
X33032733Y24011300D01*
X33032733Y24011300D02*
X33080352Y24106538D01*
X33080352Y24106538D02*
X33127971Y24154157D01*
X33127971Y24154157D02*
X33223209Y24201776D01*
X33223209Y24201776D02*
X33413685Y24249395D01*
X33413685Y24249395D02*
X33508923Y24297014D01*
X33508923Y24297014D02*
X33556542Y24344633D01*
X33556542Y24344633D02*
X33604161Y24439871D01*
X33604161Y24439871D02*
X33604161Y24535109D01*
X33604161Y24535109D02*
X33556542Y24630347D01*
X33556542Y24630347D02*
X33508923Y24677966D01*
X33508923Y24677966D02*
X33413685Y24725585D01*
X33413685Y24725585D02*
X33175590Y24725585D01*
X33175590Y24725585D02*
X33032733Y24677966D01*
X31985113Y24725585D02*
X31413685Y24725585D01*
X31699399Y23725585D02*
X31699399Y24725585D01*
X31080351Y23725585D02*
X31080351Y24725585D01*
X31080351Y24249395D02*
X30508923Y24249395D01*
X30508923Y23725585D02*
X30508923Y24725585D01*
X30032732Y23725585D02*
X30032732Y24725585D01*
X29604161Y23773204D02*
X29461304Y23725585D01*
X29461304Y23725585D02*
X29223209Y23725585D01*
X29223209Y23725585D02*
X29127971Y23773204D01*
X29127971Y23773204D02*
X29080352Y23820824D01*
X29080352Y23820824D02*
X29032733Y23916062D01*
X29032733Y23916062D02*
X29032733Y24011300D01*
X29032733Y24011300D02*
X29080352Y24106538D01*
X29080352Y24106538D02*
X29127971Y24154157D01*
X29127971Y24154157D02*
X29223209Y24201776D01*
X29223209Y24201776D02*
X29413685Y24249395D01*
X29413685Y24249395D02*
X29508923Y24297014D01*
X29508923Y24297014D02*
X29556542Y24344633D01*
X29556542Y24344633D02*
X29604161Y24439871D01*
X29604161Y24439871D02*
X29604161Y24535109D01*
X29604161Y24535109D02*
X29556542Y24630347D01*
X29556542Y24630347D02*
X29508923Y24677966D01*
X29508923Y24677966D02*
X29413685Y24725585D01*
X29413685Y24725585D02*
X29175590Y24725585D01*
X29175590Y24725585D02*
X29032733Y24677966D01*
X27985113Y24725585D02*
X27651780Y23725585D01*
X27651780Y23725585D02*
X27318447Y24725585D01*
X26985113Y23725585D02*
X26985113Y24725585D01*
X26556542Y24011300D02*
X26080352Y24011300D01*
X26651780Y23725585D02*
X26318447Y24725585D01*
X26318447Y24725585D02*
X25985114Y23725585D01*
X24889875Y23725585D02*
X24889875Y24725585D01*
X24889875Y24725585D02*
X24651780Y24725585D01*
X24651780Y24725585D02*
X24508923Y24677966D01*
X24508923Y24677966D02*
X24413685Y24582728D01*
X24413685Y24582728D02*
X24366066Y24487490D01*
X24366066Y24487490D02*
X24318447Y24297014D01*
X24318447Y24297014D02*
X24318447Y24154157D01*
X24318447Y24154157D02*
X24366066Y23963681D01*
X24366066Y23963681D02*
X24413685Y23868443D01*
X24413685Y23868443D02*
X24508923Y23773204D01*
X24508923Y23773204D02*
X24651780Y23725585D01*
X24651780Y23725585D02*
X24889875Y23725585D01*
X23699399Y24725585D02*
X23508923Y24725585D01*
X23508923Y24725585D02*
X23413685Y24677966D01*
X23413685Y24677966D02*
X23318447Y24582728D01*
X23318447Y24582728D02*
X23270828Y24392252D01*
X23270828Y24392252D02*
X23270828Y24058919D01*
X23270828Y24058919D02*
X23318447Y23868443D01*
X23318447Y23868443D02*
X23413685Y23773204D01*
X23413685Y23773204D02*
X23508923Y23725585D01*
X23508923Y23725585D02*
X23699399Y23725585D01*
X23699399Y23725585D02*
X23794637Y23773204D01*
X23794637Y23773204D02*
X23889875Y23868443D01*
X23889875Y23868443D02*
X23937494Y24058919D01*
X23937494Y24058919D02*
X23937494Y24392252D01*
X23937494Y24392252D02*
X23889875Y24582728D01*
X23889875Y24582728D02*
X23794637Y24677966D01*
X23794637Y24677966D02*
X23699399Y24725585D01*
X22699399Y23820824D02*
X22651780Y23773204D01*
X22651780Y23773204D02*
X22699399Y23725585D01*
X22699399Y23725585D02*
X22747018Y23773204D01*
X22747018Y23773204D02*
X22699399Y23820824D01*
X22699399Y23820824D02*
X22699399Y23725585D01*
X22889875Y24677966D02*
X22794637Y24725585D01*
X22794637Y24725585D02*
X22556542Y24725585D01*
X22556542Y24725585D02*
X22461304Y24677966D01*
X22461304Y24677966D02*
X22413685Y24582728D01*
X22413685Y24582728D02*
X22413685Y24487490D01*
X22413685Y24487490D02*
X22461304Y24392252D01*
X22461304Y24392252D02*
X22508923Y24344633D01*
X22508923Y24344633D02*
X22604161Y24297014D01*
X22604161Y24297014D02*
X22651780Y24249395D01*
X22651780Y24249395D02*
X22699399Y24154157D01*
X22699399Y24154157D02*
X22699399Y24106538D01*
X36911571Y43127675D02*
X36435381Y43127675D01*
X37006809Y42841960D02*
X36673476Y43841960D01*
X36673476Y43841960D02*
X36340143Y42841960D01*
X36006809Y42841960D02*
X36006809Y43508627D01*
X36006809Y43413389D02*
X35959190Y43461008D01*
X35959190Y43461008D02*
X35863952Y43508627D01*
X35863952Y43508627D02*
X35721095Y43508627D01*
X35721095Y43508627D02*
X35625857Y43461008D01*
X35625857Y43461008D02*
X35578238Y43365770D01*
X35578238Y43365770D02*
X35578238Y42841960D01*
X35578238Y43365770D02*
X35530619Y43461008D01*
X35530619Y43461008D02*
X35435381Y43508627D01*
X35435381Y43508627D02*
X35292524Y43508627D01*
X35292524Y43508627D02*
X35197285Y43461008D01*
X35197285Y43461008D02*
X35149666Y43365770D01*
X35149666Y43365770D02*
X35149666Y42841960D01*
X34292524Y42889579D02*
X34387762Y42841960D01*
X34387762Y42841960D02*
X34578238Y42841960D01*
X34578238Y42841960D02*
X34673476Y42889579D01*
X34673476Y42889579D02*
X34721095Y42984818D01*
X34721095Y42984818D02*
X34721095Y43365770D01*
X34721095Y43365770D02*
X34673476Y43461008D01*
X34673476Y43461008D02*
X34578238Y43508627D01*
X34578238Y43508627D02*
X34387762Y43508627D01*
X34387762Y43508627D02*
X34292524Y43461008D01*
X34292524Y43461008D02*
X34244905Y43365770D01*
X34244905Y43365770D02*
X34244905Y43270532D01*
X34244905Y43270532D02*
X34721095Y43175294D01*
X33816333Y42841960D02*
X33816333Y43508627D01*
X33816333Y43318151D02*
X33768714Y43413389D01*
X33768714Y43413389D02*
X33721095Y43461008D01*
X33721095Y43461008D02*
X33625857Y43508627D01*
X33625857Y43508627D02*
X33530619Y43508627D01*
X33197285Y42841960D02*
X33197285Y43508627D01*
X33197285Y43841960D02*
X33244904Y43794341D01*
X33244904Y43794341D02*
X33197285Y43746722D01*
X33197285Y43746722D02*
X33149666Y43794341D01*
X33149666Y43794341D02*
X33197285Y43841960D01*
X33197285Y43841960D02*
X33197285Y43746722D01*
X32292524Y42889579D02*
X32387762Y42841960D01*
X32387762Y42841960D02*
X32578238Y42841960D01*
X32578238Y42841960D02*
X32673476Y42889579D01*
X32673476Y42889579D02*
X32721095Y42937199D01*
X32721095Y42937199D02*
X32768714Y43032437D01*
X32768714Y43032437D02*
X32768714Y43318151D01*
X32768714Y43318151D02*
X32721095Y43413389D01*
X32721095Y43413389D02*
X32673476Y43461008D01*
X32673476Y43461008D02*
X32578238Y43508627D01*
X32578238Y43508627D02*
X32387762Y43508627D01*
X32387762Y43508627D02*
X32292524Y43461008D01*
X31435381Y42841960D02*
X31435381Y43365770D01*
X31435381Y43365770D02*
X31483000Y43461008D01*
X31483000Y43461008D02*
X31578238Y43508627D01*
X31578238Y43508627D02*
X31768714Y43508627D01*
X31768714Y43508627D02*
X31863952Y43461008D01*
X31435381Y42889579D02*
X31530619Y42841960D01*
X31530619Y42841960D02*
X31768714Y42841960D01*
X31768714Y42841960D02*
X31863952Y42889579D01*
X31863952Y42889579D02*
X31911571Y42984818D01*
X31911571Y42984818D02*
X31911571Y43080056D01*
X31911571Y43080056D02*
X31863952Y43175294D01*
X31863952Y43175294D02*
X31768714Y43222913D01*
X31768714Y43222913D02*
X31530619Y43222913D01*
X31530619Y43222913D02*
X31435381Y43270532D01*
X30911571Y43841960D02*
X31006809Y43651484D01*
X30530619Y42889579D02*
X30435381Y42841960D01*
X30435381Y42841960D02*
X30244905Y42841960D01*
X30244905Y42841960D02*
X30149667Y42889579D01*
X30149667Y42889579D02*
X30102048Y42984818D01*
X30102048Y42984818D02*
X30102048Y43032437D01*
X30102048Y43032437D02*
X30149667Y43127675D01*
X30149667Y43127675D02*
X30244905Y43175294D01*
X30244905Y43175294D02*
X30387762Y43175294D01*
X30387762Y43175294D02*
X30483000Y43222913D01*
X30483000Y43222913D02*
X30530619Y43318151D01*
X30530619Y43318151D02*
X30530619Y43365770D01*
X30530619Y43365770D02*
X30483000Y43461008D01*
X30483000Y43461008D02*
X30387762Y43508627D01*
X30387762Y43508627D02*
X30244905Y43508627D01*
X30244905Y43508627D02*
X30149667Y43461008D01*
X28578238Y43365770D02*
X28911571Y43365770D01*
X28911571Y42841960D02*
X28911571Y43841960D01*
X28911571Y43841960D02*
X28435381Y43841960D01*
X28054428Y42841960D02*
X28054428Y43508627D01*
X28054428Y43841960D02*
X28102047Y43794341D01*
X28102047Y43794341D02*
X28054428Y43746722D01*
X28054428Y43746722D02*
X28006809Y43794341D01*
X28006809Y43794341D02*
X28054428Y43841960D01*
X28054428Y43841960D02*
X28054428Y43746722D01*
X27578238Y43508627D02*
X27578238Y42841960D01*
X27578238Y43413389D02*
X27530619Y43461008D01*
X27530619Y43461008D02*
X27435381Y43508627D01*
X27435381Y43508627D02*
X27292524Y43508627D01*
X27292524Y43508627D02*
X27197286Y43461008D01*
X27197286Y43461008D02*
X27149667Y43365770D01*
X27149667Y43365770D02*
X27149667Y42841960D01*
X26292524Y42889579D02*
X26387762Y42841960D01*
X26387762Y42841960D02*
X26578238Y42841960D01*
X26578238Y42841960D02*
X26673476Y42889579D01*
X26673476Y42889579D02*
X26721095Y42984818D01*
X26721095Y42984818D02*
X26721095Y43365770D01*
X26721095Y43365770D02*
X26673476Y43461008D01*
X26673476Y43461008D02*
X26578238Y43508627D01*
X26578238Y43508627D02*
X26387762Y43508627D01*
X26387762Y43508627D02*
X26292524Y43461008D01*
X26292524Y43461008D02*
X26244905Y43365770D01*
X26244905Y43365770D02*
X26244905Y43270532D01*
X26244905Y43270532D02*
X26721095Y43175294D01*
X25863952Y42889579D02*
X25768714Y42841960D01*
X25768714Y42841960D02*
X25578238Y42841960D01*
X25578238Y42841960D02*
X25483000Y42889579D01*
X25483000Y42889579D02*
X25435381Y42984818D01*
X25435381Y42984818D02*
X25435381Y43032437D01*
X25435381Y43032437D02*
X25483000Y43127675D01*
X25483000Y43127675D02*
X25578238Y43175294D01*
X25578238Y43175294D02*
X25721095Y43175294D01*
X25721095Y43175294D02*
X25816333Y43222913D01*
X25816333Y43222913D02*
X25863952Y43318151D01*
X25863952Y43318151D02*
X25863952Y43365770D01*
X25863952Y43365770D02*
X25816333Y43461008D01*
X25816333Y43461008D02*
X25721095Y43508627D01*
X25721095Y43508627D02*
X25578238Y43508627D01*
X25578238Y43508627D02*
X25483000Y43461008D01*
X25149666Y43508627D02*
X24768714Y43508627D01*
X25006809Y43841960D02*
X25006809Y42984818D01*
X25006809Y42984818D02*
X24959190Y42889579D01*
X24959190Y42889579D02*
X24863952Y42841960D01*
X24863952Y42841960D02*
X24768714Y42841960D01*
X12875862Y23859153D02*
X12875862Y23097248D01*
X12875862Y22621058D02*
X12875862Y21859153D01*
X12590148Y21382963D02*
X12875862Y20621058D01*
X12875862Y20621058D02*
X13161576Y21382963D01*
X45271352Y32472585D02*
X45271352Y31663062D01*
X45271352Y31663062D02*
X45223733Y31567824D01*
X45223733Y31567824D02*
X45176114Y31520204D01*
X45176114Y31520204D02*
X45080876Y31472585D01*
X45080876Y31472585D02*
X44890400Y31472585D01*
X44890400Y31472585D02*
X44795162Y31520204D01*
X44795162Y31520204D02*
X44747543Y31567824D01*
X44747543Y31567824D02*
X44699924Y31663062D01*
X44699924Y31663062D02*
X44699924Y32472585D01*
X44223733Y31472585D02*
X44223733Y32472585D01*
X44223733Y32472585D02*
X43652305Y31472585D01*
X43652305Y31472585D02*
X43652305Y32472585D01*
X43223733Y31520204D02*
X43080876Y31472585D01*
X43080876Y31472585D02*
X42842781Y31472585D01*
X42842781Y31472585D02*
X42747543Y31520204D01*
X42747543Y31520204D02*
X42699924Y31567824D01*
X42699924Y31567824D02*
X42652305Y31663062D01*
X42652305Y31663062D02*
X42652305Y31758300D01*
X42652305Y31758300D02*
X42699924Y31853538D01*
X42699924Y31853538D02*
X42747543Y31901157D01*
X42747543Y31901157D02*
X42842781Y31948776D01*
X42842781Y31948776D02*
X43033257Y31996395D01*
X43033257Y31996395D02*
X43128495Y32044014D01*
X43128495Y32044014D02*
X43176114Y32091633D01*
X43176114Y32091633D02*
X43223733Y32186871D01*
X43223733Y32186871D02*
X43223733Y32282109D01*
X43223733Y32282109D02*
X43176114Y32377347D01*
X43176114Y32377347D02*
X43128495Y32424966D01*
X43128495Y32424966D02*
X43033257Y32472585D01*
X43033257Y32472585D02*
X42795162Y32472585D01*
X42795162Y32472585D02*
X42652305Y32424966D01*
X42033257Y32472585D02*
X41842781Y32472585D01*
X41842781Y32472585D02*
X41747543Y32424966D01*
X41747543Y32424966D02*
X41652305Y32329728D01*
X41652305Y32329728D02*
X41604686Y32139252D01*
X41604686Y32139252D02*
X41604686Y31805919D01*
X41604686Y31805919D02*
X41652305Y31615443D01*
X41652305Y31615443D02*
X41747543Y31520204D01*
X41747543Y31520204D02*
X41842781Y31472585D01*
X41842781Y31472585D02*
X42033257Y31472585D01*
X42033257Y31472585D02*
X42128495Y31520204D01*
X42128495Y31520204D02*
X42223733Y31615443D01*
X42223733Y31615443D02*
X42271352Y31805919D01*
X42271352Y31805919D02*
X42271352Y32139252D01*
X42271352Y32139252D02*
X42223733Y32329728D01*
X42223733Y32329728D02*
X42128495Y32424966D01*
X42128495Y32424966D02*
X42033257Y32472585D01*
X40699924Y31472585D02*
X41176114Y31472585D01*
X41176114Y31472585D02*
X41176114Y32472585D01*
X40366590Y31472585D02*
X40366590Y32472585D01*
X40366590Y32472585D02*
X40128495Y32472585D01*
X40128495Y32472585D02*
X39985638Y32424966D01*
X39985638Y32424966D02*
X39890400Y32329728D01*
X39890400Y32329728D02*
X39842781Y32234490D01*
X39842781Y32234490D02*
X39795162Y32044014D01*
X39795162Y32044014D02*
X39795162Y31901157D01*
X39795162Y31901157D02*
X39842781Y31710681D01*
X39842781Y31710681D02*
X39890400Y31615443D01*
X39890400Y31615443D02*
X39985638Y31520204D01*
X39985638Y31520204D02*
X40128495Y31472585D01*
X40128495Y31472585D02*
X40366590Y31472585D01*
X39366590Y31996395D02*
X39033257Y31996395D01*
X38890400Y31472585D02*
X39366590Y31472585D01*
X39366590Y31472585D02*
X39366590Y32472585D01*
X39366590Y32472585D02*
X38890400Y32472585D01*
X37890400Y31472585D02*
X38223733Y31948776D01*
X38461828Y31472585D02*
X38461828Y32472585D01*
X38461828Y32472585D02*
X38080876Y32472585D01*
X38080876Y32472585D02*
X37985638Y32424966D01*
X37985638Y32424966D02*
X37938019Y32377347D01*
X37938019Y32377347D02*
X37890400Y32282109D01*
X37890400Y32282109D02*
X37890400Y32139252D01*
X37890400Y32139252D02*
X37938019Y32044014D01*
X37938019Y32044014D02*
X37985638Y31996395D01*
X37985638Y31996395D02*
X38080876Y31948776D01*
X38080876Y31948776D02*
X38461828Y31948776D01*
X36842780Y32472585D02*
X36271352Y32472585D01*
X36557066Y31472585D02*
X36557066Y32472585D01*
X35938018Y31472585D02*
X35938018Y32472585D01*
X35938018Y31996395D02*
X35366590Y31996395D01*
X35366590Y31472585D02*
X35366590Y32472585D01*
X34890399Y31996395D02*
X34557066Y31996395D01*
X34414209Y31472585D02*
X34890399Y31472585D01*
X34890399Y31472585D02*
X34890399Y32472585D01*
X34890399Y32472585D02*
X34414209Y32472585D01*
X32890399Y31996395D02*
X32747542Y31948776D01*
X32747542Y31948776D02*
X32699923Y31901157D01*
X32699923Y31901157D02*
X32652304Y31805919D01*
X32652304Y31805919D02*
X32652304Y31663062D01*
X32652304Y31663062D02*
X32699923Y31567824D01*
X32699923Y31567824D02*
X32747542Y31520204D01*
X32747542Y31520204D02*
X32842780Y31472585D01*
X32842780Y31472585D02*
X33223732Y31472585D01*
X33223732Y31472585D02*
X33223732Y32472585D01*
X33223732Y32472585D02*
X32890399Y32472585D01*
X32890399Y32472585D02*
X32795161Y32424966D01*
X32795161Y32424966D02*
X32747542Y32377347D01*
X32747542Y32377347D02*
X32699923Y32282109D01*
X32699923Y32282109D02*
X32699923Y32186871D01*
X32699923Y32186871D02*
X32747542Y32091633D01*
X32747542Y32091633D02*
X32795161Y32044014D01*
X32795161Y32044014D02*
X32890399Y31996395D01*
X32890399Y31996395D02*
X33223732Y31996395D01*
X32271351Y31758300D02*
X31795161Y31758300D01*
X32366589Y31472585D02*
X32033256Y32472585D01*
X32033256Y32472585D02*
X31699923Y31472585D01*
X31509446Y32472585D02*
X30938018Y32472585D01*
X31223732Y31472585D02*
X31223732Y32472585D01*
X30747541Y32472585D02*
X30176113Y32472585D01*
X30461827Y31472585D02*
X30461827Y32472585D01*
X29842779Y31996395D02*
X29509446Y31996395D01*
X29366589Y31472585D02*
X29842779Y31472585D01*
X29842779Y31472585D02*
X29842779Y32472585D01*
X29842779Y32472585D02*
X29366589Y32472585D01*
X28366589Y31472585D02*
X28699922Y31948776D01*
X28938017Y31472585D02*
X28938017Y32472585D01*
X28938017Y32472585D02*
X28557065Y32472585D01*
X28557065Y32472585D02*
X28461827Y32424966D01*
X28461827Y32424966D02*
X28414208Y32377347D01*
X28414208Y32377347D02*
X28366589Y32282109D01*
X28366589Y32282109D02*
X28366589Y32139252D01*
X28366589Y32139252D02*
X28414208Y32044014D01*
X28414208Y32044014D02*
X28461827Y31996395D01*
X28461827Y31996395D02*
X28557065Y31948776D01*
X28557065Y31948776D02*
X28938017Y31948776D01*
X27747541Y31948776D02*
X27747541Y31472585D01*
X28080874Y32472585D02*
X27747541Y31948776D01*
X27747541Y31948776D02*
X27414208Y32472585D01*
X26318969Y31472585D02*
X26318969Y32472585D01*
X26318969Y31996395D02*
X25747541Y31996395D01*
X25747541Y31472585D02*
X25747541Y32472585D01*
X25080874Y32472585D02*
X24890398Y32472585D01*
X24890398Y32472585D02*
X24795160Y32424966D01*
X24795160Y32424966D02*
X24699922Y32329728D01*
X24699922Y32329728D02*
X24652303Y32139252D01*
X24652303Y32139252D02*
X24652303Y31805919D01*
X24652303Y31805919D02*
X24699922Y31615443D01*
X24699922Y31615443D02*
X24795160Y31520204D01*
X24795160Y31520204D02*
X24890398Y31472585D01*
X24890398Y31472585D02*
X25080874Y31472585D01*
X25080874Y31472585D02*
X25176112Y31520204D01*
X25176112Y31520204D02*
X25271350Y31615443D01*
X25271350Y31615443D02*
X25318969Y31805919D01*
X25318969Y31805919D02*
X25318969Y32139252D01*
X25318969Y32139252D02*
X25271350Y32329728D01*
X25271350Y32329728D02*
X25176112Y32424966D01*
X25176112Y32424966D02*
X25080874Y32472585D01*
X23747541Y31472585D02*
X24223731Y31472585D01*
X24223731Y31472585D02*
X24223731Y32472585D01*
X23414207Y31472585D02*
X23414207Y32472585D01*
X23414207Y32472585D02*
X23176112Y32472585D01*
X23176112Y32472585D02*
X23033255Y32424966D01*
X23033255Y32424966D02*
X22938017Y32329728D01*
X22938017Y32329728D02*
X22890398Y32234490D01*
X22890398Y32234490D02*
X22842779Y32044014D01*
X22842779Y32044014D02*
X22842779Y31901157D01*
X22842779Y31901157D02*
X22890398Y31710681D01*
X22890398Y31710681D02*
X22938017Y31615443D01*
X22938017Y31615443D02*
X23033255Y31520204D01*
X23033255Y31520204D02*
X23176112Y31472585D01*
X23176112Y31472585D02*
X23414207Y31472585D01*
X22414207Y31996395D02*
X22080874Y31996395D01*
X21938017Y31472585D02*
X22414207Y31472585D01*
X22414207Y31472585D02*
X22414207Y32472585D01*
X22414207Y32472585D02*
X21938017Y32472585D01*
X20938017Y31472585D02*
X21271350Y31948776D01*
X21509445Y31472585D02*
X21509445Y32472585D01*
X21509445Y32472585D02*
X21128493Y32472585D01*
X21128493Y32472585D02*
X21033255Y32424966D01*
X21033255Y32424966D02*
X20985636Y32377347D01*
X20985636Y32377347D02*
X20938017Y32282109D01*
X20938017Y32282109D02*
X20938017Y32139252D01*
X20938017Y32139252D02*
X20985636Y32044014D01*
X20985636Y32044014D02*
X21033255Y31996395D01*
X21033255Y31996395D02*
X21128493Y31948776D01*
X21128493Y31948776D02*
X21509445Y31948776D01*
X20557064Y31520204D02*
X20414207Y31472585D01*
X20414207Y31472585D02*
X20176112Y31472585D01*
X20176112Y31472585D02*
X20080874Y31520204D01*
X20080874Y31520204D02*
X20033255Y31567824D01*
X20033255Y31567824D02*
X19985636Y31663062D01*
X19985636Y31663062D02*
X19985636Y31758300D01*
X19985636Y31758300D02*
X20033255Y31853538D01*
X20033255Y31853538D02*
X20080874Y31901157D01*
X20080874Y31901157D02*
X20176112Y31948776D01*
X20176112Y31948776D02*
X20366588Y31996395D01*
X20366588Y31996395D02*
X20461826Y32044014D01*
X20461826Y32044014D02*
X20509445Y32091633D01*
X20509445Y32091633D02*
X20557064Y32186871D01*
X20557064Y32186871D02*
X20557064Y32282109D01*
X20557064Y32282109D02*
X20509445Y32377347D01*
X20509445Y32377347D02*
X20461826Y32424966D01*
X20461826Y32424966D02*
X20366588Y32472585D01*
X20366588Y32472585D02*
X20128493Y32472585D01*
X20128493Y32472585D02*
X19985636Y32424966D01*
X19414207Y31567824D02*
X19366588Y31520204D01*
X19366588Y31520204D02*
X19414207Y31472585D01*
X19414207Y31472585D02*
X19461826Y31520204D01*
X19461826Y31520204D02*
X19414207Y31567824D01*
X19414207Y31567824D02*
X19414207Y31472585D01*
X19604683Y32424966D02*
X19509445Y32472585D01*
X19509445Y32472585D02*
X19271350Y32472585D01*
X19271350Y32472585D02*
X19176112Y32424966D01*
X19176112Y32424966D02*
X19128493Y32329728D01*
X19128493Y32329728D02*
X19128493Y32234490D01*
X19128493Y32234490D02*
X19176112Y32139252D01*
X19176112Y32139252D02*
X19223731Y32091633D01*
X19223731Y32091633D02*
X19318969Y32044014D01*
X19318969Y32044014D02*
X19366588Y31996395D01*
X19366588Y31996395D02*
X19414207Y31901157D01*
X19414207Y31901157D02*
X19414207Y31853538D01*
X58446076Y41677737D02*
X58488933Y41634879D01*
X58488933Y41634879D02*
X58617505Y41592022D01*
X58617505Y41592022D02*
X58703219Y41592022D01*
X58703219Y41592022D02*
X58831790Y41634879D01*
X58831790Y41634879D02*
X58917505Y41720594D01*
X58917505Y41720594D02*
X58960362Y41806308D01*
X58960362Y41806308D02*
X59003219Y41977737D01*
X59003219Y41977737D02*
X59003219Y42106308D01*
X59003219Y42106308D02*
X58960362Y42277737D01*
X58960362Y42277737D02*
X58917505Y42363451D01*
X58917505Y42363451D02*
X58831790Y42449165D01*
X58831790Y42449165D02*
X58703219Y42492022D01*
X58703219Y42492022D02*
X58617505Y42492022D01*
X58617505Y42492022D02*
X58488933Y42449165D01*
X58488933Y42449165D02*
X58446076Y42406308D01*
X58060362Y41592022D02*
X58060362Y42192022D01*
X58060362Y42020594D02*
X58017505Y42106308D01*
X58017505Y42106308D02*
X57974648Y42149165D01*
X57974648Y42149165D02*
X57888933Y42192022D01*
X57888933Y42192022D02*
X57803219Y42192022D01*
X57160362Y41634879D02*
X57246076Y41592022D01*
X57246076Y41592022D02*
X57417505Y41592022D01*
X57417505Y41592022D02*
X57503219Y41634879D01*
X57503219Y41634879D02*
X57546076Y41720594D01*
X57546076Y41720594D02*
X57546076Y42063451D01*
X57546076Y42063451D02*
X57503219Y42149165D01*
X57503219Y42149165D02*
X57417505Y42192022D01*
X57417505Y42192022D02*
X57246076Y42192022D01*
X57246076Y42192022D02*
X57160362Y42149165D01*
X57160362Y42149165D02*
X57117505Y42063451D01*
X57117505Y42063451D02*
X57117505Y41977737D01*
X57117505Y41977737D02*
X57546076Y41892022D01*
X56346076Y41592022D02*
X56346076Y42063451D01*
X56346076Y42063451D02*
X56388933Y42149165D01*
X56388933Y42149165D02*
X56474647Y42192022D01*
X56474647Y42192022D02*
X56646076Y42192022D01*
X56646076Y42192022D02*
X56731790Y42149165D01*
X56346076Y41634879D02*
X56431790Y41592022D01*
X56431790Y41592022D02*
X56646076Y41592022D01*
X56646076Y41592022D02*
X56731790Y41634879D01*
X56731790Y41634879D02*
X56774647Y41720594D01*
X56774647Y41720594D02*
X56774647Y41806308D01*
X56774647Y41806308D02*
X56731790Y41892022D01*
X56731790Y41892022D02*
X56646076Y41934879D01*
X56646076Y41934879D02*
X56431790Y41934879D01*
X56431790Y41934879D02*
X56346076Y41977737D01*
X56046075Y42192022D02*
X55703218Y42192022D01*
X55917504Y42492022D02*
X55917504Y41720594D01*
X55917504Y41720594D02*
X55874647Y41634879D01*
X55874647Y41634879D02*
X55788932Y41592022D01*
X55788932Y41592022D02*
X55703218Y41592022D01*
X55274646Y41592022D02*
X55360361Y41634879D01*
X55360361Y41634879D02*
X55403218Y41677737D01*
X55403218Y41677737D02*
X55446075Y41763451D01*
X55446075Y41763451D02*
X55446075Y42020594D01*
X55446075Y42020594D02*
X55403218Y42106308D01*
X55403218Y42106308D02*
X55360361Y42149165D01*
X55360361Y42149165D02*
X55274646Y42192022D01*
X55274646Y42192022D02*
X55146075Y42192022D01*
X55146075Y42192022D02*
X55060361Y42149165D01*
X55060361Y42149165D02*
X55017504Y42106308D01*
X55017504Y42106308D02*
X54974646Y42020594D01*
X54974646Y42020594D02*
X54974646Y41763451D01*
X54974646Y41763451D02*
X55017504Y41677737D01*
X55017504Y41677737D02*
X55060361Y41634879D01*
X55060361Y41634879D02*
X55146075Y41592022D01*
X55146075Y41592022D02*
X55274646Y41592022D01*
X54588932Y41592022D02*
X54588932Y42192022D01*
X54588932Y42020594D02*
X54546075Y42106308D01*
X54546075Y42106308D02*
X54503218Y42149165D01*
X54503218Y42149165D02*
X54417503Y42192022D01*
X54417503Y42192022D02*
X54331789Y42192022D01*
X54074646Y41634879D02*
X53988932Y41592022D01*
X53988932Y41592022D02*
X53817503Y41592022D01*
X53817503Y41592022D02*
X53731789Y41634879D01*
X53731789Y41634879D02*
X53688932Y41720594D01*
X53688932Y41720594D02*
X53688932Y41763451D01*
X53688932Y41763451D02*
X53731789Y41849165D01*
X53731789Y41849165D02*
X53817503Y41892022D01*
X53817503Y41892022D02*
X53946075Y41892022D01*
X53946075Y41892022D02*
X54031789Y41934879D01*
X54031789Y41934879D02*
X54074646Y42020594D01*
X54074646Y42020594D02*
X54074646Y42063451D01*
X54074646Y42063451D02*
X54031789Y42149165D01*
X54031789Y42149165D02*
X53946075Y42192022D01*
X53946075Y42192022D02*
X53817503Y42192022D01*
X53817503Y42192022D02*
X53731789Y42149165D01*
X58660362Y40614501D02*
X58531790Y40571644D01*
X58531790Y40571644D02*
X58488933Y40528787D01*
X58488933Y40528787D02*
X58446076Y40443072D01*
X58446076Y40443072D02*
X58446076Y40314501D01*
X58446076Y40314501D02*
X58488933Y40228787D01*
X58488933Y40228787D02*
X58531790Y40185929D01*
X58531790Y40185929D02*
X58617505Y40143072D01*
X58617505Y40143072D02*
X58960362Y40143072D01*
X58960362Y40143072D02*
X58960362Y41043072D01*
X58960362Y41043072D02*
X58660362Y41043072D01*
X58660362Y41043072D02*
X58574648Y41000215D01*
X58574648Y41000215D02*
X58531790Y40957358D01*
X58531790Y40957358D02*
X58488933Y40871644D01*
X58488933Y40871644D02*
X58488933Y40785929D01*
X58488933Y40785929D02*
X58531790Y40700215D01*
X58531790Y40700215D02*
X58574648Y40657358D01*
X58574648Y40657358D02*
X58660362Y40614501D01*
X58660362Y40614501D02*
X58960362Y40614501D01*
X57931790Y40143072D02*
X58017505Y40185929D01*
X58017505Y40185929D02*
X58060362Y40228787D01*
X58060362Y40228787D02*
X58103219Y40314501D01*
X58103219Y40314501D02*
X58103219Y40571644D01*
X58103219Y40571644D02*
X58060362Y40657358D01*
X58060362Y40657358D02*
X58017505Y40700215D01*
X58017505Y40700215D02*
X57931790Y40743072D01*
X57931790Y40743072D02*
X57803219Y40743072D01*
X57803219Y40743072D02*
X57717505Y40700215D01*
X57717505Y40700215D02*
X57674648Y40657358D01*
X57674648Y40657358D02*
X57631790Y40571644D01*
X57631790Y40571644D02*
X57631790Y40314501D01*
X57631790Y40314501D02*
X57674648Y40228787D01*
X57674648Y40228787D02*
X57717505Y40185929D01*
X57717505Y40185929D02*
X57803219Y40143072D01*
X57803219Y40143072D02*
X57931790Y40143072D01*
X56860362Y40143072D02*
X56860362Y40614501D01*
X56860362Y40614501D02*
X56903219Y40700215D01*
X56903219Y40700215D02*
X56988933Y40743072D01*
X56988933Y40743072D02*
X57160362Y40743072D01*
X57160362Y40743072D02*
X57246076Y40700215D01*
X56860362Y40185929D02*
X56946076Y40143072D01*
X56946076Y40143072D02*
X57160362Y40143072D01*
X57160362Y40143072D02*
X57246076Y40185929D01*
X57246076Y40185929D02*
X57288933Y40271644D01*
X57288933Y40271644D02*
X57288933Y40357358D01*
X57288933Y40357358D02*
X57246076Y40443072D01*
X57246076Y40443072D02*
X57160362Y40485929D01*
X57160362Y40485929D02*
X56946076Y40485929D01*
X56946076Y40485929D02*
X56860362Y40528787D01*
X56431790Y40143072D02*
X56431790Y40743072D01*
X56431790Y40571644D02*
X56388933Y40657358D01*
X56388933Y40657358D02*
X56346076Y40700215D01*
X56346076Y40700215D02*
X56260361Y40743072D01*
X56260361Y40743072D02*
X56174647Y40743072D01*
X55488933Y40143072D02*
X55488933Y41043072D01*
X55488933Y40185929D02*
X55574647Y40143072D01*
X55574647Y40143072D02*
X55746075Y40143072D01*
X55746075Y40143072D02*
X55831790Y40185929D01*
X55831790Y40185929D02*
X55874647Y40228787D01*
X55874647Y40228787D02*
X55917504Y40314501D01*
X55917504Y40314501D02*
X55917504Y40571644D01*
X55917504Y40571644D02*
X55874647Y40657358D01*
X55874647Y40657358D02*
X55831790Y40700215D01*
X55831790Y40700215D02*
X55746075Y40743072D01*
X55746075Y40743072D02*
X55574647Y40743072D01*
X55574647Y40743072D02*
X55488933Y40700215D01*
X55060361Y40228787D02*
X55017504Y40185929D01*
X55017504Y40185929D02*
X55060361Y40143072D01*
X55060361Y40143072D02*
X55103218Y40185929D01*
X55103218Y40185929D02*
X55060361Y40228787D01*
X55060361Y40228787D02*
X55060361Y40143072D01*
X55060361Y40700215D02*
X55017504Y40657358D01*
X55017504Y40657358D02*
X55060361Y40614501D01*
X55060361Y40614501D02*
X55103218Y40657358D01*
X55103218Y40657358D02*
X55060361Y40700215D01*
X55060361Y40700215D02*
X55060361Y40614501D01*
X53688933Y41043072D02*
X53688933Y40400215D01*
X53688933Y40400215D02*
X53731790Y40271644D01*
X53731790Y40271644D02*
X53817504Y40185929D01*
X53817504Y40185929D02*
X53946076Y40143072D01*
X53946076Y40143072D02*
X54031790Y40143072D01*
X52874648Y40143072D02*
X52874648Y40614501D01*
X52874648Y40614501D02*
X52917505Y40700215D01*
X52917505Y40700215D02*
X53003219Y40743072D01*
X53003219Y40743072D02*
X53174648Y40743072D01*
X53174648Y40743072D02*
X53260362Y40700215D01*
X52874648Y40185929D02*
X52960362Y40143072D01*
X52960362Y40143072D02*
X53174648Y40143072D01*
X53174648Y40143072D02*
X53260362Y40185929D01*
X53260362Y40185929D02*
X53303219Y40271644D01*
X53303219Y40271644D02*
X53303219Y40357358D01*
X53303219Y40357358D02*
X53260362Y40443072D01*
X53260362Y40443072D02*
X53174648Y40485929D01*
X53174648Y40485929D02*
X52960362Y40485929D01*
X52960362Y40485929D02*
X52874648Y40528787D01*
X52488933Y40185929D02*
X52403219Y40143072D01*
X52403219Y40143072D02*
X52231790Y40143072D01*
X52231790Y40143072D02*
X52146076Y40185929D01*
X52146076Y40185929D02*
X52103219Y40271644D01*
X52103219Y40271644D02*
X52103219Y40314501D01*
X52103219Y40314501D02*
X52146076Y40400215D01*
X52146076Y40400215D02*
X52231790Y40443072D01*
X52231790Y40443072D02*
X52360362Y40443072D01*
X52360362Y40443072D02*
X52446076Y40485929D01*
X52446076Y40485929D02*
X52488933Y40571644D01*
X52488933Y40571644D02*
X52488933Y40614501D01*
X52488933Y40614501D02*
X52446076Y40700215D01*
X52446076Y40700215D02*
X52360362Y40743072D01*
X52360362Y40743072D02*
X52231790Y40743072D01*
X52231790Y40743072D02*
X52146076Y40700215D01*
X51588933Y40143072D02*
X51674648Y40185929D01*
X51674648Y40185929D02*
X51717505Y40228787D01*
X51717505Y40228787D02*
X51760362Y40314501D01*
X51760362Y40314501D02*
X51760362Y40571644D01*
X51760362Y40571644D02*
X51717505Y40657358D01*
X51717505Y40657358D02*
X51674648Y40700215D01*
X51674648Y40700215D02*
X51588933Y40743072D01*
X51588933Y40743072D02*
X51460362Y40743072D01*
X51460362Y40743072D02*
X51374648Y40700215D01*
X51374648Y40700215D02*
X51331791Y40657358D01*
X51331791Y40657358D02*
X51288933Y40571644D01*
X51288933Y40571644D02*
X51288933Y40314501D01*
X51288933Y40314501D02*
X51331791Y40228787D01*
X51331791Y40228787D02*
X51374648Y40185929D01*
X51374648Y40185929D02*
X51460362Y40143072D01*
X51460362Y40143072D02*
X51588933Y40143072D01*
X50903219Y40743072D02*
X50903219Y40143072D01*
X50903219Y40657358D02*
X50860362Y40700215D01*
X50860362Y40700215D02*
X50774647Y40743072D01*
X50774647Y40743072D02*
X50646076Y40743072D01*
X50646076Y40743072D02*
X50560362Y40700215D01*
X50560362Y40700215D02*
X50517505Y40614501D01*
X50517505Y40614501D02*
X50517505Y40143072D01*
X58660362Y39165551D02*
X58960362Y39165551D01*
X58960362Y38694122D02*
X58960362Y39594122D01*
X58960362Y39594122D02*
X58531790Y39594122D01*
X58188933Y38694122D02*
X58188933Y39294122D01*
X58188933Y39594122D02*
X58231790Y39551265D01*
X58231790Y39551265D02*
X58188933Y39508408D01*
X58188933Y39508408D02*
X58146076Y39551265D01*
X58146076Y39551265D02*
X58188933Y39594122D01*
X58188933Y39594122D02*
X58188933Y39508408D01*
X57760362Y38694122D02*
X57760362Y39294122D01*
X57760362Y39122694D02*
X57717505Y39208408D01*
X57717505Y39208408D02*
X57674648Y39251265D01*
X57674648Y39251265D02*
X57588933Y39294122D01*
X57588933Y39294122D02*
X57503219Y39294122D01*
X57203219Y38694122D02*
X57203219Y39294122D01*
X57203219Y39208408D02*
X57160362Y39251265D01*
X57160362Y39251265D02*
X57074647Y39294122D01*
X57074647Y39294122D02*
X56946076Y39294122D01*
X56946076Y39294122D02*
X56860362Y39251265D01*
X56860362Y39251265D02*
X56817505Y39165551D01*
X56817505Y39165551D02*
X56817505Y38694122D01*
X56817505Y39165551D02*
X56774647Y39251265D01*
X56774647Y39251265D02*
X56688933Y39294122D01*
X56688933Y39294122D02*
X56560362Y39294122D01*
X56560362Y39294122D02*
X56474647Y39251265D01*
X56474647Y39251265D02*
X56431790Y39165551D01*
X56431790Y39165551D02*
X56431790Y38694122D01*
X56088933Y39294122D02*
X55917505Y38694122D01*
X55917505Y38694122D02*
X55746076Y39122694D01*
X55746076Y39122694D02*
X55574647Y38694122D01*
X55574647Y38694122D02*
X55403219Y39294122D01*
X54674648Y38694122D02*
X54674648Y39165551D01*
X54674648Y39165551D02*
X54717505Y39251265D01*
X54717505Y39251265D02*
X54803219Y39294122D01*
X54803219Y39294122D02*
X54974648Y39294122D01*
X54974648Y39294122D02*
X55060362Y39251265D01*
X54674648Y38736979D02*
X54760362Y38694122D01*
X54760362Y38694122D02*
X54974648Y38694122D01*
X54974648Y38694122D02*
X55060362Y38736979D01*
X55060362Y38736979D02*
X55103219Y38822694D01*
X55103219Y38822694D02*
X55103219Y38908408D01*
X55103219Y38908408D02*
X55060362Y38994122D01*
X55060362Y38994122D02*
X54974648Y39036979D01*
X54974648Y39036979D02*
X54760362Y39036979D01*
X54760362Y39036979D02*
X54674648Y39079837D01*
X54246076Y38694122D02*
X54246076Y39294122D01*
X54246076Y39122694D02*
X54203219Y39208408D01*
X54203219Y39208408D02*
X54160362Y39251265D01*
X54160362Y39251265D02*
X54074647Y39294122D01*
X54074647Y39294122D02*
X53988933Y39294122D01*
X53346076Y38736979D02*
X53431790Y38694122D01*
X53431790Y38694122D02*
X53603219Y38694122D01*
X53603219Y38694122D02*
X53688933Y38736979D01*
X53688933Y38736979D02*
X53731790Y38822694D01*
X53731790Y38822694D02*
X53731790Y39165551D01*
X53731790Y39165551D02*
X53688933Y39251265D01*
X53688933Y39251265D02*
X53603219Y39294122D01*
X53603219Y39294122D02*
X53431790Y39294122D01*
X53431790Y39294122D02*
X53346076Y39251265D01*
X53346076Y39251265D02*
X53303219Y39165551D01*
X53303219Y39165551D02*
X53303219Y39079837D01*
X53303219Y39079837D02*
X53731790Y38994122D01*
X52917504Y38779837D02*
X52874647Y38736979D01*
X52874647Y38736979D02*
X52917504Y38694122D01*
X52917504Y38694122D02*
X52960361Y38736979D01*
X52960361Y38736979D02*
X52917504Y38779837D01*
X52917504Y38779837D02*
X52917504Y38694122D01*
X52917504Y39251265D02*
X52874647Y39208408D01*
X52874647Y39208408D02*
X52917504Y39165551D01*
X52917504Y39165551D02*
X52960361Y39208408D01*
X52960361Y39208408D02*
X52917504Y39251265D01*
X52917504Y39251265D02*
X52917504Y39165551D01*
X51546076Y39594122D02*
X51546076Y38951265D01*
X51546076Y38951265D02*
X51588933Y38822694D01*
X51588933Y38822694D02*
X51674647Y38736979D01*
X51674647Y38736979D02*
X51803219Y38694122D01*
X51803219Y38694122D02*
X51888933Y38694122D01*
X51117505Y39036979D02*
X50431791Y39036979D01*
X50003219Y38694122D02*
X50003219Y39594122D01*
X50003219Y39594122D02*
X49703219Y38951265D01*
X49703219Y38951265D02*
X49403219Y39594122D01*
X49403219Y39594122D02*
X49403219Y38694122D01*
X48846076Y38694122D02*
X48931791Y38736979D01*
X48931791Y38736979D02*
X48974648Y38779837D01*
X48974648Y38779837D02*
X49017505Y38865551D01*
X49017505Y38865551D02*
X49017505Y39122694D01*
X49017505Y39122694D02*
X48974648Y39208408D01*
X48974648Y39208408D02*
X48931791Y39251265D01*
X48931791Y39251265D02*
X48846076Y39294122D01*
X48846076Y39294122D02*
X48717505Y39294122D01*
X48717505Y39294122D02*
X48631791Y39251265D01*
X48631791Y39251265D02*
X48588934Y39208408D01*
X48588934Y39208408D02*
X48546076Y39122694D01*
X48546076Y39122694D02*
X48546076Y38865551D01*
X48546076Y38865551D02*
X48588934Y38779837D01*
X48588934Y38779837D02*
X48631791Y38736979D01*
X48631791Y38736979D02*
X48717505Y38694122D01*
X48717505Y38694122D02*
X48846076Y38694122D01*
X48160362Y39294122D02*
X48160362Y38694122D01*
X48160362Y39208408D02*
X48117505Y39251265D01*
X48117505Y39251265D02*
X48031790Y39294122D01*
X48031790Y39294122D02*
X47903219Y39294122D01*
X47903219Y39294122D02*
X47817505Y39251265D01*
X47817505Y39251265D02*
X47774648Y39165551D01*
X47774648Y39165551D02*
X47774648Y38694122D01*
X47003219Y38736979D02*
X47088933Y38694122D01*
X47088933Y38694122D02*
X47260362Y38694122D01*
X47260362Y38694122D02*
X47346076Y38736979D01*
X47346076Y38736979D02*
X47388933Y38822694D01*
X47388933Y38822694D02*
X47388933Y39165551D01*
X47388933Y39165551D02*
X47346076Y39251265D01*
X47346076Y39251265D02*
X47260362Y39294122D01*
X47260362Y39294122D02*
X47088933Y39294122D01*
X47088933Y39294122D02*
X47003219Y39251265D01*
X47003219Y39251265D02*
X46960362Y39165551D01*
X46960362Y39165551D02*
X46960362Y39079837D01*
X46960362Y39079837D02*
X47388933Y38994122D01*
X46660361Y39294122D02*
X46446075Y38694122D01*
X46231790Y39294122D02*
X46446075Y38694122D01*
X46446075Y38694122D02*
X46531790Y38479837D01*
X46531790Y38479837D02*
X46574647Y38436979D01*
X46574647Y38436979D02*
X46660361Y38394122D01*
X44988933Y38394122D02*
X44988933Y39679837D01*
X43746076Y39594122D02*
X43146076Y38694122D01*
X43146076Y39594122D02*
X43746076Y38694122D01*
X42288933Y38779837D02*
X42331790Y38736979D01*
X42331790Y38736979D02*
X42460362Y38694122D01*
X42460362Y38694122D02*
X42546076Y38694122D01*
X42546076Y38694122D02*
X42674647Y38736979D01*
X42674647Y38736979D02*
X42760362Y38822694D01*
X42760362Y38822694D02*
X42803219Y38908408D01*
X42803219Y38908408D02*
X42846076Y39079837D01*
X42846076Y39079837D02*
X42846076Y39208408D01*
X42846076Y39208408D02*
X42803219Y39379837D01*
X42803219Y39379837D02*
X42760362Y39465551D01*
X42760362Y39465551D02*
X42674647Y39551265D01*
X42674647Y39551265D02*
X42546076Y39594122D01*
X42546076Y39594122D02*
X42460362Y39594122D01*
X42460362Y39594122D02*
X42331790Y39551265D01*
X42331790Y39551265D02*
X42288933Y39508408D01*
X41388933Y38779837D02*
X41431790Y38736979D01*
X41431790Y38736979D02*
X41560362Y38694122D01*
X41560362Y38694122D02*
X41646076Y38694122D01*
X41646076Y38694122D02*
X41774647Y38736979D01*
X41774647Y38736979D02*
X41860362Y38822694D01*
X41860362Y38822694D02*
X41903219Y38908408D01*
X41903219Y38908408D02*
X41946076Y39079837D01*
X41946076Y39079837D02*
X41946076Y39208408D01*
X41946076Y39208408D02*
X41903219Y39379837D01*
X41903219Y39379837D02*
X41860362Y39465551D01*
X41860362Y39465551D02*
X41774647Y39551265D01*
X41774647Y39551265D02*
X41646076Y39594122D01*
X41646076Y39594122D02*
X41560362Y39594122D01*
X41560362Y39594122D02*
X41431790Y39551265D01*
X41431790Y39551265D02*
X41388933Y39508408D01*
X52103219Y38145172D02*
X51588934Y38145172D01*
X51846076Y37245172D02*
X51846076Y38145172D01*
X51288934Y37245172D02*
X51288934Y38145172D01*
X50903220Y37245172D02*
X50903220Y37716601D01*
X50903220Y37716601D02*
X50946077Y37802315D01*
X50946077Y37802315D02*
X51031791Y37845172D01*
X51031791Y37845172D02*
X51160362Y37845172D01*
X51160362Y37845172D02*
X51246077Y37802315D01*
X51246077Y37802315D02*
X51288934Y37759458D01*
X50131791Y37288029D02*
X50217505Y37245172D01*
X50217505Y37245172D02*
X50388934Y37245172D01*
X50388934Y37245172D02*
X50474648Y37288029D01*
X50474648Y37288029D02*
X50517505Y37373744D01*
X50517505Y37373744D02*
X50517505Y37716601D01*
X50517505Y37716601D02*
X50474648Y37802315D01*
X50474648Y37802315D02*
X50388934Y37845172D01*
X50388934Y37845172D02*
X50217505Y37845172D01*
X50217505Y37845172D02*
X50131791Y37802315D01*
X50131791Y37802315D02*
X50088934Y37716601D01*
X50088934Y37716601D02*
X50088934Y37630887D01*
X50088934Y37630887D02*
X50517505Y37545172D01*
X49017505Y37245172D02*
X49017505Y38145172D01*
X48588934Y37845172D02*
X48588934Y37245172D01*
X48588934Y37759458D02*
X48546077Y37802315D01*
X48546077Y37802315D02*
X48460362Y37845172D01*
X48460362Y37845172D02*
X48331791Y37845172D01*
X48331791Y37845172D02*
X48246077Y37802315D01*
X48246077Y37802315D02*
X48203220Y37716601D01*
X48203220Y37716601D02*
X48203220Y37245172D01*
X47903219Y37845172D02*
X47560362Y37845172D01*
X47774648Y38145172D02*
X47774648Y37373744D01*
X47774648Y37373744D02*
X47731791Y37288029D01*
X47731791Y37288029D02*
X47646076Y37245172D01*
X47646076Y37245172D02*
X47560362Y37245172D01*
X46917505Y37288029D02*
X47003219Y37245172D01*
X47003219Y37245172D02*
X47174648Y37245172D01*
X47174648Y37245172D02*
X47260362Y37288029D01*
X47260362Y37288029D02*
X47303219Y37373744D01*
X47303219Y37373744D02*
X47303219Y37716601D01*
X47303219Y37716601D02*
X47260362Y37802315D01*
X47260362Y37802315D02*
X47174648Y37845172D01*
X47174648Y37845172D02*
X47003219Y37845172D01*
X47003219Y37845172D02*
X46917505Y37802315D01*
X46917505Y37802315D02*
X46874648Y37716601D01*
X46874648Y37716601D02*
X46874648Y37630887D01*
X46874648Y37630887D02*
X47303219Y37545172D01*
X46488933Y37245172D02*
X46488933Y37845172D01*
X46488933Y37673744D02*
X46446076Y37759458D01*
X46446076Y37759458D02*
X46403219Y37802315D01*
X46403219Y37802315D02*
X46317504Y37845172D01*
X46317504Y37845172D02*
X46231790Y37845172D01*
X45931790Y37845172D02*
X45931790Y37245172D01*
X45931790Y37759458D02*
X45888933Y37802315D01*
X45888933Y37802315D02*
X45803218Y37845172D01*
X45803218Y37845172D02*
X45674647Y37845172D01*
X45674647Y37845172D02*
X45588933Y37802315D01*
X45588933Y37802315D02*
X45546076Y37716601D01*
X45546076Y37716601D02*
X45546076Y37245172D01*
X44217504Y36945172D02*
X44217504Y38230887D01*
X42460361Y37245172D02*
X42888933Y37245172D01*
X42888933Y37245172D02*
X42888933Y38145172D01*
X42160362Y37588029D02*
X41474648Y37588029D01*
X40746076Y37716601D02*
X40617504Y37673744D01*
X40617504Y37673744D02*
X40574647Y37630887D01*
X40574647Y37630887D02*
X40531790Y37545172D01*
X40531790Y37545172D02*
X40531790Y37416601D01*
X40531790Y37416601D02*
X40574647Y37330887D01*
X40574647Y37330887D02*
X40617504Y37288029D01*
X40617504Y37288029D02*
X40703219Y37245172D01*
X40703219Y37245172D02*
X41046076Y37245172D01*
X41046076Y37245172D02*
X41046076Y38145172D01*
X41046076Y38145172D02*
X40746076Y38145172D01*
X40746076Y38145172D02*
X40660362Y38102315D01*
X40660362Y38102315D02*
X40617504Y38059458D01*
X40617504Y38059458D02*
X40574647Y37973744D01*
X40574647Y37973744D02*
X40574647Y37888029D01*
X40574647Y37888029D02*
X40617504Y37802315D01*
X40617504Y37802315D02*
X40660362Y37759458D01*
X40660362Y37759458D02*
X40746076Y37716601D01*
X40746076Y37716601D02*
X41046076Y37716601D01*
X40017504Y37245172D02*
X40103219Y37288029D01*
X40103219Y37288029D02*
X40146076Y37330887D01*
X40146076Y37330887D02*
X40188933Y37416601D01*
X40188933Y37416601D02*
X40188933Y37673744D01*
X40188933Y37673744D02*
X40146076Y37759458D01*
X40146076Y37759458D02*
X40103219Y37802315D01*
X40103219Y37802315D02*
X40017504Y37845172D01*
X40017504Y37845172D02*
X39888933Y37845172D01*
X39888933Y37845172D02*
X39803219Y37802315D01*
X39803219Y37802315D02*
X39760362Y37759458D01*
X39760362Y37759458D02*
X39717504Y37673744D01*
X39717504Y37673744D02*
X39717504Y37416601D01*
X39717504Y37416601D02*
X39760362Y37330887D01*
X39760362Y37330887D02*
X39803219Y37288029D01*
X39803219Y37288029D02*
X39888933Y37245172D01*
X39888933Y37245172D02*
X40017504Y37245172D01*
X39331790Y37845172D02*
X39331790Y37245172D01*
X39331790Y37759458D02*
X39288933Y37802315D01*
X39288933Y37802315D02*
X39203218Y37845172D01*
X39203218Y37845172D02*
X39074647Y37845172D01*
X39074647Y37845172D02*
X38988933Y37802315D01*
X38988933Y37802315D02*
X38946076Y37716601D01*
X38946076Y37716601D02*
X38946076Y37245172D01*
X38174647Y37288029D02*
X38260361Y37245172D01*
X38260361Y37245172D02*
X38431790Y37245172D01*
X38431790Y37245172D02*
X38517504Y37288029D01*
X38517504Y37288029D02*
X38560361Y37373744D01*
X38560361Y37373744D02*
X38560361Y37716601D01*
X38560361Y37716601D02*
X38517504Y37802315D01*
X38517504Y37802315D02*
X38431790Y37845172D01*
X38431790Y37845172D02*
X38260361Y37845172D01*
X38260361Y37845172D02*
X38174647Y37802315D01*
X38174647Y37802315D02*
X38131790Y37716601D01*
X38131790Y37716601D02*
X38131790Y37630887D01*
X38131790Y37630887D02*
X38560361Y37545172D01*
X21725552Y23725538D02*
X20963648Y23725538D01*
X20487457Y23725538D02*
X19725553Y23725538D01*
X19249362Y23725538D02*
X18487458Y23725538D01*
X18011267Y23725538D02*
X17249363Y23725538D01*
X16773172Y23725538D02*
X16011268Y23725538D01*
X15535077Y23725538D02*
X14773173Y23725538D01*
X14296982Y24011252D02*
X13535078Y23725538D01*
X13535078Y23725538D02*
X14296982Y23439824D01*
X35485990Y54265785D02*
X35247895Y53265785D01*
X35247895Y53265785D02*
X35057419Y53980071D01*
X35057419Y53980071D02*
X34866943Y53265785D01*
X34866943Y53265785D02*
X34628848Y54265785D01*
X34247895Y53265785D02*
X34247895Y54265785D01*
X34247895Y53789595D02*
X33676467Y53789595D01*
X33676467Y53265785D02*
X33676467Y54265785D01*
X33009800Y53741976D02*
X33009800Y53265785D01*
X33343133Y54265785D02*
X33009800Y53741976D01*
X33009800Y53741976D02*
X32676467Y54265785D01*
X31581228Y53265785D02*
X31581228Y54265785D01*
X31581228Y54265785D02*
X31343133Y54265785D01*
X31343133Y54265785D02*
X31200276Y54218166D01*
X31200276Y54218166D02*
X31105038Y54122928D01*
X31105038Y54122928D02*
X31057419Y54027690D01*
X31057419Y54027690D02*
X31009800Y53837214D01*
X31009800Y53837214D02*
X31009800Y53694357D01*
X31009800Y53694357D02*
X31057419Y53503881D01*
X31057419Y53503881D02*
X31105038Y53408643D01*
X31105038Y53408643D02*
X31200276Y53313404D01*
X31200276Y53313404D02*
X31343133Y53265785D01*
X31343133Y53265785D02*
X31581228Y53265785D01*
X30581228Y53265785D02*
X30581228Y54265785D01*
X30105038Y53265785D02*
X30105038Y54265785D01*
X30105038Y54265785D02*
X29866943Y54265785D01*
X29866943Y54265785D02*
X29724086Y54218166D01*
X29724086Y54218166D02*
X29628848Y54122928D01*
X29628848Y54122928D02*
X29581229Y54027690D01*
X29581229Y54027690D02*
X29533610Y53837214D01*
X29533610Y53837214D02*
X29533610Y53694357D01*
X29533610Y53694357D02*
X29581229Y53503881D01*
X29581229Y53503881D02*
X29628848Y53408643D01*
X29628848Y53408643D02*
X29724086Y53313404D01*
X29724086Y53313404D02*
X29866943Y53265785D01*
X29866943Y53265785D02*
X30105038Y53265785D01*
X28152657Y53741976D02*
X28152657Y53265785D01*
X28485990Y54265785D02*
X28152657Y53741976D01*
X28152657Y53741976D02*
X27819324Y54265785D01*
X27295514Y54265785D02*
X27105038Y54265785D01*
X27105038Y54265785D02*
X27009800Y54218166D01*
X27009800Y54218166D02*
X26914562Y54122928D01*
X26914562Y54122928D02*
X26866943Y53932452D01*
X26866943Y53932452D02*
X26866943Y53599119D01*
X26866943Y53599119D02*
X26914562Y53408643D01*
X26914562Y53408643D02*
X27009800Y53313404D01*
X27009800Y53313404D02*
X27105038Y53265785D01*
X27105038Y53265785D02*
X27295514Y53265785D01*
X27295514Y53265785D02*
X27390752Y53313404D01*
X27390752Y53313404D02*
X27485990Y53408643D01*
X27485990Y53408643D02*
X27533609Y53599119D01*
X27533609Y53599119D02*
X27533609Y53932452D01*
X27533609Y53932452D02*
X27485990Y54122928D01*
X27485990Y54122928D02*
X27390752Y54218166D01*
X27390752Y54218166D02*
X27295514Y54265785D01*
X26438371Y54265785D02*
X26438371Y53456262D01*
X26438371Y53456262D02*
X26390752Y53361024D01*
X26390752Y53361024D02*
X26343133Y53313404D01*
X26343133Y53313404D02*
X26247895Y53265785D01*
X26247895Y53265785D02*
X26057419Y53265785D01*
X26057419Y53265785D02*
X25962181Y53313404D01*
X25962181Y53313404D02*
X25914562Y53361024D01*
X25914562Y53361024D02*
X25866943Y53456262D01*
X25866943Y53456262D02*
X25866943Y54265785D01*
X56161590Y58751760D02*
X55923495Y57751760D01*
X55923495Y57751760D02*
X55733019Y58466046D01*
X55733019Y58466046D02*
X55542543Y57751760D01*
X55542543Y57751760D02*
X55304448Y58751760D01*
X54733019Y58751760D02*
X54542543Y58751760D01*
X54542543Y58751760D02*
X54447305Y58704141D01*
X54447305Y58704141D02*
X54352067Y58608903D01*
X54352067Y58608903D02*
X54304448Y58418427D01*
X54304448Y58418427D02*
X54304448Y58085094D01*
X54304448Y58085094D02*
X54352067Y57894618D01*
X54352067Y57894618D02*
X54447305Y57799379D01*
X54447305Y57799379D02*
X54542543Y57751760D01*
X54542543Y57751760D02*
X54733019Y57751760D01*
X54733019Y57751760D02*
X54828257Y57799379D01*
X54828257Y57799379D02*
X54923495Y57894618D01*
X54923495Y57894618D02*
X54971114Y58085094D01*
X54971114Y58085094D02*
X54971114Y58418427D01*
X54971114Y58418427D02*
X54923495Y58608903D01*
X54923495Y58608903D02*
X54828257Y58704141D01*
X54828257Y58704141D02*
X54733019Y58751760D01*
X53875876Y57751760D02*
X53875876Y58751760D01*
X53875876Y58751760D02*
X53494924Y58751760D01*
X53494924Y58751760D02*
X53399686Y58704141D01*
X53399686Y58704141D02*
X53352067Y58656522D01*
X53352067Y58656522D02*
X53304448Y58561284D01*
X53304448Y58561284D02*
X53304448Y58418427D01*
X53304448Y58418427D02*
X53352067Y58323189D01*
X53352067Y58323189D02*
X53399686Y58275570D01*
X53399686Y58275570D02*
X53494924Y58227951D01*
X53494924Y58227951D02*
X53875876Y58227951D01*
X52304448Y57751760D02*
X52637781Y58227951D01*
X52875876Y57751760D02*
X52875876Y58751760D01*
X52875876Y58751760D02*
X52494924Y58751760D01*
X52494924Y58751760D02*
X52399686Y58704141D01*
X52399686Y58704141D02*
X52352067Y58656522D01*
X52352067Y58656522D02*
X52304448Y58561284D01*
X52304448Y58561284D02*
X52304448Y58418427D01*
X52304448Y58418427D02*
X52352067Y58323189D01*
X52352067Y58323189D02*
X52399686Y58275570D01*
X52399686Y58275570D02*
X52494924Y58227951D01*
X52494924Y58227951D02*
X52875876Y58227951D01*
X51113971Y57751760D02*
X51113971Y58751760D01*
X50542543Y57751760D02*
X50971114Y58323189D01*
X50542543Y58751760D02*
X51113971Y58180332D01*
X50113971Y57751760D02*
X50113971Y58751760D01*
X50113971Y58751760D02*
X49542543Y57751760D01*
X49542543Y57751760D02*
X49542543Y58751760D01*
X48875876Y58751760D02*
X48685400Y58751760D01*
X48685400Y58751760D02*
X48590162Y58704141D01*
X48590162Y58704141D02*
X48494924Y58608903D01*
X48494924Y58608903D02*
X48447305Y58418427D01*
X48447305Y58418427D02*
X48447305Y58085094D01*
X48447305Y58085094D02*
X48494924Y57894618D01*
X48494924Y57894618D02*
X48590162Y57799379D01*
X48590162Y57799379D02*
X48685400Y57751760D01*
X48685400Y57751760D02*
X48875876Y57751760D01*
X48875876Y57751760D02*
X48971114Y57799379D01*
X48971114Y57799379D02*
X49066352Y57894618D01*
X49066352Y57894618D02*
X49113971Y58085094D01*
X49113971Y58085094D02*
X49113971Y58418427D01*
X49113971Y58418427D02*
X49066352Y58608903D01*
X49066352Y58608903D02*
X48971114Y58704141D01*
X48971114Y58704141D02*
X48875876Y58751760D01*
X48113971Y58751760D02*
X47875876Y57751760D01*
X47875876Y57751760D02*
X47685400Y58466046D01*
X47685400Y58466046D02*
X47494924Y57751760D01*
X47494924Y57751760D02*
X47256829Y58751760D01*
X46923495Y57799379D02*
X46780638Y57751760D01*
X46780638Y57751760D02*
X46542543Y57751760D01*
X46542543Y57751760D02*
X46447305Y57799379D01*
X46447305Y57799379D02*
X46399686Y57846999D01*
X46399686Y57846999D02*
X46352067Y57942237D01*
X46352067Y57942237D02*
X46352067Y58037475D01*
X46352067Y58037475D02*
X46399686Y58132713D01*
X46399686Y58132713D02*
X46447305Y58180332D01*
X46447305Y58180332D02*
X46542543Y58227951D01*
X46542543Y58227951D02*
X46733019Y58275570D01*
X46733019Y58275570D02*
X46828257Y58323189D01*
X46828257Y58323189D02*
X46875876Y58370808D01*
X46875876Y58370808D02*
X46923495Y58466046D01*
X46923495Y58466046D02*
X46923495Y58561284D01*
X46923495Y58561284D02*
X46875876Y58656522D01*
X46875876Y58656522D02*
X46828257Y58704141D01*
X46828257Y58704141D02*
X46733019Y58751760D01*
X46733019Y58751760D02*
X46494924Y58751760D01*
X46494924Y58751760D02*
X46352067Y58704141D01*
X45923495Y57846999D02*
X45875876Y57799379D01*
X45875876Y57799379D02*
X45923495Y57751760D01*
X45923495Y57751760D02*
X45971114Y57799379D01*
X45971114Y57799379D02*
X45923495Y57846999D01*
X45923495Y57846999D02*
X45923495Y57751760D01*
X45923495Y58132713D02*
X45971114Y58704141D01*
X45971114Y58704141D02*
X45923495Y58751760D01*
X45923495Y58751760D02*
X45875876Y58704141D01*
X45875876Y58704141D02*
X45923495Y58132713D01*
X45923495Y58132713D02*
X45923495Y58751760D01*
D12*
X5738714Y24071991D02*
X5595857Y24024372D01*
X5595857Y24024372D02*
X5548238Y23976753D01*
X5548238Y23976753D02*
X5500619Y23881515D01*
X5500619Y23881515D02*
X5500619Y23738658D01*
X5500619Y23738658D02*
X5548238Y23643420D01*
X5548238Y23643420D02*
X5595857Y23595800D01*
X5595857Y23595800D02*
X5691095Y23548181D01*
X5691095Y23548181D02*
X6072047Y23548181D01*
X6072047Y23548181D02*
X6072047Y24548181D01*
X6072047Y24548181D02*
X5738714Y24548181D01*
X5738714Y24548181D02*
X5643476Y24500562D01*
X5643476Y24500562D02*
X5595857Y24452943D01*
X5595857Y24452943D02*
X5548238Y24357705D01*
X5548238Y24357705D02*
X5548238Y24262467D01*
X5548238Y24262467D02*
X5595857Y24167229D01*
X5595857Y24167229D02*
X5643476Y24119610D01*
X5643476Y24119610D02*
X5738714Y24071991D01*
X5738714Y24071991D02*
X6072047Y24071991D01*
X5214904Y24548181D02*
X4643476Y24548181D01*
X4929190Y23548181D02*
X4929190Y24548181D01*
X3786333Y23548181D02*
X4357761Y23548181D01*
X4072047Y23548181D02*
X4072047Y24548181D01*
X4072047Y24548181D02*
X4167285Y24405324D01*
X4167285Y24405324D02*
X4262523Y24310086D01*
X4262523Y24310086D02*
X4357761Y24262467D01*
X5206951Y26179909D02*
X4445047Y26179909D01*
X4825999Y25798956D02*
X4825999Y26560861D01*
X60576951Y27847109D02*
X59815047Y27847109D01*
X27507819Y71969801D02*
X26507819Y71969801D01*
X27412580Y70922183D02*
X27460200Y70969802D01*
X27460200Y70969802D02*
X27507819Y71112659D01*
X27507819Y71112659D02*
X27507819Y71207897D01*
X27507819Y71207897D02*
X27460200Y71350754D01*
X27460200Y71350754D02*
X27364961Y71445992D01*
X27364961Y71445992D02*
X27269723Y71493611D01*
X27269723Y71493611D02*
X27079247Y71541230D01*
X27079247Y71541230D02*
X26936390Y71541230D01*
X26936390Y71541230D02*
X26745914Y71493611D01*
X26745914Y71493611D02*
X26650676Y71445992D01*
X26650676Y71445992D02*
X26555438Y71350754D01*
X26555438Y71350754D02*
X26507819Y71207897D01*
X26507819Y71207897D02*
X26507819Y71112659D01*
X26507819Y71112659D02*
X26555438Y70969802D01*
X26555438Y70969802D02*
X26603057Y70922183D01*
X27507819Y69969802D02*
X27507819Y70541230D01*
X27507819Y70255516D02*
X26507819Y70255516D01*
X26507819Y70255516D02*
X26650676Y70350754D01*
X26650676Y70350754D02*
X26745914Y70445992D01*
X26745914Y70445992D02*
X26793533Y70541230D01*
X9199428Y4894991D02*
X9532761Y4894991D01*
X9532761Y4371181D02*
X9532761Y5371181D01*
X9532761Y5371181D02*
X9056571Y5371181D01*
X8675618Y4371181D02*
X8675618Y5371181D01*
X8199428Y4371181D02*
X8199428Y5371181D01*
X8199428Y5371181D02*
X7961333Y5371181D01*
X7961333Y5371181D02*
X7818476Y5323562D01*
X7818476Y5323562D02*
X7723238Y5228324D01*
X7723238Y5228324D02*
X7675619Y5133086D01*
X7675619Y5133086D02*
X7628000Y4942610D01*
X7628000Y4942610D02*
X7628000Y4799753D01*
X7628000Y4799753D02*
X7675619Y4609277D01*
X7675619Y4609277D02*
X7723238Y4514039D01*
X7723238Y4514039D02*
X7818476Y4418800D01*
X7818476Y4418800D02*
X7961333Y4371181D01*
X7961333Y4371181D02*
X8199428Y4371181D01*
X6723238Y5371181D02*
X7199428Y5371181D01*
X7199428Y5371181D02*
X7247047Y4894991D01*
X7247047Y4894991D02*
X7199428Y4942610D01*
X7199428Y4942610D02*
X7104190Y4990229D01*
X7104190Y4990229D02*
X6866095Y4990229D01*
X6866095Y4990229D02*
X6770857Y4942610D01*
X6770857Y4942610D02*
X6723238Y4894991D01*
X6723238Y4894991D02*
X6675619Y4799753D01*
X6675619Y4799753D02*
X6675619Y4561658D01*
X6675619Y4561658D02*
X6723238Y4466420D01*
X6723238Y4466420D02*
X6770857Y4418800D01*
X6770857Y4418800D02*
X6866095Y4371181D01*
X6866095Y4371181D02*
X7104190Y4371181D01*
X7104190Y4371181D02*
X7199428Y4418800D01*
X7199428Y4418800D02*
X7247047Y4466420D01*
X60578951Y10441109D02*
X59817047Y10441109D01*
X60197999Y10060156D02*
X60197999Y10822061D01*
X5286951Y8349109D02*
X4525047Y8349109D01*
X59237428Y67124991D02*
X59570761Y67124991D01*
X59570761Y66601181D02*
X59570761Y67601181D01*
X59570761Y67601181D02*
X59094571Y67601181D01*
X58713618Y66601181D02*
X58713618Y67601181D01*
X58237428Y66601181D02*
X58237428Y67601181D01*
X58237428Y67601181D02*
X57999333Y67601181D01*
X57999333Y67601181D02*
X57856476Y67553562D01*
X57856476Y67553562D02*
X57761238Y67458324D01*
X57761238Y67458324D02*
X57713619Y67363086D01*
X57713619Y67363086D02*
X57666000Y67172610D01*
X57666000Y67172610D02*
X57666000Y67029753D01*
X57666000Y67029753D02*
X57713619Y66839277D01*
X57713619Y66839277D02*
X57761238Y66744039D01*
X57761238Y66744039D02*
X57856476Y66648800D01*
X57856476Y66648800D02*
X57999333Y66601181D01*
X57999333Y66601181D02*
X58237428Y66601181D01*
X56808857Y67601181D02*
X56999333Y67601181D01*
X56999333Y67601181D02*
X57094571Y67553562D01*
X57094571Y67553562D02*
X57142190Y67505943D01*
X57142190Y67505943D02*
X57237428Y67363086D01*
X57237428Y67363086D02*
X57285047Y67172610D01*
X57285047Y67172610D02*
X57285047Y66791658D01*
X57285047Y66791658D02*
X57237428Y66696420D01*
X57237428Y66696420D02*
X57189809Y66648800D01*
X57189809Y66648800D02*
X57094571Y66601181D01*
X57094571Y66601181D02*
X56904095Y66601181D01*
X56904095Y66601181D02*
X56808857Y66648800D01*
X56808857Y66648800D02*
X56761238Y66696420D01*
X56761238Y66696420D02*
X56713619Y66791658D01*
X56713619Y66791658D02*
X56713619Y67029753D01*
X56713619Y67029753D02*
X56761238Y67124991D01*
X56761238Y67124991D02*
X56808857Y67172610D01*
X56808857Y67172610D02*
X56904095Y67220229D01*
X56904095Y67220229D02*
X57094571Y67220229D01*
X57094571Y67220229D02*
X57189809Y67172610D01*
X57189809Y67172610D02*
X57237428Y67124991D01*
X57237428Y67124991D02*
X57285047Y67029753D01*
X6151428Y67124991D02*
X6484761Y67124991D01*
X6484761Y66601181D02*
X6484761Y67601181D01*
X6484761Y67601181D02*
X6008571Y67601181D01*
X5627618Y66601181D02*
X5627618Y67601181D01*
X5151428Y66601181D02*
X5151428Y67601181D01*
X5151428Y67601181D02*
X4913333Y67601181D01*
X4913333Y67601181D02*
X4770476Y67553562D01*
X4770476Y67553562D02*
X4675238Y67458324D01*
X4675238Y67458324D02*
X4627619Y67363086D01*
X4627619Y67363086D02*
X4580000Y67172610D01*
X4580000Y67172610D02*
X4580000Y67029753D01*
X4580000Y67029753D02*
X4627619Y66839277D01*
X4627619Y66839277D02*
X4675238Y66744039D01*
X4675238Y66744039D02*
X4770476Y66648800D01*
X4770476Y66648800D02*
X4913333Y66601181D01*
X4913333Y66601181D02*
X5151428Y66601181D01*
X3722857Y67267848D02*
X3722857Y66601181D01*
X3960952Y67648800D02*
X4199047Y66934515D01*
X4199047Y66934515D02*
X3580000Y66934515D01*
X23726333Y74264981D02*
X23678714Y74312600D01*
X23678714Y74312600D02*
X23535857Y74360220D01*
X23535857Y74360220D02*
X23440619Y74360220D01*
X23440619Y74360220D02*
X23297762Y74312600D01*
X23297762Y74312600D02*
X23202524Y74217362D01*
X23202524Y74217362D02*
X23154905Y74122124D01*
X23154905Y74122124D02*
X23107286Y73931648D01*
X23107286Y73931648D02*
X23107286Y73788791D01*
X23107286Y73788791D02*
X23154905Y73598315D01*
X23154905Y73598315D02*
X23202524Y73503077D01*
X23202524Y73503077D02*
X23297762Y73407839D01*
X23297762Y73407839D02*
X23440619Y73360220D01*
X23440619Y73360220D02*
X23535857Y73360220D01*
X23535857Y73360220D02*
X23678714Y73407839D01*
X23678714Y73407839D02*
X23726333Y73455458D01*
X24631095Y73360220D02*
X24154905Y73360220D01*
X24154905Y73360220D02*
X24107286Y73836410D01*
X24107286Y73836410D02*
X24154905Y73788791D01*
X24154905Y73788791D02*
X24250143Y73741172D01*
X24250143Y73741172D02*
X24488238Y73741172D01*
X24488238Y73741172D02*
X24583476Y73788791D01*
X24583476Y73788791D02*
X24631095Y73836410D01*
X24631095Y73836410D02*
X24678714Y73931648D01*
X24678714Y73931648D02*
X24678714Y74169743D01*
X24678714Y74169743D02*
X24631095Y74264981D01*
X24631095Y74264981D02*
X24583476Y74312600D01*
X24583476Y74312600D02*
X24488238Y74360220D01*
X24488238Y74360220D02*
X24250143Y74360220D01*
X24250143Y74360220D02*
X24154905Y74312600D01*
X24154905Y74312600D02*
X24107286Y74264981D01*
X57530951Y50472134D02*
X56769047Y50472134D01*
X57149999Y50091181D02*
X57149999Y50853086D01*
X5368951Y54282134D02*
X4607047Y54282134D01*
D13*
X59446000Y19415975D02*
X2206000Y19415975D01*
X2206000Y19415975D02*
X2206000Y36545975D01*
X2926000Y35580975D02*
X2926000Y20380975D01*
X20926000Y20380975D02*
X2926000Y20380975D01*
X20926000Y35580975D02*
X2926000Y35580975D01*
X38726000Y22380975D02*
X22926000Y22380975D01*
X22926000Y33580975D02*
X38726000Y33580975D01*
X58726000Y20380975D02*
X40726000Y20380975D01*
X58726000Y35580975D02*
X40726000Y35580975D01*
X52136000Y28920975D02*
X52136000Y26920975D01*
X53136000Y29920975D02*
X53136000Y25920975D01*
X54136000Y24920975D02*
X54136000Y30920975D01*
X55136000Y31920975D02*
X55136000Y23920975D01*
X58726000Y35580975D02*
X58726000Y20380975D01*
X59446000Y36545975D02*
X59446000Y19415975D01*
X2206000Y36545975D02*
X59446000Y36545975D01*
X22926000Y33580975D02*
G75*
G02*
X20926000Y35580975I0J2000000D01*
G01*
X20926000Y20380975D02*
G75*
G02*
X22926000Y22380975I2000000J0D01*
G01*
X40726000Y35580975D02*
G75*
G02*
X38726000Y33580975I-2000000J0D01*
G01*
X38726000Y22380975D02*
G75*
G02*
X40726000Y20380975I0J-2000000D01*
G01*
X37931600Y73634911D02*
X37919000Y71016611D01*
X37906600Y67134911D02*
X37919000Y71016611D01*
X29581600Y73584911D02*
X29581600Y67134911D01*
D10*
X30105078Y74548611D02*
G75*
G02*
X29784922Y74548611I-160078J0D01*
G01*
X29784922Y74548611D02*
G75*
G02*
X30105078Y74548611I160078J0D01*
G01*
D13*
X2276000Y19019975D02*
X59516000Y19019975D01*
X59516000Y19019975D02*
X59516000Y1889975D01*
X58796000Y2854975D02*
X58796000Y18054975D01*
X40796000Y18054975D02*
X58796000Y18054975D01*
X40796000Y2854975D02*
X58796000Y2854975D01*
X22996000Y16054975D02*
X38796000Y16054975D01*
X38796000Y4854975D02*
X22996000Y4854975D01*
X2996000Y18054975D02*
X20996000Y18054975D01*
X2996000Y2854975D02*
X20996000Y2854975D01*
X9586000Y9514975D02*
X9586000Y11514975D01*
X8586000Y8514975D02*
X8586000Y12514975D01*
X7586000Y13514975D02*
X7586000Y7514975D01*
X6586000Y6514975D02*
X6586000Y14514975D01*
X2996000Y2854975D02*
X2996000Y18054975D01*
X2276000Y1889975D02*
X2276000Y19019975D01*
X59516000Y1889975D02*
X2276000Y1889975D01*
X38796000Y4854975D02*
G75*
G02*
X40796000Y2854975I0J-2000000D01*
G01*
X40796000Y18054975D02*
G75*
G02*
X38796000Y16054975I-2000000J0D01*
G01*
X20996000Y2854975D02*
G75*
G02*
X22996000Y4854975I2000000J0D01*
G01*
X22996000Y16054975D02*
G75*
G02*
X20996000Y18054975I0J2000000D01*
G01*
D14*
X16323600Y65733400D02*
X16323600Y66851000D01*
X19320800Y65276200D02*
X16780800Y65276200D01*
X16780800Y67308200D02*
X19320800Y67308200D01*
X19778000Y65733400D02*
X19778000Y66851000D01*
X16780800Y65276200D02*
G75*
G02*
X16323600Y65733400I1J457201D01*
G01*
X16323600Y66851000D02*
G75*
G02*
X16780800Y67308200I457201J-1D01*
G01*
X19778000Y65733400D02*
G75*
G02*
X19320800Y65276200I-457200J0D01*
G01*
X19320800Y67308200D02*
G75*
G02*
X19778000Y66851000I0J-457200D01*
G01*
D15*
X24093850Y72790000D02*
X23708950Y72790000D01*
X23708950Y71736000D02*
X24093850Y71736000D01*
X22603800Y69916650D02*
X22603800Y69531750D01*
X23657800Y69531750D02*
X23657800Y69916650D01*
D13*
X2276000Y61143000D02*
X59516000Y61143000D01*
X59516000Y61143000D02*
X59516000Y44013000D01*
X58796000Y44978000D02*
X58796000Y60178000D01*
X40796000Y60178000D02*
X58796000Y60178000D01*
X40796000Y44978000D02*
X58796000Y44978000D01*
X22996000Y58178000D02*
X38796000Y58178000D01*
X38796000Y46978000D02*
X22996000Y46978000D01*
X2996000Y60178000D02*
X20996000Y60178000D01*
X2996000Y44978000D02*
X20996000Y44978000D01*
X9586000Y51638000D02*
X9586000Y53638000D01*
X8586000Y50638000D02*
X8586000Y54638000D01*
X7586000Y55638000D02*
X7586000Y49638000D01*
X6586000Y48638000D02*
X6586000Y56638000D01*
X2996000Y44978000D02*
X2996000Y60178000D01*
X2276000Y44013000D02*
X2276000Y61143000D01*
X59516000Y44013000D02*
X2276000Y44013000D01*
X38796000Y46978000D02*
G75*
G02*
X40796000Y44978000I0J-2000000D01*
G01*
X40796000Y60178000D02*
G75*
G02*
X38796000Y58178000I-2000000J0D01*
G01*
X20996000Y44978000D02*
G75*
G02*
X22996000Y46978000I2000000J0D01*
G01*
X22996000Y58178000D02*
G75*
G02*
X20996000Y60178000I0J2000000D01*
G01*
M02*
